<svg width="538" height="586" viewBox="0 0 538 586" fill="none" xmlns="http://www.w3.org/2000/svg">
<g opacity="0.2" clip-path="url(#clip0_802_126)">
<path d="M173.562 202.194L248.682 188.861C265.183 208.511 281.722 228.107 298.223 247.758C289.498 271.886 280.772 296.015 271.992 320.104L196.267 333.545C179.766 313.894 163.265 294.243 146.726 274.647C155.498 250.511 164.232 226.429 172.957 202.301L173.562 202.194ZM247.823 191.319L174.611 204.314L149.294 274.24L197.143 331.18L270.355 318.185L295.672 248.259L247.823 191.319Z" fill="#7F60FF"/>
<path d="M174.64 202.578L223.34 260.521L221.622 261.931L172.93 204.035L174.64 202.578Z" fill="#7F60FF"/>
<path d="M223.536 261.641L197.758 332.755L195.659 332.022L221.43 260.862L223.536 261.641Z" fill="#7F60FF"/>
<path d="M297.116 249.106L222.65 262.325L222.261 260.136L296.728 246.917L297.116 249.106Z" fill="#7F60FF"/>
<path d="M222.649 262.325L148.183 275.544L147.794 273.355L222.261 260.137L222.649 262.325Z" fill="#7F60FF"/>
<path d="M223.336 260.522L272.036 318.465L270.318 319.875L221.618 261.932L223.336 260.522Z" fill="#7F60FF"/>
<path d="M249.306 190.478L223.527 261.592L221.429 260.86L247.199 189.699L249.306 190.478Z" fill="#7F60FF"/>
<path d="M345.422 304.863L420.542 291.53C437.043 311.18 453.582 330.776 470.082 350.427C461.357 374.555 452.632 398.684 443.851 422.773L368.126 436.214C351.625 416.563 335.124 396.912 318.585 377.316C327.366 353.226 336.091 329.098 344.817 304.97L345.422 304.863ZM419.674 293.942L346.462 306.936L321.145 376.862L368.994 433.802L442.206 420.807L467.523 350.881L419.674 293.942Z" fill="#7F60FF"/>
<path d="M346.499 305.247L395.191 363.143L393.481 364.6L344.781 306.657L346.499 305.247Z" fill="#7F60FF"/>
<path d="M395.387 364.263L369.608 435.377L367.51 434.644L393.28 363.484L395.387 364.263Z" fill="#7F60FF"/>
<path d="M468.975 351.775L394.509 364.994L394.112 362.758L468.578 349.54L468.975 351.775Z" fill="#7F60FF"/>
<path d="M394.509 364.994L320.043 378.212L319.646 375.977L394.112 362.759L394.509 364.994Z" fill="#7F60FF"/>
<path d="M395.188 363.145L443.887 421.087L442.169 422.497L393.478 364.601L395.188 363.145Z" fill="#7F60FF"/>
<path d="M421.157 293.1L395.387 364.261L393.28 363.481L419.059 292.368L421.157 293.1Z" fill="#7F60FF"/>
<path d="M173.963 204.427L97.5865 217.984C106.599 193.036 115.665 168.126 124.686 143.225L175.872 204.089L173.963 204.427ZM101.006 215.071L171.658 202.531L125.455 147.557L101.006 215.071Z" fill="#7F60FF"/>
<path fill-rule="evenodd" clip-rule="evenodd" d="M398.499 363.133C398.913 365.462 397.382 367.655 395.055 368.068C392.728 368.481 390.535 366.949 390.122 364.62C389.708 362.291 391.239 360.098 393.566 359.685C395.893 359.272 398.086 360.804 398.499 363.133Z" fill="#7F60FF"/>
</g>
<defs>
<clipPath id="clip0_802_126">
<rect width="483" height="408" fill="white" transform="translate(388.008) rotate(71.9896)"/>
</clipPath>
</defs>
</svg>
