<svg width="1097" height="959" viewBox="0 0 1097 959" fill="none" xmlns="http://www.w3.org/2000/svg">
<g opacity="0.2" clip-path="url(#clip0_802_3)">
<path d="M750.402 200.977L760.949 125.415C784.738 115.799 808.488 106.129 832.278 96.5126C852.526 112.271 872.774 128.029 892.968 143.827L882.337 219.998C858.547 229.614 834.757 239.23 811.008 248.9C790.813 233.102 770.565 217.344 750.317 201.586L750.402 200.977ZM763.021 126.993L752.742 200.635L811.414 246.332L880.358 218.433L890.637 144.791L831.965 99.0941L763.021 126.993Z" fill="#7F60FF"/>
<path d="M751.1 200.072L821.261 171.674L822.071 173.744L751.957 202.148L751.1 200.072Z" fill="#7F60FF"/>
<path d="M822.339 171.826L882.045 218.336L880.7 220.105L820.994 173.595L822.339 171.826Z" fill="#7F60FF"/>
<path d="M833.217 97.9829L822.764 172.887L820.562 172.58L831.016 97.6758L833.217 97.9829Z" fill="#7F60FF"/>
<path d="M822.764 172.887L812.31 247.792L810.109 247.485L820.562 172.58L822.764 172.887Z" fill="#7F60FF"/>
<path d="M821.261 171.677L891.422 143.279L892.231 145.348L822.07 173.746L821.261 171.677Z" fill="#7F60FF"/>
<path d="M762.679 125.322L822.338 171.825L820.992 173.594L761.287 127.085L762.679 125.322Z" fill="#7F60FF"/>
<path d="M610.126 257.774L620.673 182.212C644.463 172.596 668.212 162.926 692.002 153.31C712.25 169.068 732.498 184.826 752.693 200.624L742.062 276.795C718.272 286.411 694.482 296.027 670.732 305.697C650.538 289.899 630.29 274.141 610.042 258.383L610.126 257.774ZM622.699 183.783L612.42 257.426L671.092 303.122L740.036 275.223L750.315 201.581L691.643 155.884L622.699 183.783Z" fill="#7F60FF"/>
<path d="M610.825 256.868L680.986 228.47L681.796 230.54L611.635 258.938L610.825 256.868Z" fill="#7F60FF"/>
<path d="M682.064 228.622L741.77 275.132L740.377 276.894L680.718 230.391L682.064 228.622Z" fill="#7F60FF"/>
<path d="M692.942 154.779L682.488 229.683L680.287 229.376L690.74 154.472L692.942 154.779Z" fill="#7F60FF"/>
<path d="M682.489 229.683L672.035 304.588L669.834 304.281L680.287 229.376L682.489 229.683Z" fill="#7F60FF"/>
<path d="M680.985 228.472L751.099 200.068L751.956 202.144L681.795 230.542L680.985 228.472Z" fill="#7F60FF"/>
<path d="M622.357 182.112L682.063 228.622L680.717 230.391L621.011 183.881L622.357 182.112Z" fill="#7F60FF"/>
<path d="M589.22 407.583L599.767 332.021C623.557 322.404 647.306 312.735 671.096 303.118C691.344 318.876 711.592 334.634 731.787 350.433L721.155 426.603C697.366 436.22 673.616 445.889 649.826 455.506C629.578 439.748 609.383 423.949 589.135 408.191L589.22 407.583ZM601.792 333.592L591.514 407.234L650.186 452.931L719.13 425.032L729.409 351.39L670.737 305.693L601.792 333.592Z" fill="#7F60FF"/>
<path d="M589.919 406.677L660.08 378.279L660.889 380.348L590.728 408.746L589.919 406.677Z" fill="#7F60FF"/>
<path d="M661.158 378.431L720.863 424.94L719.471 426.703L659.812 380.2L661.158 378.431Z" fill="#7F60FF"/>
<path d="M672.036 304.588L661.582 379.493L659.38 379.186L669.834 304.281L672.036 304.588Z" fill="#7F60FF"/>
<path d="M661.582 379.493L651.129 454.397L648.927 454.09L659.381 379.186L661.582 379.493Z" fill="#7F60FF"/>
<path d="M660.079 378.282L730.193 349.877L731.05 351.954L660.889 380.352L660.079 378.282Z" fill="#7F60FF"/>
<path d="M601.451 331.921L661.156 378.431L659.811 380.2L600.105 333.69L601.451 331.921Z" fill="#7F60FF"/>
<path d="M789.632 398.31L729.411 351.395L740.042 275.225C763.832 265.608 787.581 255.939 811.371 246.322L871.546 293.231L870.2 295L811.012 248.897L742.068 276.796L731.789 350.438L790.977 396.541L789.632 398.31Z" fill="#7F60FF"/>
<path d="M730.194 349.881L800.355 321.483L801.165 323.552L731.051 351.957L730.194 349.881Z" fill="#7F60FF"/>
<path d="M801.435 321.635L861.141 368.144L859.795 369.914L800.09 323.404L801.435 321.635Z" fill="#7F60FF"/>
<path d="M812.311 247.791L801.857 322.696L799.656 322.389L810.109 247.484L812.311 247.791Z" fill="#7F60FF"/>
<path d="M801.858 322.697L791.404 397.601L789.203 397.294L799.656 322.39L801.858 322.697Z" fill="#7F60FF"/>
<path d="M800.356 321.486L870.517 293.088L871.327 295.158L801.166 323.556L800.356 321.486Z" fill="#7F60FF"/>
<path d="M741.773 275.131L801.432 321.635L800.086 323.404L740.381 276.894L741.773 275.131Z" fill="#7F60FF"/>
<path d="M339.982 296.455L350.529 220.893C374.318 211.276 398.068 201.607 421.858 191.99C442.106 207.748 462.354 223.506 482.549 239.305L471.917 315.475C448.127 325.092 424.337 334.708 400.588 344.378C380.346 328.573 360.145 312.821 339.897 297.063L339.982 296.455ZM352.601 222.47L342.322 296.113L400.994 341.809L469.938 313.911L480.217 240.268L421.545 194.572L352.601 222.47Z" fill="#7F60FF"/>
<path d="M340.681 295.549L410.842 267.151L411.651 269.22L341.537 297.625L340.681 295.549Z" fill="#7F60FF"/>
<path d="M411.968 267.309L471.627 313.812L470.282 315.582L410.576 269.072L411.968 267.309Z" fill="#7F60FF"/>
<path d="M422.797 193.459L412.344 268.364L410.142 268.057L420.596 193.152L422.797 193.459Z" fill="#7F60FF"/>
<path d="M412.344 268.365L401.891 343.269L399.689 342.962L410.143 268.058L412.344 268.365Z" fill="#7F60FF"/>
<path d="M410.843 267.154L481.004 238.756L481.813 240.826L411.652 269.224L410.843 267.154Z" fill="#7F60FF"/>
<path d="M352.259 220.799L411.918 267.303L410.573 269.072L350.867 222.562L352.259 220.799Z" fill="#7F60FF"/>
<path d="M628.45 604.916L568.229 558.001L578.861 481.83C602.65 472.214 626.44 462.597 650.19 452.928L710.364 499.836L708.972 501.599L649.783 455.496L580.839 483.395L570.561 557.037L629.749 603.14L628.45 604.916Z" fill="#7F60FF"/>
<path d="M569.013 556.486L639.174 528.088L639.983 530.158L569.822 558.556L569.013 556.486Z" fill="#7F60FF"/>
<path d="M640.251 528.24L699.957 574.75L698.565 576.513L638.906 530.009L640.251 528.24Z" fill="#7F60FF"/>
<path d="M651.129 454.397L640.676 529.302L638.474 528.994L648.928 454.09L651.129 454.397Z" fill="#7F60FF"/>
<path d="M640.676 529.301L630.223 604.206L628.021 603.899L638.475 528.994L640.676 529.301Z" fill="#7F60FF"/>
<path d="M639.173 528.092L709.287 499.687L710.143 501.763L639.982 530.161L639.173 528.092Z" fill="#7F60FF"/>
<path d="M580.544 481.73L640.25 528.24L638.905 530.009L579.199 483.5L580.544 481.73Z" fill="#7F60FF"/>
<path d="M448.945 464.378L459.491 388.817C483.281 379.2 507.031 369.53 530.821 359.914C551.069 375.672 571.317 391.43 591.512 407.229L580.88 483.399C557.09 493.015 533.341 502.685 509.551 512.302C489.303 496.544 469.055 480.785 448.86 464.987L448.945 464.378ZM461.517 390.388L451.238 464.03L509.91 509.727L578.854 481.828L589.133 408.186L530.461 362.489L461.517 390.388Z" fill="#7F60FF"/>
<path d="M449.643 463.473L519.758 435.069L520.614 437.145L450.453 465.543L449.643 463.473Z" fill="#7F60FF"/>
<path d="M520.884 435.227L580.543 481.73L579.198 483.5L519.492 436.99L520.884 435.227Z" fill="#7F60FF"/>
<path d="M531.76 361.384L521.307 436.289L519.058 435.975L529.512 361.07L531.76 361.384Z" fill="#7F60FF"/>
<path d="M521.307 436.288L510.853 511.193L508.605 510.879L519.059 435.975L521.307 436.288Z" fill="#7F60FF"/>
<path d="M519.759 435.072L589.92 406.674L590.729 408.744L520.615 437.148L519.759 435.072Z" fill="#7F60FF"/>
<path d="M461.175 388.717L520.881 435.226L519.489 436.989L459.83 390.486L461.175 388.717Z" fill="#7F60FF"/>
<path d="M428.039 614.188L438.585 538.626C462.375 529.01 486.165 519.393 509.914 509.724C530.109 525.522 550.357 541.28 570.605 557.038L559.974 633.209C536.184 642.825 512.434 652.495 488.645 662.111C468.396 646.353 448.148 630.595 427.954 614.797L428.039 614.188ZM440.611 540.197L430.332 613.84L489.004 659.536L557.948 631.637L568.227 557.995L509.555 512.298L440.611 540.197Z" fill="#7F60FF"/>
<path d="M428.737 613.282L498.851 584.877L499.708 586.954L429.547 615.352L428.737 613.282Z" fill="#7F60FF"/>
<path d="M499.976 585.036L559.635 631.539L558.289 633.308L498.584 586.798L499.976 585.036Z" fill="#7F60FF"/>
<path d="M510.854 511.193L500.4 586.097L498.152 585.784L508.605 510.879L510.854 511.193Z" fill="#7F60FF"/>
<path d="M500.401 586.098L489.947 661.002L487.699 660.689L498.152 585.784L500.401 586.098Z" fill="#7F60FF"/>
<path d="M498.852 584.881L569.013 556.483L569.823 558.552L499.709 586.957L498.852 584.881Z" fill="#7F60FF"/>
<path d="M440.269 538.526L499.975 585.036L498.582 586.799L438.923 540.295L440.269 538.526Z" fill="#7F60FF"/>
<path d="M890.724 144.188L901.271 68.6262C925.061 59.0098 948.85 49.3933 972.6 39.7236C992.854 55.4349 1013.1 71.2398 1033.29 87.0382L1022.66 163.209C998.869 172.825 975.08 182.441 951.33 192.111C931.135 176.313 910.887 160.555 890.639 144.797L890.724 144.188ZM903.296 70.1973L893.017 143.84L951.69 189.536L1020.63 161.637L1030.91 87.9951L972.24 42.2985L903.296 70.1973Z" fill="#7F60FF"/>
<path d="M891.423 143.282L961.537 114.877L962.393 116.954L892.232 145.352L891.423 143.282Z" fill="#7F60FF"/>
<path d="M962.662 115.036L1022.32 161.539L1020.97 163.308L961.269 116.798L962.662 115.036Z" fill="#7F60FF"/>
<path d="M973.539 41.1935L963.086 116.098L960.837 115.785L971.291 40.8799L973.539 41.1935Z" fill="#7F60FF"/>
<path d="M963.086 116.098L952.633 191.002L950.384 190.689L960.838 115.784L963.086 116.098Z" fill="#7F60FF"/>
<path d="M961.538 114.881L1031.7 86.4826L1032.51 88.5524L962.394 116.957L961.538 114.881Z" fill="#7F60FF"/>
<path d="M902.955 68.5263L962.66 115.036L961.268 116.799L901.609 70.2955L902.955 68.5263Z" fill="#7F60FF"/>
<path d="M490.757 164.76L501.304 89.1985C525.094 79.582 548.843 69.9123 572.633 60.2958C592.881 76.0539 613.129 91.8121 633.324 107.61L622.692 183.781C598.903 193.397 575.113 203.014 551.363 212.683C531.169 196.885 510.921 181.127 490.672 165.369L490.757 164.76ZM503.329 90.7696L493.051 164.412L551.723 210.109L620.667 182.21L630.946 108.567L572.274 62.8707L503.329 90.7696Z" fill="#7F60FF"/>
<path d="M491.456 163.854L561.57 135.45L562.427 137.526L492.266 165.924L491.456 163.854Z" fill="#7F60FF"/>
<path d="M562.697 135.609L622.355 182.112L621.01 183.881L561.304 137.372L562.697 135.609Z" fill="#7F60FF"/>
<path d="M573.573 61.7658L563.119 136.67L560.871 136.357L571.324 61.4521L573.573 61.7658Z" fill="#7F60FF"/>
<path d="M563.12 136.67L552.666 211.575L550.418 211.261L560.871 136.356L563.12 136.67Z" fill="#7F60FF"/>
<path d="M561.571 135.453L631.732 107.055L632.542 109.125L562.428 137.529L561.571 135.453Z" fill="#7F60FF"/>
<path d="M502.988 89.0985L562.693 135.608L561.301 137.371L501.642 90.8678L502.988 89.0985Z" fill="#7F60FF"/>
<path d="M308.623 521.168L319.169 445.607C342.959 435.99 366.749 426.374 390.498 416.704C410.746 432.462 430.941 448.261 451.189 464.019L440.558 540.189C416.768 549.805 393.018 559.475 369.229 569.092C348.98 553.334 328.732 537.575 308.538 521.777L308.623 521.168ZM321.242 447.184L310.963 520.827L369.635 566.523L438.579 538.624L448.858 464.982L390.186 419.285L321.242 447.184Z" fill="#7F60FF"/>
<path d="M309.321 520.262L379.482 491.864L380.292 493.934L310.178 522.339L309.321 520.262Z" fill="#7F60FF"/>
<path d="M380.609 492.023L440.268 538.526L438.922 540.295L379.216 493.786L380.609 492.023Z" fill="#7F60FF"/>
<path d="M391.438 418.173L380.984 493.078L378.783 492.771L389.236 417.866L391.438 418.173Z" fill="#7F60FF"/>
<path d="M380.985 493.078L370.531 567.982L368.33 567.675L378.783 492.771L380.985 493.078Z" fill="#7F60FF"/>
<path d="M379.483 491.868L449.644 463.47L450.454 465.54L380.293 493.938L379.483 491.868Z" fill="#7F60FF"/>
<path d="M320.9 445.513L380.559 492.016L379.213 493.786L319.507 447.276L320.9 445.513Z" fill="#7F60FF"/>
<path d="M157.896 652.869L168.443 577.307C192.226 567.737 216.022 558.074 239.772 548.404C259.966 564.203 280.215 579.961 300.463 595.719L289.831 671.889C266.041 681.506 242.292 691.175 218.502 700.792C198.254 685.034 178.006 669.276 157.811 653.477L157.896 652.869V652.869ZM170.468 578.878L160.189 652.52L218.861 698.217L287.806 670.318L298.084 596.676L239.412 550.979L170.468 578.878Z" fill="#7F60FF"/>
<path d="M158.593 651.963L228.754 623.565L229.563 625.634L159.402 654.032L158.593 651.963Z" fill="#7F60FF"/>
<path d="M229.831 623.717L289.537 670.226L288.145 671.989L228.486 625.486L229.831 623.717Z" fill="#7F60FF"/>
<path d="M240.709 549.873L230.256 624.778L228.054 624.471L238.508 549.566L240.709 549.873Z" fill="#7F60FF"/>
<path d="M230.256 624.779L219.803 699.683L217.601 699.376L228.055 624.472L230.256 624.779Z" fill="#7F60FF"/>
<path d="M228.755 623.568L298.869 595.164L299.725 597.24L229.564 625.638L228.755 623.568Z" fill="#7F60FF"/>
<path d="M170.124 577.207L229.83 623.717L228.485 625.486L168.779 578.976L170.124 577.207Z" fill="#7F60FF"/>
<path d="M342.229 296.764L331.506 373.589C310.567 357.305 289.682 340.981 268.79 324.704L342.497 294.844L342.229 296.764ZM329.793 369.437L339.712 298.369L273.147 325.311L329.793 369.437Z" fill="#7F60FF"/>
<path d="M359.813 644.806L349.893 715.874L416.459 688.932L359.813 644.806ZM347.423 717.486L358.146 640.66L420.863 689.546C396.305 699.532 371.707 709.466 347.156 719.405L347.423 717.486Z" fill="#7F60FF"/>
<path d="M121.34 456.859L110.617 533.685L47.8541 484.793L121.561 454.933L121.294 456.852L121.34 456.859ZM108.951 529.539L118.871 458.471L52.2579 485.407L108.951 529.539Z" fill="#7F60FF"/>
<path fill-rule="evenodd" clip-rule="evenodd" d="M861.42 362.027C865.308 362.569 868.009 366.144 867.467 370.029C866.925 373.915 863.348 376.614 859.46 376.072C855.571 375.53 852.87 371.955 853.412 368.069C854.002 364.19 857.578 361.491 861.42 362.027Z" fill="#7F60FF"/>
<path fill-rule="evenodd" clip-rule="evenodd" d="M950.659 196.932C947.286 196.461 944.948 193.367 945.418 189.996C945.889 186.626 948.985 184.289 952.358 184.76C955.731 185.23 958.069 188.324 957.599 191.695C957.128 195.066 954.032 197.402 950.659 196.932Z" fill="#7F60FF"/>
<path fill-rule="evenodd" clip-rule="evenodd" d="M1020.95 167.6C1018.09 167.202 1016.12 164.588 1016.52 161.732C1016.91 158.876 1019.53 156.902 1022.39 157.301C1025.25 157.699 1027.22 160.313 1026.82 163.169C1026.43 165.978 1023.76 167.992 1020.95 167.6Z" fill="#7F60FF"/>
<path fill-rule="evenodd" clip-rule="evenodd" d="M881.935 215.027C884.278 215.353 885.89 217.487 885.563 219.828C885.237 222.169 883.101 223.78 880.759 223.454C878.417 223.127 876.804 220.993 877.131 218.652C877.457 216.311 879.64 214.706 881.935 215.027Z" fill="#7F60FF"/>
<path fill-rule="evenodd" clip-rule="evenodd" d="M871.482 289.932C873.824 290.258 875.437 292.392 875.11 294.733C874.784 297.074 872.648 298.685 870.306 298.359C867.963 298.032 866.351 295.898 866.678 293.557C867.004 291.216 869.186 289.612 871.482 289.932Z" fill="#7F60FF"/>
<path fill-rule="evenodd" clip-rule="evenodd" d="M719.446 430.996C716.588 430.597 714.613 427.983 715.012 425.127C715.41 422.272 718.026 420.298 720.884 420.696C723.742 421.095 725.717 423.709 725.318 426.565C724.92 429.421 722.304 431.394 719.446 430.996Z" fill="#7F60FF"/>
<path fill-rule="evenodd" clip-rule="evenodd" d="M628.249 610.135C624.876 609.665 622.537 606.57 623.008 603.199C623.478 599.829 626.575 597.492 629.948 597.963C633.321 598.433 635.659 601.527 635.189 604.898C634.725 608.222 631.622 610.605 628.249 610.135Z" fill="#7F60FF"/>
<path fill-rule="evenodd" clip-rule="evenodd" d="M790.916 393.237C793.258 393.564 794.871 395.698 794.544 398.039C794.217 400.38 792.082 401.991 789.739 401.664C787.397 401.338 785.784 399.204 786.111 396.863C786.438 394.522 788.573 392.911 790.916 393.237Z" fill="#7F60FF"/>
<path fill-rule="evenodd" clip-rule="evenodd" d="M710.3 496.536C712.643 496.863 714.255 498.997 713.929 501.338C713.602 503.679 711.467 505.29 709.124 504.963C706.782 504.637 705.169 502.503 705.496 500.162C705.823 497.821 707.958 496.21 710.3 496.536Z" fill="#7F60FF"/>
<path fill-rule="evenodd" clip-rule="evenodd" d="M699.847 571.442C702.19 571.768 703.802 573.902 703.476 576.243C703.149 578.584 701.014 580.195 698.671 579.869C696.329 579.542 694.716 577.408 695.043 575.067C695.369 572.726 697.505 571.115 699.847 571.442Z" fill="#7F60FF"/>
<path fill-rule="evenodd" clip-rule="evenodd" d="M742.053 269.014C745.941 269.557 748.642 273.131 748.1 277.017C747.558 280.903 743.981 283.602 740.092 283.059C736.204 282.517 733.503 278.942 734.045 275.057C734.588 271.171 738.164 268.472 742.053 269.014Z" fill="#7F60FF"/>
<path fill-rule="evenodd" clip-rule="evenodd" d="M761.13 132.313C757.757 131.842 755.418 128.748 755.889 125.377C756.359 122.006 759.456 119.67 762.829 120.14C766.202 120.611 768.54 123.705 768.07 127.076C767.599 130.447 764.503 132.783 761.13 132.313Z" fill="#7F60FF"/>
<path fill-rule="evenodd" clip-rule="evenodd" d="M961.243 121.091C958.385 120.692 956.41 118.078 956.809 115.222C957.207 112.366 959.823 110.392 962.681 110.791C965.539 111.19 967.514 113.804 967.115 116.66C966.723 119.469 964.101 121.489 961.243 121.091Z" fill="#7F60FF"/>
<path fill-rule="evenodd" clip-rule="evenodd" d="M562.584 132.3C564.926 132.627 566.539 134.761 566.212 137.101C565.885 139.442 563.75 141.054 561.407 140.727C559.065 140.4 557.452 138.266 557.779 135.925C558.106 133.585 560.241 131.973 562.584 132.3Z" fill="#7F60FF"/>
<path fill-rule="evenodd" clip-rule="evenodd" d="M580.871 475.619C584.76 476.161 587.461 479.736 586.918 483.621C586.376 487.507 582.799 490.206 578.911 489.664C575.022 489.121 572.321 485.547 572.864 481.661C573.406 477.775 576.983 475.076 580.871 475.619Z" fill="#7F60FF"/>
<path fill-rule="evenodd" clip-rule="evenodd" d="M368.604 573.918C365.231 573.448 362.893 570.353 363.363 566.983C363.834 563.612 366.93 561.275 370.303 561.746C373.676 562.216 376.015 565.311 375.544 568.681C375.08 572.005 371.931 574.382 368.604 573.918Z" fill="#7F60FF"/>
<path fill-rule="evenodd" clip-rule="evenodd" d="M498.558 591.091C495.7 590.692 493.724 588.078 494.123 585.222C494.522 582.366 497.137 580.392 499.995 580.791C502.853 581.19 504.828 583.804 504.43 586.66C504.038 589.469 501.415 591.489 498.558 591.091Z" fill="#7F60FF"/>
<path fill-rule="evenodd" clip-rule="evenodd" d="M461.062 385.408C463.405 385.735 465.017 387.869 464.69 390.21C464.364 392.551 462.228 394.162 459.886 393.835C457.543 393.509 455.931 391.375 456.258 389.034C456.631 386.7 458.767 385.088 461.062 385.408Z" fill="#7F60FF"/>
<path fill-rule="evenodd" clip-rule="evenodd" d="M541.677 282.11C544.02 282.436 545.632 284.57 545.306 286.911C544.979 289.252 542.844 290.863 540.501 290.537C538.159 290.21 536.546 288.076 536.873 285.735C537.2 283.394 539.335 281.783 541.677 282.11Z" fill="#7F60FF"/>
<path fill-rule="evenodd" clip-rule="evenodd" d="M250.627 470.599C252.969 470.925 254.582 473.059 254.255 475.4C253.928 477.741 251.793 479.352 249.45 479.026C247.108 478.699 245.495 476.565 245.822 474.224C246.196 471.89 248.331 470.279 250.627 470.599Z" fill="#7F60FF"/>
<path fill-rule="evenodd" clip-rule="evenodd" d="M549.121 703.142C551.463 703.468 553.076 705.602 552.749 707.943C552.422 710.284 550.287 711.895 547.944 711.569C545.602 711.242 543.989 709.108 544.316 706.767C544.643 704.426 546.778 702.815 549.121 703.142Z" fill="#7F60FF"/>
</g>
<defs>
<clipPath id="clip0_802_3">
<rect width="1097" height="959" fill="white"/>
</clipPath>
</defs>
</svg>
