<svg width="259" height="264" viewBox="0 0 259 264" fill="none" xmlns="http://www.w3.org/2000/svg">
<g opacity="0.2" clip-path="url(#clip0_802_147)">
<path d="M-105.126 -56.4606L-30.006 -69.7937C-13.5052 -50.1429 3.03383 -30.547 19.5346 -10.8962C10.8092 13.232 2.08375 37.3603 -6.69652 61.4501L-82.4218 74.8907C-98.9226 55.2399 -115.423 35.5891 -131.962 15.9931C-123.19 -8.14336 -114.457 -32.225 -105.731 -56.3532L-105.126 -56.4606ZM-30.8656 -67.3351L-104.078 -54.3407L-129.394 15.5853L-81.5456 72.5252L-8.33368 59.5308L16.983 -10.3952L-30.8656 -67.3351Z" fill="#7F60FF"/>
<path d="M18.4277 -9.54819L-56.0387 3.67027L-56.4274 1.48164L18.0391 -11.7368L18.4277 -9.54819Z" fill="#7F60FF"/>
<path d="M66.7332 46.2084L141.853 32.8753C158.354 52.5261 174.893 72.122 191.394 91.7728C182.669 115.901 173.943 140.029 165.163 164.119L89.4376 177.56C72.9368 157.909 56.436 138.258 39.8969 118.662C48.6772 94.5722 57.4027 70.444 66.1281 46.3158L66.7332 46.2084ZM140.985 35.2873L67.7735 48.2817L42.4568 118.208L90.3055 175.148L163.517 162.153L188.834 92.2272L140.985 35.2873Z" fill="#7F60FF"/>
<path d="M67.8109 46.5928L116.502 104.489L114.792 105.945L66.0929 48.0027L67.8109 46.5928Z" fill="#7F60FF"/>
<path d="M116.699 105.608L90.9199 176.722L88.8213 175.99L114.592 104.829L116.699 105.608Z" fill="#7F60FF"/>
<path d="M190.287 93.121L115.82 106.339L115.423 104.104L189.89 90.8857L190.287 93.121Z" fill="#7F60FF"/>
<path d="M115.821 106.34L41.3543 119.558L40.9574 117.323L115.424 104.104L115.821 106.34Z" fill="#7F60FF"/>
<path d="M116.499 104.49L165.199 162.433L163.481 163.843L114.79 105.947L116.499 104.49Z" fill="#7F60FF"/>
<path d="M142.469 34.4457L116.698 105.606L114.591 104.827L140.37 33.7132L142.469 34.4457Z" fill="#7F60FF"/>
<path fill-rule="evenodd" clip-rule="evenodd" d="M119.811 104.479C120.224 106.807 118.694 109.001 116.366 109.414C114.039 109.827 111.847 108.294 111.433 105.966C111.02 103.637 112.55 101.444 114.878 101.031C117.205 100.618 119.397 102.15 119.811 104.479Z" fill="#7F60FF"/>
</g>
<defs>
<clipPath id="clip0_802_147">
<rect width="211.019" height="203.379" fill="white" transform="translate(193.413) rotate(71.9896)"/>
</clipPath>
</defs>
</svg>
