<svg width="732" height="609" viewBox="0 0 732 609" fill="none" xmlns="http://www.w3.org/2000/svg">
<path d="M727.425 358.815C712.175 438.725 667.34 493.015 592.92 521.685C518.5 550.355 442.555 575.67 365.085 597.63C287.615 619.59 209.23 609.525 129.93 567.435C50.6297 525.345 7.92965 460.075 1.82965 371.625C-4.27035 283.175 6.40465 202.655 33.8547 130.065C61.3047 57.4752 115.29 26.9752 195.81 38.5652C276.33 50.1552 340.075 44.0552 387.045 20.2652C434.015 -3.52481 488.915 -5.65981 551.745 13.8602C614.575 33.3802 663.375 75.7752 698.145 141.045C732.915 206.315 742.675 278.905 727.425 358.815Z" fill="#4315FF" fill-opacity="0.2"/>
</svg>
