<svg width="684" height="549" viewBox="0 0 684 549" fill="none" xmlns="http://www.w3.org/2000/svg">
<path d="M668.503 306.098C653.253 386.008 665.176 451.95 590.756 480.62C516.336 509.29 459.47 496.04 382 518C304.53 539.96 207.066 568.46 127.766 526.37C48.4663 484.28 61.1 444.45 55 356C48.9 267.55 -20.9481 259.59 6.50187 187C33.9519 114.41 76.9827 21.41 157.503 33C238.023 44.59 291.533 37.8886 338.503 14.0986C385.473 -9.69143 485.673 0.0782108 548.503 19.5982C611.333 39.1182 625.73 85.23 660.5 150.5C695.27 215.77 683.753 226.188 668.503 306.098Z" fill="#4315FF" fill-opacity="0.2"/>
</svg>
