<svg width="482" height="847" viewBox="0 0 482 847" fill="none" xmlns="http://www.w3.org/2000/svg">
  <path fill-rule="evenodd" clip-rule="evenodd" d="M236.601 162.1V184V203.7L250.001 198.7L251.801 168.6L236.601 162.1Z" fill="#FE8AB1"/>
  <path fill-rule="evenodd" clip-rule="evenodd" d="M276.401 245.4C276.001 250.4 275.701 255.5 275.401 260.5C280.001 260 284.601 259.5 289.201 259.1C288.501 273.8 288.201 288.4 288.101 303.1C293.501 302.5 299.001 302 304.401 301.5C302.801 314.8 301.501 328.2 300.201 341.5C305.901 340.4 311.601 339.4 317.301 338.4C316.201 353.3 315.201 368.2 314.101 383C319.501 381.5 324.901 380 330.401 378.6C329.701 390.5 329.001 402.3 328.201 414.2C331.901 413.9 335.501 413.5 339.201 413.2C337.801 426 336.301 438.8 334.601 451.6C339.401 451.2 344.301 450.8 349.101 450.4C346.901 467 344.401 483.6 341.501 500.2C347.301 499.7 353.101 499.3 358.901 499C354.701 513.9 350.201 528.8 345.401 543.6C351.701 542.6 358.001 541.7 364.301 540.9C359.401 557.3 354.101 573.6 348.401 589.8C354.701 588.4 361.001 587.1 367.301 585.8C363.401 597.9 359.201 609.9 354.701 621.8C358.201 621.6 361.701 621.5 365.201 621.4C359.801 635 354.101 648.5 348.101 661.9C353.401 661.7 358.801 661.6 364.101 661.6C356.501 678.9 348.301 696 339.601 713C346.101 712.9 352.601 712.9 359.001 712.9C349.601 728 339.801 743 329.501 757.7C336.801 757.2 344.001 756.8 351.301 756.4C340.601 772.7 329.401 788.8 317.801 804.7C325.201 803.8 332.701 803 340.101 802.3C329.601 817.4 318.601 832.3 307.301 847C291.401 846.3 275.501 845.8 259.601 845.5C259.301 830.7 258.501 816 257.201 801.3C264.301 802.2 271.401 803.2 278.401 804.2C276.601 788.4 274.101 772.7 271.001 757C278.301 757.3 285.601 757.6 292.801 758C289.501 743.5 285.701 729.2 281.301 714.9C288.001 714.6 294.701 714.3 301.401 714C298.401 697.5 294.801 681.2 290.501 665C296.001 664.6 301.501 664.2 307.001 663.9C303.501 651.1 299.501 638.4 295.201 625.7C298.901 625.4 302.601 625.1 306.401 624.8C302.801 613.5 298.901 602.2 294.701 591.1C301.101 591.4 307.501 591.9 313.901 592.3C307.801 577.1 301.101 562 293.801 547.1C300.301 546.8 306.701 546.6 313.201 546.5C306.101 532.7 298.501 519.2 290.401 505.8C296.201 505 302.001 504.3 307.901 503.7C300.401 488.1 292.301 472.8 283.601 457.7C288.401 457 293.201 456.4 298.101 455.7C291.201 443.8 283.901 432.1 276.201 420.5C279.801 420 283.501 419.5 287.101 419C280.301 408 273.101 397.1 265.701 386.3C271.601 386.4 277.501 386.5 283.501 386.7C273.801 373 263.701 359.5 253.201 346.2C259.101 345.8 265.101 345.4 271.001 345C261.201 332.9 251.101 321.1 240.801 309.3C246.201 308.5 251.501 307.7 256.901 306.9C247.101 293.5 237.101 280.2 227.201 266.9C231.701 266.2 236.301 265.5 240.801 264.9C236.701 259.5 232.701 254.1 228.701 248.7C225.001 249.4 222.801 250 222.801 250L227.001 246.3L224.901 243.4" fill="#3F1D12"/>
  <path fill-rule="evenodd" clip-rule="evenodd" d="M295.9 594.3C301.9 594.6 308 595 314 595.4C313.6 594.4 313.1 593.3 312.7 592.3C306.7 591.9 300.7 591.5 294.7 591.2C295.2 592.2 295.6 593.3 295.9 594.3Z" fill="#783822"/>
  <path fill-rule="evenodd" clip-rule="evenodd" d="M238.701 265.2C234.801 265.8 231.001 266.3 227.101 266.9C227.801 267.8 228.501 268.7 229.101 269.6C233.001 269 236.801 268.4 240.701 267.9C240.101 267 239.401 266.1 238.701 265.2Z" fill="#783822"/>
  <path fill-rule="evenodd" clip-rule="evenodd" d="M254.9 307.2C250.2 307.9 245.5 308.5 240.8 309.3C241.6 310.2 242.4 311.1 243.1 312C247.7 311.3 252.3 310.6 256.9 310C256.2 309.1 255.5 308.1 254.9 307.2Z" fill="#783822"/>
  <path fill-rule="evenodd" clip-rule="evenodd" d="M349.6 589.7C349.2 590.8 348.9 591.9 348.5 593C354.4 591.7 360.3 590.4 366.3 589.2C366.7 588.1 367 587 367.4 585.9C361.4 587.2 355.5 588.4 349.6 589.7Z" fill="#783822"/>
  <path fill-rule="evenodd" clip-rule="evenodd" d="M271.7 760.2C278.8 760.5 285.9 760.8 293 761.1C292.8 760.1 292.5 759.1 292.3 758C285.3 757.6 278.2 757.3 271.2 757.1C271.4 758.2 271.5 759.2 271.7 760.2Z" fill="#783822"/>
  <path fill-rule="evenodd" clip-rule="evenodd" d="M291.4 668.1C296.6 667.7 301.9 667.4 307.1 667C306.8 666 306.5 665 306.3 664C301.1 664.3 295.9 664.7 290.7 665.1C290.9 666.1 291.2 667.1 291.4 668.1Z" fill="#783822"/>
  <path fill-rule="evenodd" clip-rule="evenodd" d="M282.4 718C288.8 717.7 295.2 717.4 301.6 717.1C301.4 716.1 301.2 715.1 301 714.1C294.5 714.4 288 714.7 281.5 715C281.8 716 282.1 717 282.4 718Z" fill="#783822"/>
  <path fill-rule="evenodd" clip-rule="evenodd" d="M268.7 345.2C263.6 345.5 258.4 345.8 253.3 346.2C254.1 347.2 254.8 348.1 255.5 349.1C260.7 348.7 265.9 348.4 271.1 348.1C270.2 347.1 269.5 346.1 268.7 345.2Z" fill="#783822"/>
  <path fill-rule="evenodd" clip-rule="evenodd" d="M341.601 503.4C347.101 503 352.601 502.6 358.101 502.2C358.401 501.2 358.701 500.1 359.001 499.1C353.401 499.4 347.801 499.9 342.201 500.3C341.901 501.4 341.801 502.4 341.601 503.4Z" fill="#783822"/>
  <path fill-rule="evenodd" clip-rule="evenodd" d="M334.7 454.8C339.4 454.4 344.1 454 348.8 453.7C348.9 452.7 349.1 451.7 349.2 450.6C344.5 450.9 339.8 451.3 335.1 451.7C334.9 452.8 334.8 453.8 334.7 454.8Z" fill="#783822"/>
  <path fill-rule="evenodd" clip-rule="evenodd" d="M345.4 546.8C351.4 545.9 357.4 545 363.4 544.2C363.7 543.1 364 542.1 364.4 541C358.4 541.8 352.5 542.7 346.5 543.6C346.1 544.7 345.8 545.8 345.4 546.8Z" fill="#783822"/>
  <path fill-rule="evenodd" clip-rule="evenodd" d="M328.3 417.3C331.9 417 335.4 416.7 339 416.4C339.1 415.4 339.2 414.4 339.3 413.3C335.7 413.6 332.1 413.9 328.5 414.3C328.4 415.3 328.3 416.3 328.3 417.3Z" fill="#783822"/>
  <path fill-rule="evenodd" clip-rule="evenodd" d="M278.1 804.4C271.2 803.4 264.2 802.4 257.3 801.5C257.4 802.5 257.5 803.5 257.5 804.6C264.5 805.5 271.5 806.5 278.5 807.5C278.4 806.4 278.3 805.4 278.1 804.4Z" fill="#783822"/>
  <path fill-rule="evenodd" clip-rule="evenodd" d="M296.3 628.8C299.7 628.5 303.1 628.2 306.5 628C306.2 627 305.9 626 305.5 625.1C302.1 625.4 298.7 625.6 295.3 625.9C295.7 626.8 296 627.8 296.3 628.8Z" fill="#783822"/>
  <path fill-rule="evenodd" clip-rule="evenodd" d="M314.2 386.1C319.5 384.6 324.9 383.2 330.3 381.8C330.4 380.8 330.4 379.8 330.5 378.7C325.1 380.1 319.8 381.5 314.5 383C314.4 384.1 314.3 385.1 314.2 386.1Z" fill="#783822"/>
  <path fill-rule="evenodd" clip-rule="evenodd" d="M226.7 246.5L276.2 248.5C276.3 247.5 276.3 246.5 276.4 245.5L224.8 243.5L226.9 246.4L226.7 246.5Z" fill="#783822"/>
  <path fill-rule="evenodd" clip-rule="evenodd" d="M317.9 808C324.6 807.2 331.3 806.5 337.9 805.8C338.7 804.7 339.4 803.6 340.2 802.5C333.5 803.2 326.9 803.9 320.2 804.7C319.5 805.8 318.7 806.9 317.9 808Z" fill="#783822"/>
  <path fill-rule="evenodd" clip-rule="evenodd" d="M329.601 760.9C336.201 760.5 342.801 760.1 349.301 759.7C350.001 758.6 350.701 757.6 351.401 756.6C344.801 756.9 338.301 757.3 331.701 757.8C331.001 758.8 330.301 759.9 329.601 760.9Z" fill="#783822"/>
  <path fill-rule="evenodd" clip-rule="evenodd" d="M225.5 247.5L222.7 250C222.7 250 224.2 249.6 226.7 249.1L225.5 247.5Z" fill="#783822"/>
  <path fill-rule="evenodd" clip-rule="evenodd" d="M341.2 713.1C340.7 714.1 340.2 715.1 339.7 716.1C345.5 716 351.4 716 357.2 716C357.8 715 358.5 714 359.1 713C353.1 713.1 347.2 713.1 341.2 713.1Z" fill="#783822"/>
  <path fill-rule="evenodd" clip-rule="evenodd" d="M275.4 263.5C280 263 284.5 262.5 289.1 262.1C289.1 261.1 289.2 260.1 289.2 259.1C284.7 259.6 280.1 260 275.6 260.5C275.5 261.5 275.4 262.5 275.4 263.5Z" fill="#783822"/>
  <path fill-rule="evenodd" clip-rule="evenodd" d="M354.7 625C357.8 624.9 360.9 624.8 364 624.7C364.4 623.7 364.8 622.7 365.2 621.6C362.1 621.7 358.9 621.8 355.8 622C355.5 623 355.1 624 354.7 625Z" fill="#783822"/>
  <path fill-rule="evenodd" clip-rule="evenodd" d="M348.101 665.1C353.001 665 357.901 664.9 362.801 664.8C363.301 663.8 363.701 662.8 364.201 661.7C359.301 661.8 354.401 661.9 349.501 662C349.001 663.1 348.601 664.1 348.101 665.1Z" fill="#783822"/>
  <path fill-rule="evenodd" clip-rule="evenodd" d="M311.8 546.6C305.9 546.7 299.9 546.9 294 547.2C294.5 548.2 294.9 549.2 295.4 550.2C301.4 550 307.4 549.8 313.4 549.6C312.8 548.6 312.3 547.6 311.8 546.6Z" fill="#783822"/>
  <path fill-rule="evenodd" clip-rule="evenodd" d="M296.5 455.9C292.2 456.5 288 457 283.7 457.6C284.2 458.5 284.8 459.5 285.3 460.4C289.6 459.8 293.9 459.2 298.2 458.7C297.6 457.8 297 456.9 296.5 455.9Z" fill="#783822"/>
  <path fill-rule="evenodd" clip-rule="evenodd" d="M285.4 419.2C282.3 419.6 279.3 420 276.2 420.5C276.8 421.4 277.4 422.3 278 423.3C281 422.9 284.1 422.4 287.1 422C286.6 421 286 420.1 285.4 419.2Z" fill="#783822"/>
  <path fill-rule="evenodd" clip-rule="evenodd" d="M306.601 503.9C301.201 504.5 295.901 505.2 290.601 505.9C291.201 506.8 291.701 507.8 292.301 508.7C297.601 508 302.801 507.4 308.101 506.8C307.501 505.8 307.101 504.8 306.601 503.9Z" fill="#783822"/>
  <path fill-rule="evenodd" clip-rule="evenodd" d="M267.9 389.4C273.1 389.5 278.4 389.6 283.6 389.7C282.9 388.7 282.1 387.6 281.4 386.6C276.2 386.5 271 386.3 265.8 386.3C266.5 387.3 267.2 388.3 267.9 389.4Z" fill="#783822"/>
  <path fill-rule="evenodd" clip-rule="evenodd" d="M288.201 306.1C293.501 305.5 298.801 305 304.101 304.5C304.201 303.5 304.301 302.5 304.401 301.4C299.001 301.9 293.501 302.4 288.101 303C288.201 304.1 288.201 305.1 288.201 306.1Z" fill="#783822"/>
  <path fill-rule="evenodd" clip-rule="evenodd" d="M300.3 344.5C305.9 343.4 311.6 342.4 317.2 341.5C317.3 340.5 317.3 339.5 317.4 338.4C311.8 339.4 306.2 340.3 300.6 341.4C300.5 342.5 300.4 343.5 300.3 344.5Z" fill="#783822"/>
  <path fill-rule="evenodd" clip-rule="evenodd" d="M238.3 243.9C228.4 243.5 218.9 247.6 212.4 255.1C191.9 278.5 178.2 315.3 183.4 342.3C166.2 328.2 170.5 306.1 169.1 298.6C148.7 326.9 133.1 340.2 140.9 410.5C124.7 389.6 128.8 380.4 124.2 365.6C107.6 382.5 117.4 459.3 138.2 476.8C25.1004 414.1 50.7004 324.5 147.2 253.1C119.5 259.5 86.6004 299.3 86.6004 299.3C106 257.2 107.2 246.5 206.6 204.3C196 198.7 185.7 195 177.4 195.6C155.2 197.2 130.8 202.6 115.4 223C116.6 199 133.6 189.5 138 183.8C108.9 182.3 92.3004 176.1 48.5004 225.6C54.8004 198.3 62.9004 196.6 70.8004 183.4C51.2004 178.5 4.00037 233.6 2.30037 263C-10.3996 122.8 62.8004 92.1 158.1 136.6C140.3 115.4 97.3004 109.5 97.3004 109.5C118.4 105.2 136.2 106.8 161.1 120.3C168.9 116.2 177.5 119.2 180.9 118.9C165 101.3 157.9 88.5 116.1 88.4C129.1 78.1 134.3 81.9 143.2 79.8C133.9 66 88.3004 66.7 77.1004 80.8C118.5 1.90003 170.3 28.6 208.4 106.5C205.7 85.4 183.6 57.4 183.6 57.4C206.2 74.4 217.5 94.4 236.3 162" fill="#FE8AB1"/>
  <path fill-rule="evenodd" clip-rule="evenodd" d="M110.7 107.7C106.4 108 102 108.6 97.4004 109.6C97.4004 109.6 127.8 113.8 148 127.7C151.4 129.1 154.8 130.6 158.2 132.2C146.8 118.4 124.8 111.1 110.7 107.7Z" fill="#FF6197"/>
  <path fill-rule="evenodd" clip-rule="evenodd" d="M176.801 114.1C178.601 114.3 180.101 114.5 181.101 114.4C166.101 97.7 158.901 85.4 122.801 84C120.901 85.1 118.701 86.5 116.301 88.4C154.101 88.6 163.601 99 176.801 114.1Z" fill="#FF6197"/>
  <path fill-rule="evenodd" clip-rule="evenodd" d="M177.501 191.1C155.501 192.7 131.401 198 116.101 217.8C115.801 219.5 115.701 221.2 115.601 223C130.901 202.6 155.301 197.2 177.601 195.6C184.601 195.1 193.101 197.7 201.901 201.9C203.501 201.2 205.101 200.5 206.801 199.8C196.101 194.2 185.801 190.5 177.501 191.1Z" fill="#FF6197"/>
  <path fill-rule="evenodd" clip-rule="evenodd" d="M139.401 75.9C140.701 75.8 142.001 75.6 143.501 75.2C135.201 62.9 98.101 62.2 82.301 72.1C80.701 74.8 79.101 77.7 77.501 80.7C87.401 68.2 124.901 66.3 139.401 75.9Z" fill="#FF6197"/>
  <path fill-rule="evenodd" clip-rule="evenodd" d="M208.7 102C207.1 89.2 198.4 74 191.7 63.9C189.2 61.6 186.6 59.5 183.9 57.4C183.9 57.4 200.8 78.7 206.8 98.2C207.5 99.5 208.1 100.7 208.7 102Z" fill="#FF6197"/>
  <path fill-rule="evenodd" clip-rule="evenodd" d="M91.0006 289.8C89.6006 292.8 88.2006 296 86.6006 299.3C86.6006 299.3 111.301 269.5 135.801 257.3C139.501 254.3 143.301 251.4 147.201 248.5C125.701 253.6 100.901 278.9 91.0006 289.8Z" fill="#FF6197"/>
  <path fill-rule="evenodd" clip-rule="evenodd" d="M169.201 294C152.201 317.6 138.501 330.8 139.001 375.3C139.501 334.4 152.801 321.3 169.201 298.5C170.601 306 166.301 328.1 183.501 342.2C183.201 340.5 182.901 338.8 182.701 337C166.401 323 170.501 301.4 169.201 294Z" fill="#FF6197"/>
  <path fill-rule="evenodd" clip-rule="evenodd" d="M124.201 361C118.101 367.2 115.601 381.5 115.801 398C116.001 383.5 118.601 371.2 124.201 365.5C128.801 380.3 124.701 389.5 140.901 410.4C140.701 408.6 140.501 406.9 140.401 405.1C124.901 384.8 128.801 375.7 124.201 361Z" fill="#FF6197"/>
  <path fill-rule="evenodd" clip-rule="evenodd" d="M212.401 250.5C194.301 271.1 181.601 302.2 182.401 327.8C183.101 303.2 195.401 274.5 212.401 255.1C218.901 247.7 228.401 243.6 238.301 243.9L238.201 239.4C228.401 239 218.901 243.1 212.401 250.5Z" fill="#FF6197"/>
  <path fill-rule="evenodd" clip-rule="evenodd" d="M131.401 468.3C85.3008 440.9 64.6008 408.8 63.7008 375.4C62.7008 412 85.2008 447.4 138.301 476.8C135.801 474.7 133.501 471.8 131.401 468.3Z" fill="#FF6197"/>
  <path fill-rule="evenodd" clip-rule="evenodd" d="M133.901 183.6C135.701 181.9 137.201 180.5 138.201 179.3C109.401 177.9 92.9011 171.8 50.3011 219.3C49.7011 221.2 49.2012 223.3 48.7012 225.6C90.3012 178.6 107.301 181.9 133.901 183.6Z" fill="#FF6197"/>
  <path fill-rule="evenodd" clip-rule="evenodd" d="M68.1008 183.1C69.0008 181.8 70.0008 180.4 70.9008 178.9C51.3008 174 4.10083 229.1 2.40083 258.5C1.50083 248.6 1.10084 239.3 1.00084 230.5C0.90084 240.6 1.40083 251.4 2.40083 263C4.00083 234.9 47.2008 183.4 68.1008 183.1Z" fill="#FF6197"/>
  <path fill-rule="evenodd" clip-rule="evenodd" d="M238.3 243.9C238.3 243.9 230.2 227.5 231.3 213.9C232.4 200.3 239.7 196.9 244.5 188C248.9 179.9 238.7 165 236.9 162.5C236.7 162.2 236.6 162 236.6 161.6C232.4 116.5 233.6 93.2 240.6 73C241.3 70.9 244.4 71.7 244 73.8C243.1 79.1 242.3 85.3 241.9 91.4C241.7 93.7 245.1 94 245.4 91.7C255.2 18 288.8 -21.8 345.1 14.6C346.5 15.5 346 17.8 344.3 17.8C327.7 18.6 299.9 35.9 293.2 50.6C292.5 52.1 294.1 53.7 295.6 52.9C301 50.2 304.9 46.7 313.9 46.8C315.6 46.8 316.3 49.1 314.8 50C284.3 70 280.4 84.5 274 105.2C273.5 106.8 275.4 108.2 276.8 107.1C280.1 104.5 284.6 101.3 289.9 100.6C290.4 100.5 290.9 100.3 291.1 99.8C305.2 79 318 67.7 333.3 60.1C335.1 59.2 336.8 61.6 335.3 63C326.3 71.3 312.4 85.7 304.2 101.3C303.2 103.2 305.8 104.9 307.1 103.2C372.1 22.6 442.2 13.5 481.1 129.7C481.7 131.5 479.4 132.8 478.1 131.5C459 111.1 412.8 95.3 396.5 105.4C395.3 106.1 395.4 107.8 396.6 108.5C406.2 113.8 413.6 113.2 425.9 127.9C427 129.3 425.7 131.2 424 130.7C373.8 114.3 360.2 126.7 337.4 142.6C336.1 143.5 336.5 145.4 338 145.8C345.3 147.5 358.1 149.3 366.5 162.9C367.4 164.3 366 166 364.4 165.5C344.4 158.7 322.5 166.9 303.4 177C296.6 180.6 289.6 188.1 282.9 197.5C282 198.8 283.1 200.5 284.6 200.3C376.6 185.4 388.6 191.8 414.8 213.4C416.3 214.6 415 217 413.2 216.4C401.3 212.6 379.7 207.1 361.7 209.3C359.7 209.6 359.7 212.5 361.7 212.8C463.8 226 513.7 288.1 447 396.8C446 398.4 443.5 397.5 443.8 395.6C448.4 365.1 433.2 310.8 415.8 300.7C414.6 300 413 301.1 413.2 302.5C414.8 314.9 419.6 321.7 415.8 342C415.5 343.8 412.9 344 412.4 342.2C395.2 284.2 377.6 278.4 352.1 266.2C350.7 265.5 349.1 266.9 349.7 268.4C352.7 276.3 358.9 289.8 353.6 306.2C353.1 307.8 350.7 307.8 350.3 306.1C341.8 277.3 309.6 248.7 276.5 245.6H276.4L238.3 243.9Z" fill="#FCBE09"/>
  <path fill-rule="evenodd" clip-rule="evenodd" d="M282.9 192.8C282.1 193.9 282.9 195.5 284.2 195.6C290.5 187.1 297.1 180.3 303.4 176.9C322.4 166.8 344.4 158.6 364.4 165.4C365.9 165.9 367.3 164.2 366.5 162.8C366.1 162.1 365.7 161.5 365.2 160.9C365 160.9 364.7 160.9 364.4 160.8C344.4 154 322.5 162.2 303.4 172.3C296.6 175.9 289.6 183.4 282.9 192.8Z" fill="#EDB100"/>
  <path fill-rule="evenodd" clip-rule="evenodd" d="M314.7 50.1C316.2 49.1 315.5 46.9 313.8 46.9C313.5 46.9 313.1 46.9 312.8 46.9C284.1 66.3 280.2 80.5 274 100.7C273.7 101.6 274.1 102.3 274.8 102.7C280.6 83.4 285.4 69.3 314.7 50.1Z" fill="#EDB100"/>
  <path fill-rule="evenodd" clip-rule="evenodd" d="M242.1 87.8999C242.6 82.8999 243.2 78.1 244 73.7C244.1 73 243.9 72.5 243.5 72.2C242.8 76.8 242.2 81.8 241.8 86.8C241.8 87.3 241.9 87.6999 242.1 87.8999Z" fill="#EDB100"/>
  <path fill-rule="evenodd" clip-rule="evenodd" d="M413.2 216.3C415 216.9 416.3 214.5 414.8 213.3C414.1 212.8 413.5 212.2 412.9 211.7C400.9 207.9 379.6 202.5 361.7 204.7C359.7 205 359.7 207.9 361.7 208.2C363.3 208.4 364.9 208.6 366.4 208.9C383.4 207.9 402.3 212.8 413.2 216.3Z" fill="#EDB100"/>
  <path fill-rule="evenodd" clip-rule="evenodd" d="M337.3 137.9C336 138.8 336.4 140.7 337.9 141.1C338.2 141.2 338.6 141.3 338.9 141.3C360.7 126 374.9 114.5 423.9 130.5C425.6 131 426.9 129.1 425.8 127.7C425.3 127.1 424.8 126.6 424.4 126C424.2 126 424.1 126 423.9 125.9C373.7 109.6 360.1 122.1 337.3 137.9Z" fill="#EDB100"/>
  <path fill-rule="evenodd" clip-rule="evenodd" d="M293 46.1C292.5 47.2 293.2 48.2 294.1 48.5C302.3 34.4 328.3 18.6 344.1 17.9C345.8 17.8 346.4 15.6 344.9 14.7C344.3 14.3 343.6 13.9 343 13.5C326.4 14.9 299.6 31.8 293 46.1Z" fill="#EDB100"/>
  <path fill-rule="evenodd" clip-rule="evenodd" d="M335.2 63.0999C336.6 61.7999 335.2 59.5999 333.5 60.0999C324.5 68.5999 311.8 82.1999 304.1 96.7999C303.5 97.9999 304.2 98.9999 305.2 99.2999C313.6 84.5999 326.7 71.0999 335.2 63.0999Z" fill="#EDB100"/>
  <path fill-rule="evenodd" clip-rule="evenodd" d="M415.8 296.1C414.6 295.4 413 296.5 413.2 297.9C413.3 299 413.5 300 413.7 301C414.2 300.5 415.1 300.2 415.8 300.7C430.7 309.4 444 350.4 444.6 381.2C445.3 350 431.5 305.2 415.8 296.1Z" fill="#EDB100"/>
  <path fill-rule="evenodd" clip-rule="evenodd" d="M447 392.2C446.3 393.3 444.9 393.2 444.1 392.4C444 393.5 443.9 394.5 443.7 395.6C443.4 397.5 445.9 398.4 446.9 396.8C468.4 361.7 477.8 331.5 477.2 306.2C476.8 330.4 467.3 359.2 447 392.2Z" fill="#EDB100"/>
  <path fill-rule="evenodd" clip-rule="evenodd" d="M236.9 162.5C238.2 164.4 244.2 173.1 245.4 180.8C246.9 172.5 238.5 160.2 236.9 158C236.7 157.7 236.6 157.5 236.6 157.1C235.1 140.9 234.3 127.5 234.2 116C234.1 128.4 234.9 143.2 236.6 161.6C236.6 161.9 236.7 162.2 236.9 162.5Z" fill="#EDB100"/>
  <path fill-rule="evenodd" clip-rule="evenodd" d="M480.2 127.3C479.6 127.6 478.7 127.6 478.1 127C459 106.6 412.8 90.8 396.5 100.9C395.3 101.6 395.4 103.3 396.6 104C397.1 104.2 397.5 104.5 397.9 104.7C415.3 96.3 459.5 111.8 478.1 131.6C479.4 133 481.7 131.6 481.1 129.8C480.8 128.9 480.5 128.1 480.2 127.3Z" fill="#EDB100"/>
  <path fill-rule="evenodd" clip-rule="evenodd" d="M353.5 301.5C353 303.1 350.6 303.1 350.2 301.4C341.7 272.6 309.5 244 276.4 240.9H276.3L238.3 239.4C238.3 239.4 232 226.7 231.3 214.4C230.4 227.9 238.3 244 238.3 244L276.3 245.5H276.4C309.5 248.6 341.7 277.2 350.2 306C350.7 307.6 353 307.7 353.5 306.1C355.3 300.6 355.7 295.5 355.5 290.8C355.3 294.1 354.7 297.7 353.5 301.5Z" fill="#EDB100"/>
  <path fill-rule="evenodd" clip-rule="evenodd" d="M415.8 337.3C415.5 339.1 412.9 339.3 412.4 337.5C395.2 279.5 377.6 273.7 352.1 261.5C350.7 260.8 349.1 262.2 349.7 263.7C350 264.4 350.3 265.2 350.6 266C351 265.8 351.6 265.7 352.1 266C377.7 278.2 395.3 284 412.4 342C412.9 343.8 415.5 343.6 415.8 341.8C417.1 335.1 417.4 329.9 417.2 325.4C417 328.9 416.6 332.8 415.8 337.3Z" fill="#EDB100"/>
  <path d="M86.1 412.5C89.5 412.5 85.5999 401.5 82.2999 401.5C78.8999 401.5 82.9 412.5 86.1 412.5Z" fill="#FF6197"/>
  <path d="M99.9007 373.4C103.301 373.4 99.4007 362.4 96.1007 362.4C92.7007 362.4 96.7007 373.4 99.9007 373.4Z" fill="#FF6197"/>
  <path d="M116.6 329.9C120 329.9 116.1 318.9 112.8 318.9C109.4 318.9 113.3 329.9 116.6 329.9Z" fill="#FF6197"/>
  <path d="M149.3 302.3C152.7 302.3 148.8 291.3 145.5 291.3C142 291.3 146 302.3 149.3 302.3Z" fill="#FF6197"/>
  <path d="M171.001 256.6C174.401 256.6 170.501 245.6 167.201 245.6C163.801 245.6 167.701 256.6 171.001 256.6Z" fill="#FF6197"/>
  <path d="M176.801 283.4C180.201 283.4 176.301 272.4 173.001 272.4C169.601 272.4 173.501 283.4 176.801 283.4Z" fill="#FF6197"/>
  <path d="M202.901 239.2C206.301 239.2 202.401 228.2 199.101 228.2C195.701 228.2 199.701 239.2 202.901 239.2Z" fill="#FF6197"/>
  <path d="M17.2006 196.4C20.6006 196.4 16.7005 185.4 13.4005 185.4C10.0005 185.4 14.0006 196.4 17.2006 196.4Z" fill="#FF6197"/>
  <path d="M48.4007 161.6C51.8007 161.6 47.9007 150.6 44.6007 150.6C41.2007 150.6 45.2007 161.6 48.4007 161.6Z" fill="#FF6197"/>
  <path d="M84.0008 168.1C87.4008 168.1 83.5009 157.1 80.2009 157.1C76.8009 157.1 80.7008 168.1 84.0008 168.1Z" fill="#FF6197"/>
  <path d="M101.4 142C104.8 142 100.9 131 97.6003 131C94.2003 131 98.1003 142 101.4 142Z" fill="#FF6197"/>
  <path d="M128.2 167.4C131.6 167.4 127.7 156.4 124.4 156.4C121 156.4 124.9 167.4 128.2 167.4Z" fill="#FF6197"/>
  <path d="M152.9 156.5C156.3 156.5 152.4 145.5 149.1 145.5C145.7 145.5 149.6 156.5 152.9 156.5Z" fill="#FF6197"/>
  <path d="M173.9 181.2C177.3 181.2 173.4 170.2 170.1 170.2C166.7 170.2 170.6 181.2 173.9 181.2Z" fill="#FF6197"/>
  <path d="M213.1 161.6C216.5 161.6 212.6 150.6 209.3 150.6C205.9 150.6 209.8 161.6 213.1 161.6Z" fill="#FF6197"/>
  <path d="M223.201 196.4C226.601 196.4 222.701 185.4 219.401 185.4C216.001 185.4 220.001 196.4 223.201 196.4Z" fill="#FF6197"/>
  <path d="M200.8 118C204.2 118 200.3 107 197 107C193.5 107 197.5 118 200.8 118Z" fill="#FF6197"/>
  <path d="M168.1 87.6C171.5 87.6 167.6 76.6 164.3 76.6C160.9 76.6 164.8 87.6 168.1 87.6Z" fill="#FF6197"/>
  <path d="M144.2 54.9C147.6 54.9 143.7 43.9 140.4 43.9C137 43.9 140.9 54.9 144.2 54.9Z" fill="#FF6197"/>
  <path d="M100.7 342.9C104.1 342.9 100.2 331.9 96.9004 331.9C93.4004 331.9 97.4004 342.9 100.7 342.9Z" fill="#FF6197"/>
  <path d="M130.4 356.7C133.8 356.7 129.9 345.7 126.6 345.7C123.2 345.7 127.1 356.7 130.4 356.7Z" fill="#FF6197"/>
</svg>
