<svg width="795" height="940" viewBox="0 0 795 940" fill="none" xmlns="http://www.w3.org/2000/svg">
<path d="M229.468 687.226C229.468 687.226 105.725 872.313 117.741 899.296C129.757 926.279 149.572 940.192 153.788 939.56C158.004 938.716 271.839 676.264 302.406 655.605C332.762 634.946 229.468 687.226 229.468 687.226Z" fill="#FE8AB1"/>
<path d="M777.562 620.611C803.28 496.868 792.95 0 792.95 0C727.811 29.302 283.012 169.066 173.815 241.372C30.6778 336.235 -57.6496 459.345 43.537 616.606C144.724 773.867 286.806 673.945 286.806 673.945C286.806 673.945 254.553 834.79 424.884 893.183C595.215 951.576 751.843 744.565 777.562 620.611ZM165.172 598.688C115.211 591.52 77.8983 563.483 81.9036 536.078C85.9089 508.674 129.546 492.231 179.506 499.398C229.467 506.565 266.78 534.603 262.775 562.007C258.769 589.412 214.922 605.855 165.172 598.688ZM209.862 462.085C161.799 428.357 140.297 376.499 161.588 345.932C182.879 315.576 239.164 318.105 287.228 351.834C335.292 385.563 356.794 437.421 335.503 467.988C314.211 498.555 257.926 495.814 209.862 462.085ZM471.472 345.51C446.175 360.477 403.382 335.181 375.977 289.225C348.572 243.059 346.886 193.519 372.393 178.552C397.69 163.585 440.484 188.882 467.888 234.837C495.082 281.004 496.769 330.543 471.472 345.51ZM577.507 200.054C561.908 205.746 540.827 187.195 530.498 158.737C520.168 130.278 524.595 102.451 540.195 96.9705C555.794 91.2788 576.875 109.83 587.204 138.288C597.534 166.747 593.318 194.573 577.507 200.054ZM771.237 407.698C768.497 439.74 718.747 461.664 660.354 456.394C601.961 451.124 556.848 420.978 559.589 388.936C562.329 356.894 612.079 334.97 670.472 340.24C728.866 345.51 774.189 375.655 771.237 407.698ZM641.803 227.67C644.122 210.805 670.683 200.476 701.039 204.692C731.395 208.908 753.951 226.194 751.632 243.059C749.314 259.923 722.752 270.253 692.396 266.036C662.04 261.82 639.273 244.534 641.803 227.67ZM457.137 808.65C434.37 824.46 392.631 803.59 363.961 762.272C335.292 720.744 330.232 674.367 352.999 658.767C375.766 642.957 417.506 663.826 446.175 705.144C475.056 746.462 479.904 792.839 457.137 808.65ZM549.048 708.306C475.688 669.307 433.527 605.222 455.029 564.959C476.321 524.695 553.054 523.641 626.414 562.429C699.774 601.217 741.935 665.513 720.433 705.777C698.931 746.04 622.198 747.095 549.048 708.306Z" fill="#FE8AB1"/>
</svg>
