<svg width="264" height="229" viewBox="0 0 264 229" fill="none" xmlns="http://www.w3.org/2000/svg">
<path d="M90.4109 6.5829C74.3324 16.7448 62.7313 32.4365 51.8008 47.9991C40.9373 63.4741 30.0739 78.9492 19.2104 94.4241C7.16057 111.591 -5.33807 133.602 4.36475 152.197C16.4662 175.395 51.3778 172.299 72.1349 188.228C84.2261 197.508 90.7926 212.859 103.544 221.211C114.315 228.267 127.943 229.268 140.803 228.536C177.896 226.436 214.979 210.714 238.687 182.111C262.395 153.508 270.726 111.555 255.447 77.6905C247.028 59.0277 232.291 43.7745 215.671 31.8175C193.438 15.8318 120.871 -12.6732 90.4109 6.5829Z" fill="black"/>
</svg>
