<svg width="796" height="707" viewBox="0 0 796 707" fill="none" xmlns="http://www.w3.org/2000/svg">
<path d="M5.2003 46.2001C-10.6997 65.2001 14.3003 106.6 44.0003 106.2C73.7003 105.8 195.8 126.3 243.2 170C290.6 213.7 366.5 279.5 359.7 299.8C352.9 320.1 319 314.5 258.5 237.2C198 159.9 46.4003 136.6 20.9003 168.2C-4.5997 199.8 49.5003 251.6 153.5 273.7C257.5 295.8 319.7 319.5 322.6 329.7C325.5 339.9 228 354.2 158.7 335.8C89.4003 317.4 57.7003 381.5 67.8003 397.5C77.9003 413.5 81.8003 476.2 204.6 433.6C204.6 433.6 308.5 365.7 316.3 372.7C324.1 379.7 337.1 423.9 179.8 494.2C179.8 494.2 106 507.6 99.3003 549.8C92.6003 592 105.1 662.5 210.2 617.6C315.3 572.7 333.2 417.2 341.4 385.8C349.7 354.4 353 357.2 363.8 377.1C374.6 397 389.8 436.5 379.9 457C370 477.6 358.1 533 358.7 546.4C359.3 559.8 313.2 656.9 399.2 660.7C485.2 664.5 481.6 605.8 477.9 589.1C474.2 572.4 442.9 487.6 417.9 448.2C392.8 408.9 358.1 348.6 375.7 337.3C393.3 326 411.3 393.5 423.5 402.3C435.7 411.1 481.9 478.4 486.6 487.9C491.3 497.4 549.4 636.4 567.9 645.1C586.4 653.8 689.7 759.5 775.5 671.7C861.3 583.9 595.2 515.9 570.1 496.2C545 476.5 418.2 369.8 419.5 351.3C420.8 332.8 431.6 326.9 441.8 335C452 343.1 509 391.1 520.4 405C531.7 418.9 640.1 531.6 727.4 514.6C814.7 497.6 755.1 415.3 718.9 405.2C682.7 395.1 550.6 395.1 533.5 380.2C516.4 365.3 500.7 352.9 510.5 343.7C520.2 334.5 531.9 323.5 581 340.6C630.1 357.6 714 387.8 755.5 364.1C797 340.4 800.2 315.5 791.9 296.3C783.5 277.2 711.3 234.1 633.1 262C554.9 289.9 501.4 314.9 487.8 303C474.2 291.1 506.7 252.8 516.5 248.3C526.3 243.8 663.5 178.8 662.8 126.1C662.1 73.3001 641 29.5001 577.6 71.4001C514.2 113.3 502.1 201.5 491.7 215.4C481.3 229.4 461.7 300.4 433.2 301.9C404.8 303.3 419.8 233.5 425.6 227.8C431.4 222.1 468.7 138.6 473.7 111.3C478.7 84.0001 481.8 -12.0999 389.6 1.50009C297.4 15.1001 341.3 113.8 355.2 139.5C369.2 165.2 410.5 232.8 402.3 248.2C394.1 263.6 385.7 294.7 351.3 241.2C316.9 187.7 338.3 168.3 302.3 129.1C266.3 89.9001 77.9003 -40.9999 5.2003 46.2001Z" fill="#FE8AB1"/>
</svg>
