<svg width="259" height="264" xmlns="http://www.w3.org/2000/svg">
    <g opacity=".2" clip-path="url(#a)">
        <path d="m-105.126-56.46 75.12-13.334c16.5 19.651 33.04 39.247 49.54 58.898C10.81 13.232 2.085 37.36-6.695 61.45l-75.726 13.44c-16.5-19.65-33.001-39.3-49.54-58.897a48825.94 48825.94 0 0 0 26.231-72.346l.605-.108Zm74.26-10.875-73.212 12.994-25.316 69.926 47.848 56.94 73.212-12.994 25.317-69.926-47.849-56.94Z"/>
        <path d="M18.428-9.548-56.04 3.67l-.388-2.188 74.466-13.219.389 2.189ZM66.733 46.208l75.12-13.333c16.501 19.651 33.04 39.247 49.541 58.898-8.725 24.128-17.451 48.256-26.231 72.346L89.438 177.56c-16.501-19.651-33.002-39.302-49.541-58.898 8.78-24.09 17.506-48.218 26.231-72.346l.605-.108Zm74.252-10.92L67.773 48.281l-25.316 69.926 47.848 56.94 73.212-12.995 25.317-69.926-47.849-56.94Z"/>
        <path d="m67.81 46.593 48.692 57.896-1.71 1.456-48.7-57.942 1.719-1.41Z"/>
        <path d="m116.699 105.608-25.78 71.114-2.098-.732 25.771-71.161 2.107.779Z"/>
        <path d="m190.287 93.121-74.467 13.218-.397-2.235 74.467-13.218.397 2.235Z"/>
        <path d="m115.821 106.34-74.467 13.218-.397-2.235 74.467-13.219.397 2.236Z"/>
        <path d="m116.499 104.49 48.7 57.943-1.718 1.41-48.691-57.896 1.709-1.457Z"/>
        <path d="m142.469 34.446-25.771 71.16-2.107-.779 25.779-71.114 2.099.733Z"/>
        <path fill-rule="evenodd" clip-rule="evenodd" d="M119.811 104.479a4.238 4.238 0 0 1-3.445 4.935 4.24 4.24 0 0 1-4.933-3.448 4.237 4.237 0 0 1 3.445-4.935 4.238 4.238 0 0 1 4.933 3.448Z"/>
    </g>
    <defs>
        <clipPath id="a">
            <path transform="rotate(71.99 96.706 133.13)" d="M0 0h211.019v203.379H0z"/>
        </clipPath>
    </defs>
</svg>
