<svg width="538" height="586" xmlns="http://www.w3.org/2000/svg">
    <g opacity=".2" clip-path="url(#a)">
        <path d="m173.562 202.194 75.12-13.333c16.501 19.65 33.04 39.246 49.541 58.897-8.725 24.128-17.451 48.257-26.231 72.346l-75.725 13.441c-16.501-19.651-33.002-39.302-49.541-58.898a47614.075 47614.075 0 0 0 26.231-72.346l.605-.107Zm74.261-10.875-73.212 12.995-25.317 69.926 47.849 56.94 73.212-12.995 25.317-69.926-47.849-56.94Z"/>
        <path d="m174.64 202.578 48.7 57.943-1.718 1.41-48.692-57.896 1.71-1.457Z"/>
        <path d="m223.536 261.641-25.778 71.114-2.099-.733 25.771-71.16 2.106.779Z"/>
        <path d="m297.116 249.106-74.466 13.219-.389-2.189 74.467-13.219.388 2.189ZM222.649 262.325l-74.466 13.219-.389-2.189 74.467-13.218.388 2.188Z"/>
        <path d="m223.336 260.522 48.7 57.943-1.718 1.41-48.7-57.943 1.718-1.41Z"/>
        <path d="m249.306 190.478-25.779 71.114-2.098-.732 25.77-71.161 2.107.779ZM345.422 304.863l75.12-13.333c16.501 19.65 33.04 39.246 49.54 58.897-8.725 24.128-17.45 48.257-26.231 72.346l-75.725 13.441c-16.501-19.651-33.002-39.302-49.541-58.898 8.781-24.09 17.506-48.218 26.232-72.346l.605-.107Zm74.252-10.921-73.212 12.994-25.317 69.926 47.849 56.94 73.212-12.995 25.317-69.926-47.849-56.939Z"/>
        <path d="m346.499 305.247 48.692 57.896-1.71 1.457-48.7-57.943 1.718-1.41Z"/>
        <path d="m395.387 364.263-25.779 71.114-2.098-.733 25.77-71.16 2.107.779Z"/>
        <path d="m468.975 351.775-74.466 13.219-.397-2.236 74.466-13.218.397 2.235ZM394.509 364.994l-74.466 13.218-.397-2.235 74.466-13.218.397 2.235Z"/>
        <path d="m395.188 363.145 48.699 57.942-1.718 1.41-48.691-57.896 1.71-1.456Z"/>
        <path d="m421.157 293.1-25.77 71.161-2.107-.78 25.779-71.113 2.098.732ZM173.963 204.427l-76.376 13.557c9.012-24.948 18.078-49.858 27.099-74.759l51.186 60.864-1.909.338Zm-72.957 10.644 70.652-12.54-46.203-54.974-24.449 67.514Z"/>
        <path fill-rule="evenodd" clip-rule="evenodd" d="M398.499 363.133a4.237 4.237 0 0 1-3.444 4.935 4.238 4.238 0 0 1-4.933-3.448 4.237 4.237 0 0 1 3.444-4.935 4.238 4.238 0 0 1 4.933 3.448Z"/>
    </g>
    <defs>
        <clipPath id="a">
            <path transform="rotate(71.99 194.004 267.075)" d="M0 0h483v408H0z"/>
        </clipPath>
    </defs>
</svg>
