<svg width="1097" height="959" xmlns="http://www.w3.org/2000/svg">
    <g opacity=".2" clip-path="url(#a)">
        <path d="m750.402 200.977 10.547-75.562c23.789-9.616 47.539-19.286 71.329-28.902 20.248 15.758 40.496 31.516 60.69 47.314l-10.631 76.171c-23.79 9.616-47.58 19.232-71.329 28.902-20.195-15.798-40.443-31.556-60.691-47.314l.085-.609Zm12.619-73.984-10.279 73.642 58.672 45.697 68.944-27.899 10.279-73.642-58.672-45.697-68.944 27.899Z"/>
        <path d="m751.1 200.072 70.161-28.398.81 2.07-70.114 28.404-.857-2.076Z"/>
        <path d="m822.339 171.826 59.706 46.51-1.345 1.769-59.706-46.51 1.345-1.769Z"/>
        <path d="m833.217 97.983-10.453 74.904-2.202-.307 10.454-74.904 2.201.307Z"/>
        <path d="m822.764 172.887-10.454 74.905-2.201-.307 10.453-74.905 2.202.307Z"/>
        <path d="m821.261 171.677 70.161-28.398.809 2.069-70.161 28.398-.809-2.069Z"/>
        <path d="m762.679 125.322 59.659 46.503-1.346 1.769-59.705-46.509 1.392-1.763ZM610.126 257.774l10.547-75.562c23.79-9.616 47.539-19.286 71.329-28.902 20.248 15.758 40.496 31.516 60.691 47.314l-10.631 76.171c-23.79 9.616-47.58 19.232-71.33 28.902-20.194-15.798-40.442-31.556-60.69-47.314l.084-.609Zm12.573-73.991-10.279 73.643 58.672 45.696 68.944-27.899 10.279-73.642-58.672-45.697-68.944 27.899Z"/>
        <path d="m610.825 256.868 70.161-28.398.81 2.07-70.161 28.398-.81-2.07Z"/>
        <path d="m682.064 228.622 59.706 46.51-1.393 1.762-59.659-46.503 1.346-1.769Z"/>
        <path d="m692.942 154.779-10.454 74.904-2.201-.307 10.453-74.904 2.202.307Z"/>
        <path d="m682.489 229.683-10.454 74.905-2.201-.307 10.453-74.905 2.202.307Z"/>
        <path d="m680.985 228.472 70.114-28.404.857 2.076-70.161 28.398-.81-2.07Z"/>
        <path d="m622.357 182.112 59.706 46.51-1.346 1.769-59.706-46.51 1.346-1.769ZM589.22 407.583l10.547-75.562c23.79-9.617 47.539-19.286 71.329-28.903 20.248 15.758 40.496 31.516 60.691 47.315l-10.632 76.17c-23.789 9.617-47.539 19.286-71.329 28.903-20.248-15.758-40.443-31.557-60.691-47.315l.085-.608Zm12.572-73.991-10.278 73.642 58.672 45.697 68.944-27.899 10.279-73.642-58.672-45.697-68.945 27.899Z"/>
        <path d="m589.919 406.677 70.161-28.398.809 2.069-70.161 28.398-.809-2.069Z"/>
        <path d="m661.158 378.431 59.705 46.509-1.392 1.763-59.659-46.503 1.346-1.769Z"/>
        <path d="m672.036 304.588-10.454 74.905-2.202-.307 10.454-74.905 2.202.307Z"/>
        <path d="m661.582 379.493-10.453 74.904-2.202-.307 10.454-74.904 2.201.307Z"/>
        <path d="m660.079 378.282 70.114-28.405.857 2.077-70.161 28.398-.81-2.07Z"/>
        <path d="m601.451 331.921 59.705 46.51-1.345 1.769-59.706-46.51 1.346-1.769ZM789.632 398.31l-60.221-46.915 10.631-76.17c23.79-9.617 47.539-19.286 71.329-28.903l60.175 46.909L870.2 295l-59.188-46.103-68.944 27.899-10.279 73.642 59.188 46.103-1.345 1.769Z"/>
        <path d="m730.194 349.881 70.161-28.398.81 2.069-70.114 28.405-.857-2.076Z"/>
        <path d="m801.435 321.635 59.706 46.509-1.346 1.77-59.705-46.51 1.345-1.769Z"/>
        <path d="m812.311 247.791-10.454 74.905-2.201-.307 10.453-74.905 2.202.307ZM801.858 322.697l-10.454 74.904-2.201-.307 10.453-74.904 2.202.307Z"/>
        <path d="m800.356 321.486 70.161-28.398.81 2.07-70.161 28.398-.81-2.07Z"/>
        <path d="m741.773 275.131 59.659 46.504-1.346 1.769-59.705-46.51 1.392-1.763ZM339.982 296.455l10.547-75.562c23.789-9.617 47.539-19.286 71.329-28.903 20.248 15.758 40.496 31.516 60.691 47.315l-10.632 76.17c-23.79 9.617-47.58 19.233-71.329 28.903a48435.775 48435.775 0 0 0-60.691-47.315l.085-.608Zm12.619-73.985-10.279 73.643 58.672 45.696 68.944-27.898 10.279-73.643-58.672-45.696-68.944 27.898Z"/>
        <path d="m340.681 295.549 70.161-28.398.809 2.069-70.114 28.405-.856-2.076Z"/>
        <path d="m411.968 267.309 59.659 46.503-1.345 1.77-59.706-46.51 1.392-1.763Z"/>
        <path d="m422.797 193.459-10.453 74.905-2.202-.307 10.454-74.905 2.201.307ZM412.344 268.365l-10.453 74.904-2.202-.307 10.454-74.904 2.201.307Z"/>
        <path d="m410.843 267.154 70.161-28.398.809 2.07-70.161 28.398-.809-2.07Z"/>
        <path d="m352.259 220.799 59.659 46.504-1.345 1.769-59.706-46.51 1.392-1.763ZM628.45 604.916l-60.221-46.915 10.632-76.171c23.789-9.616 47.579-19.233 71.329-28.902l60.174 46.908-1.392 1.763-59.189-46.103-68.944 27.899-10.278 73.642 59.188 46.103-1.299 1.776Z"/>
        <path d="m569.013 556.486 70.161-28.398.809 2.07-70.161 28.398-.809-2.07Z"/>
        <path d="m640.251 528.24 59.706 46.51-1.392 1.763-59.659-46.504 1.345-1.769Z"/>
        <path d="m651.129 454.397-10.453 74.905-2.202-.308 10.454-74.904 2.201.307Z"/>
        <path d="m640.676 529.301-10.453 74.905-2.202-.307 10.454-74.905 2.201.307Z"/>
        <path d="m639.173 528.092 70.114-28.405.856 2.076-70.161 28.398-.809-2.069Z"/>
        <path d="m580.544 481.73 59.706 46.51-1.345 1.769-59.706-46.509 1.345-1.77Z"/>
        <path d="m448.945 464.378 10.546-75.561c23.79-9.617 47.54-19.287 71.33-28.903 20.248 15.758 40.496 31.516 60.691 47.315l-10.632 76.17c-23.79 9.616-47.539 19.286-71.329 28.903-20.248-15.758-40.496-31.517-60.691-47.315l.085-.609Zm12.572-73.99-10.279 73.642 58.672 45.697 68.944-27.899 10.279-73.642-58.672-45.697-68.944 27.899Z"/>
        <path d="m449.643 463.473 70.115-28.404.856 2.076-70.161 28.398-.81-2.07Z"/>
        <path d="m520.884 435.227 59.659 46.503-1.345 1.77-59.706-46.51 1.392-1.763Z"/>
        <path d="m531.76 361.384-10.453 74.905-2.249-.314 10.454-74.905 2.248.314Z"/>
        <path d="m521.307 436.288-10.454 74.905-2.248-.314 10.454-74.904 2.248.313Z"/>
        <path d="m519.759 435.072 70.161-28.398.809 2.07-70.114 28.404-.856-2.076Z"/>
        <path d="m461.175 388.717 59.706 46.509-1.392 1.763-59.659-46.503 1.345-1.769ZM428.039 614.188l10.546-75.562c23.79-9.616 47.58-19.233 71.329-28.902 20.195 15.798 40.443 31.556 60.691 47.314l-10.631 76.171c-23.79 9.616-47.54 19.286-71.329 28.902-20.249-15.758-40.497-31.516-60.691-47.314l.085-.609Zm12.572-73.991-10.279 73.643 58.672 45.696 68.944-27.899 10.279-73.642-58.672-45.697-68.944 27.899Z"/>
        <path d="m428.737 613.282 70.114-28.405.857 2.077-70.161 28.398-.81-2.07Z"/>
        <path d="m499.976 585.036 59.659 46.503-1.346 1.769-59.705-46.51 1.392-1.762Z"/>
        <path d="M510.854 511.193 500.4 586.097l-2.248-.313 10.453-74.905 2.249.314ZM500.401 586.098l-10.454 74.904-2.248-.313 10.453-74.905 2.249.314Z"/>
        <path d="m498.852 584.881 70.161-28.398.81 2.069-70.114 28.405-.857-2.076Z"/>
        <path d="m440.269 538.526 59.706 46.51-1.393 1.763-59.659-46.504 1.346-1.769ZM890.724 144.188l10.547-75.562c23.79-9.616 47.579-19.233 71.329-28.902 20.254 15.71 40.5 31.516 60.69 47.314l-10.63 76.171c-23.791 9.616-47.58 19.232-71.33 28.902-20.195-15.798-40.443-31.556-60.691-47.314l.085-.609Zm12.572-73.99-10.279 73.642 58.673 45.696 68.94-27.899 10.28-73.642-58.67-45.697-68.944 27.9Z"/>
        <path d="m891.423 143.282 70.114-28.405.856 2.077-70.161 28.398-.809-2.07Z"/>
        <path d="m962.662 115.036 59.658 46.503-1.35 1.769-59.701-46.51 1.393-1.762Z"/>
        <path d="m973.539 41.194-10.453 74.904-2.249-.313 10.454-74.905 2.248.313Z"/>
        <path d="m963.086 116.098-10.453 74.904-2.249-.313 10.454-74.905 2.248.314Z"/>
        <path d="m961.538 114.881 70.162-28.398.81 2.07-70.116 28.404-.856-2.076Z"/>
        <path d="m902.955 68.526 59.705 46.51-1.392 1.763-59.659-46.504 1.346-1.769ZM490.757 164.76l10.547-75.561c23.79-9.617 47.539-19.287 71.329-28.903 20.248 15.758 40.496 31.516 60.691 47.314l-10.632 76.171c-23.789 9.616-47.579 19.233-71.329 28.902-20.194-15.798-40.442-31.556-60.691-47.314l.085-.609Zm12.572-73.99-10.278 73.642 58.672 45.697 68.944-27.899 10.279-73.643-58.672-45.696-68.945 27.899Z"/>
        <path d="m491.456 163.854 70.114-28.404.857 2.076-70.161 28.398-.81-2.07Z"/>
        <path d="m562.697 135.609 59.658 46.503-1.345 1.769-59.706-46.509 1.393-1.763Z"/>
        <path d="m573.573 61.766-10.454 74.904-2.248-.313 10.453-74.905 2.249.314Z"/>
        <path d="m563.12 136.67-10.454 74.905-2.248-.314 10.453-74.905 2.249.314Z"/>
        <path d="m561.571 135.453 70.161-28.398.81 2.07-70.114 28.404-.857-2.076Z"/>
        <path d="m502.988 89.099 59.705 46.509-1.392 1.763-59.659-46.503 1.346-1.77ZM308.623 521.168l10.546-75.561c23.79-9.617 47.58-19.233 71.329-28.903 20.248 15.758 40.443 31.557 60.691 47.315l-10.631 76.17c-23.79 9.616-47.54 19.286-71.329 28.903-20.249-15.758-40.497-31.517-60.691-47.315l.085-.609Zm12.619-73.984-10.279 73.643 58.672 45.696 68.944-27.899 10.279-73.642-58.672-45.697-68.944 27.899Z"/>
        <path d="m309.321 520.262 70.161-28.398.81 2.07-70.114 28.405-.857-2.077Z"/>
        <path d="m380.609 492.023 59.659 46.503-1.346 1.769-59.706-46.509 1.393-1.763Z"/>
        <path d="m391.438 418.173-10.454 74.905-2.201-.307 10.453-74.905 2.202.307Z"/>
        <path d="m380.985 493.078-10.454 74.904-2.201-.307 10.453-74.904 2.202.307Z"/>
        <path d="m379.483 491.868 70.161-28.398.81 2.07-70.161 28.398-.81-2.07Z"/>
        <path d="m320.9 445.513 59.659 46.503-1.346 1.77-59.706-46.51 1.393-1.763ZM157.896 652.869l10.547-75.562c23.783-9.57 47.579-19.233 71.329-28.903 20.194 15.799 40.443 31.557 60.691 47.315l-10.632 76.17c-23.79 9.617-47.539 19.286-71.329 28.903-20.248-15.758-40.496-31.516-60.691-47.315l.085-.608Zm12.572-73.991-10.279 73.642 58.672 45.697 68.945-27.899 10.278-73.642-58.672-45.697-68.944 27.899Z"/>
        <path d="m158.593 651.963 70.161-28.398.809 2.069-70.161 28.398-.809-2.069Z"/>
        <path d="m229.831 623.717 59.706 46.509-1.392 1.763-59.659-46.503 1.345-1.769Z"/>
        <path d="m240.709 549.873-10.453 74.905-2.202-.307 10.454-74.905 2.201.307ZM230.256 624.779l-10.453 74.904-2.202-.307 10.454-74.904 2.201.307Z"/>
        <path d="m228.755 623.568 70.114-28.404.856 2.076-70.161 28.398-.809-2.07Z"/>
        <path d="m170.124 577.207 59.706 46.51-1.345 1.769-59.706-46.51 1.345-1.769ZM342.229 296.764l-10.723 76.825c-20.939-16.284-41.824-32.608-62.716-48.885l73.707-29.86-.268 1.92Zm-12.436 72.673 9.919-71.068-66.565 26.942 56.646 44.126ZM359.813 644.806l-9.92 71.068 66.566-26.942-56.646-44.126Zm-12.39 72.68 10.723-76.826 62.717 48.886c-24.558 9.986-49.156 19.92-73.707 29.859l.267-1.919ZM121.34 456.859l-10.723 76.826-62.763-48.892 73.707-29.86-.267 1.919.046.007Zm-12.389 72.68 9.92-71.068-66.613 26.936 56.693 44.132Z"/>
        <path fill-rule="evenodd" clip-rule="evenodd" d="M861.42 362.027a7.083 7.083 0 0 1 6.047 8.002 7.084 7.084 0 0 1-8.007 6.043 7.083 7.083 0 0 1-6.048-8.003c.59-3.879 4.166-6.578 8.008-6.042ZM950.659 196.932a6.135 6.135 0 0 1-5.241-6.936 6.136 6.136 0 0 1 6.94-5.236 6.134 6.134 0 0 1 5.241 6.935 6.137 6.137 0 0 1-6.94 5.237ZM1020.95 167.6a5.179 5.179 0 0 1-4.43-5.868 5.179 5.179 0 0 1 5.87-4.431 5.179 5.179 0 0 1 4.43 5.868c-.39 2.809-3.06 4.823-5.87 4.431ZM881.935 215.027a4.236 4.236 0 0 1 3.628 4.801 4.239 4.239 0 0 1-4.804 3.626 4.238 4.238 0 0 1-3.628-4.802c.326-2.341 2.509-3.946 4.804-3.625ZM871.482 289.932a4.236 4.236 0 0 1 3.628 4.801 4.239 4.239 0 0 1-4.804 3.626 4.237 4.237 0 0 1-3.628-4.802c.326-2.341 2.508-3.945 4.804-3.625ZM719.446 430.996a5.186 5.186 0 0 1-4.434-5.869 5.187 5.187 0 0 1 5.872-4.431 5.186 5.186 0 0 1 4.434 5.869 5.187 5.187 0 0 1-5.872 4.431ZM628.249 610.135a6.134 6.134 0 0 1-5.241-6.936 6.135 6.135 0 0 1 6.94-5.236 6.134 6.134 0 0 1 5.241 6.935c-.464 3.324-3.567 5.707-6.94 5.237ZM790.916 393.237a4.238 4.238 0 0 1 3.628 4.802 4.238 4.238 0 0 1-4.805 3.625 4.236 4.236 0 0 1-3.628-4.801 4.24 4.24 0 0 1 4.805-3.626ZM710.3 496.536a4.239 4.239 0 0 1 3.629 4.802 4.238 4.238 0 0 1-4.805 3.625 4.236 4.236 0 0 1-3.628-4.801 4.24 4.24 0 0 1 4.804-3.626ZM699.847 571.442a4.237 4.237 0 0 1 3.629 4.801 4.24 4.24 0 0 1-4.805 3.626 4.238 4.238 0 0 1-3.628-4.802 4.237 4.237 0 0 1 4.804-3.625ZM742.053 269.014a7.084 7.084 0 0 1 6.047 8.003 7.083 7.083 0 0 1-8.008 6.042 7.083 7.083 0 0 1-6.047-8.002 7.085 7.085 0 0 1 8.008-6.043ZM761.13 132.313a6.135 6.135 0 0 1-5.241-6.936 6.136 6.136 0 0 1 6.94-5.237 6.135 6.135 0 0 1 5.241 6.936 6.137 6.137 0 0 1-6.94 5.237ZM961.243 121.091a5.186 5.186 0 0 1-4.434-5.869 5.186 5.186 0 0 1 5.872-4.431 5.186 5.186 0 0 1 4.434 5.869c-.392 2.809-3.014 4.829-5.872 4.431ZM562.584 132.3a4.238 4.238 0 0 1 3.628 4.801 4.239 4.239 0 0 1-4.805 3.626 4.238 4.238 0 0 1-3.628-4.802 4.239 4.239 0 0 1 4.805-3.625ZM580.871 475.619a7.081 7.081 0 0 1 6.047 8.002 7.084 7.084 0 0 1-8.007 6.043 7.082 7.082 0 0 1-6.047-8.003 7.083 7.083 0 0 1 8.007-6.042ZM368.604 573.918a6.134 6.134 0 0 1-5.241-6.935 6.136 6.136 0 0 1 6.94-5.237 6.134 6.134 0 0 1 5.241 6.935c-.464 3.324-3.613 5.701-6.94 5.237ZM498.558 591.091a5.186 5.186 0 0 1-4.435-5.869 5.187 5.187 0 0 1 5.872-4.431 5.187 5.187 0 0 1 4.435 5.869c-.392 2.809-3.015 4.829-5.872 4.431ZM461.062 385.408a4.237 4.237 0 0 1 3.628 4.802 4.237 4.237 0 0 1-4.804 3.625 4.236 4.236 0 0 1-3.628-4.801c.373-2.334 2.509-3.946 4.804-3.626ZM541.677 282.11a4.237 4.237 0 0 1 3.629 4.801 4.24 4.24 0 0 1-4.805 3.626 4.238 4.238 0 0 1-3.628-4.802 4.238 4.238 0 0 1 4.804-3.625ZM250.627 470.599a4.236 4.236 0 0 1 3.628 4.801 4.24 4.24 0 0 1-4.805 3.626 4.238 4.238 0 0 1-3.628-4.802c.374-2.334 2.509-3.945 4.805-3.625ZM549.121 703.142a4.236 4.236 0 0 1 3.628 4.801 4.24 4.24 0 0 1-4.805 3.626 4.238 4.238 0 0 1-3.628-4.802 4.238 4.238 0 0 1 4.805-3.625Z"/>
    </g>
    <defs>
        <clipPath id="a">
            <path d="M0 0h1097v959H0z"/>
        </clipPath>
    </defs>
</svg>
