<svg width="166" height="35" xmlns="http://www.w3.org/2000/svg">
    <path d="M43.485 8.339C40.197 3.616 35.067.794 28.654.124 18.389-.95 6.207 4.893 6.207 19.998l2.835.029c0-14.584 11.891-17.813 19.109-17.012 19.56 2.176 17.13 24.871 12.39 27.696-7.591 4.527-9.53-4.21-9.53-4.21h-2.778s-1.057 5.877-6.421 4.98c-3.51-.585-4.513-4.228-4.786-5.513 7.82-4.07 7.507-13.104 7.507-13.104l-6.786-2.014s-4.432 6.948-4.147 13.468C6.794 26.257 2.1 21.59 2.082 21.573L0 23.456c.082.086 5.712 6.225 14.174 3.593.324 1.263 1.85 6.42 7.125 7.301 4.576.764 7.239-1.838 8.125-3.187 1.19 1.927 3.469 3.556 6.797 3.705.094.004.188.001.283.006 4.51.202 9.714-3.646 10.547-12.043.517-5.211-.783-10.494-3.566-14.492Zm-24.297 5.91 2.279.661c-.154 1.03-.6 5.283-4.788 7.917.19-3.747 1.652-6.907 2.509-8.578Z"/>
    <path d="m13.452 11.644-2.407 2.305 1.847 1.834 2.407-2.305-1.847-1.834ZM66.714 15.664 64.5 17.832l1.699 1.724 2.212-2.167-1.698-1.725Z"/>
    <path d="M52.922 16.932h3.162v10.157c0 2.818 2.566 4.756 5.754 4.756h1.53v3.153H61.63c-4.82 0-8.71-3.463-8.71-7.754V16.932h.002ZM68.035 22.074v12.924h-3.162V22.074h3.162ZM70.195 19.465h3.162v4.162h1.866v3.102h-1.866v2.661c0 1.37 1.14 2.507 2.513 2.507h.778V35h-.778c-3.136 0-5.677-2.585-5.677-5.687v-9.847h.002ZM78.07 19.465h3.162v4.162h1.866v3.102h-1.866v2.661c0 1.37 1.14 2.507 2.513 2.507h.778V35h-.778c-3.136 0-5.677-2.585-5.677-5.687v-9.847h.002ZM85.836 35V16.906h3.188V35h-3.188ZM98.014 21.377a6.86 6.86 0 0 1 1.503.155l.26.051c.078.026.18.051.259.078 2.877.827 4.976 3.438 4.976 6.54 0 .18-.026.362-.026.542a6.749 6.749 0 0 1-.31 1.474c-1.167-.569-2.463-.853-3.836-.853-1.374 0-2.67.284-3.888.827v-3.024a14.1 14.1 0 0 1 3.862-.542c.234 0 .44.025.674.025-.493-1.111-1.737-2.171-3.473-2.171-2.099 0-3.81 1.68-3.81 3.722 0 2.067 1.763 3.696 3.81 3.696 1.063 0 1.97-.363 2.722-1.112.544.594 1.478 1.603 2.177 2.352C101.696 34.274 99.986 35 98.015 35c-3.94 0-6.972-3.102-6.972-6.798-.001-3.8 3.11-6.824 6.971-6.824ZM107.141 16.543h3.127v10.856c0 2.405 1.973 4.498 4.563 4.498 2.538 0 4.562-1.991 4.562-4.498V16.543h3.127v10.856a4.515 4.515 0 0 0 4.537 4.498c2.538 0 4.563-1.991 4.563-4.498V16.543h3.127v10.856c0 4.265-3.485 7.6-7.69 7.6-2.486 0-4.691-1.137-6.1-2.999A7.665 7.665 0 0 1 114.831 35c-4.255 0-7.69-3.387-7.69-7.6V16.543ZM143.163 21.377c.545 0 1.038.051 1.504.155l.259.051c.078.026.181.051.259.078 2.877.827 4.976 3.438 4.976 6.54 0 .18-.025.362-.025.542a6.808 6.808 0 0 1-.311 1.474c-1.167-.569-2.462-.853-3.836-.853-1.374 0-2.67.284-3.887.827v-3.024a14.1 14.1 0 0 1 3.861-.542c.234 0 .441.025.674.025-.493-1.111-1.737-2.171-3.472-2.171-2.099 0-3.811 1.68-3.811 3.722 0 2.067 1.763 3.696 3.811 3.696 1.063 0 1.969-.363 2.721-1.112.545.594 1.478 1.603 2.178 2.352-1.219 1.137-2.929 1.862-4.899 1.862-3.94 0-6.973-3.102-6.973-6.798-.001-3.8 3.11-6.824 6.971-6.824ZM155.191 16.596v11.58c0 2.377 1.633 4.005 3.811 4.005 2.203 0 3.81-2.016 3.81-4.006 0-1.963-1.529-4.006-3.81-4.006-.545 0-1.063.104-1.529.285a185.37 185.37 0 0 1-1.063-2.61 7.102 7.102 0 0 1 2.592-.465c4.017 0 6.997 3.127 6.997 6.798 0 3.825-3.187 6.823-6.997 6.823-3.862 0-6.973-3.024-6.973-6.823v-11.58h3.162v-.001Z"/>
</svg>
