<svg width="266" height="56" xmlns="http://www.w3.org/2000/svg">
    <path d="M69.681 13.342C64.411 5.785 56.191 1.27 45.915.198c-16.448-1.716-35.97 7.63-35.97 31.799l4.545.045c0-23.333 19.054-28.5 30.62-27.217 31.344 3.48 27.448 39.793 19.854 44.313-12.165 7.242-15.27-6.736-15.27-6.736H45.24s-1.694 9.402-10.29 7.968c-5.625-.936-7.231-6.765-7.668-8.822 12.53-6.51 12.03-20.966 12.03-20.966l-10.875-3.221s-7.102 11.116-6.645 21.547C10.887 42.01 3.365 34.545 3.336 34.517L0 37.529c.132.138 9.153 9.96 22.712 5.749.52 2.021 2.965 10.273 11.418 11.682 7.332 1.222 11.6-2.94 13.02-5.1 1.906 3.083 5.558 5.69 10.892 5.928.15.006.3.002.452.01 7.227.323 15.566-5.833 16.901-19.268.828-8.339-1.255-16.79-5.714-23.188Zm-38.934 9.456 3.652 1.058c-.246 1.65-.96 8.452-7.673 12.667.305-5.995 2.647-11.05 4.021-13.725Z"/>
    <path d="m21.556 18.63-3.857 3.688 2.96 2.934 3.857-3.688-2.96-2.934ZM106.903 25.062l-3.546 3.468 2.722 2.759 3.546-3.468-2.722-2.76Z"/>
    <path d="M84.803 27.09h5.067v16.25c0 4.51 4.112 7.61 9.22 7.61h2.45v5.046h-2.783c-7.725 0-13.956-5.541-13.956-12.407v-16.5h.002ZM109.02 35.32v20.678h-5.067V35.32h5.067ZM112.48 31.143h5.066v6.66h2.991v4.962h-2.991v4.259c0 2.192 1.827 4.01 4.028 4.01h1.247v4.964h-1.247c-5.025 0-9.096-4.136-9.096-9.1V31.144h.002ZM125.099 31.143h5.067v6.66h2.991v4.962h-2.991v4.259c0 2.192 1.826 4.01 4.027 4.01h1.247v4.964h-1.247c-5.025 0-9.096-4.136-9.096-9.1V31.144h.002ZM137.544 55.998v-28.95h5.108v28.95h-5.108ZM157.059 34.203c.872 0 1.662.082 2.409.248l.416.082c.125.04.29.082.415.125 4.61 1.323 7.974 5.5 7.974 10.463 0 .289-.041.58-.041.868a10.824 10.824 0 0 1-.498 2.358c-1.87-.91-3.946-1.364-6.147-1.364s-4.279.455-6.229 1.323v-4.838a22.622 22.622 0 0 1 6.188-.869c.374 0 .705.041 1.08.041-.79-1.778-2.784-3.474-5.565-3.474-3.363 0-6.106 2.688-6.106 5.955 0 3.308 2.825 5.913 6.106 5.913 1.703 0 3.156-.58 4.361-1.778.873.95 2.368 2.565 3.489 3.763-1.952 1.82-4.692 2.979-7.85 2.979-6.313 0-11.172-4.964-11.172-10.877-.002-6.08 4.982-10.918 11.17-10.918ZM171.683 26.469h5.011v17.37c0 3.846 3.162 7.196 7.311 7.196 4.067 0 7.311-3.186 7.311-7.196v-17.37h5.011v17.37c0 3.846 3.121 7.196 7.27 7.196 4.067 0 7.312-3.186 7.312-7.196v-17.37h5.011v17.37c0 6.823-5.585 12.159-12.323 12.159-3.984 0-7.516-1.82-9.775-4.797-2.3 2.978-5.832 4.797-9.817 4.797-6.817 0-12.322-5.418-12.322-12.16v-17.37ZM229.407 34.203c.872 0 1.662.082 2.409.248l.415.082c.126.04.29.082.416.125 4.61 1.323 7.973 5.5 7.973 10.463 0 .289-.041.58-.041.868a10.766 10.766 0 0 1-.498 2.358c-1.87-.91-3.945-1.364-6.146-1.364-2.202 0-4.279.455-6.23 1.323v-4.838a22.632 22.632 0 0 1 6.188-.869c.375 0 .706.041 1.08.041-.79-1.778-2.783-3.474-5.564-3.474-3.364 0-6.106 2.688-6.106 5.955 0 3.308 2.825 5.913 6.106 5.913 1.703 0 3.155-.58 4.361-1.778.872.95 2.368 2.565 3.489 3.763-1.952 1.82-4.692 2.979-7.85 2.979-6.314 0-11.173-4.964-11.173-10.877-.002-6.08 4.983-10.918 11.171-10.918ZM248.68 26.553V45.08c0 3.804 2.617 6.41 6.106 6.41 3.53 0 6.105-3.227 6.105-6.41 0-3.142-2.45-6.41-6.105-6.41-.873 0-1.704.167-2.45.456-.334-.787-1.496-3.64-1.704-4.177 1.288-.496 2.658-.744 4.154-.744 6.437 0 11.213 5.005 11.213 10.877 0 6.12-5.108 10.918-11.213 10.918-6.188 0-11.173-4.838-11.173-10.918V26.555h5.067v-.002Z"/>
</svg>
