<svg width="56" height="56" xmlns="http://www.w3.org/2000/svg">
    <path d="M55.5 28c0 15.188-12.312 27.5-27.5 27.5S.5 43.188.5 28 12.812.5 28 .5 55.5 12.812 55.5 28Z"/>
    <path d="M49.512 28c0 11.874-9.626 21.5-21.5 21.5s-21.5-9.626-21.5-21.5 9.626-21.5 21.5-21.5 21.5 9.626 21.5 21.5Z"/>
    <path d="M20.604 36.007 19 18h17.637l-1.604 17.997L27.804 38"/>
    <path d="M27.82 36.468v-16.99h7.21L33.654 34.84"/>
    <path d="M22.277 21.68h5.542v2.208H24.7l.203 2.26h2.917v2.203H22.88l-.603-6.67Zm.7 7.779h2.217l.156 1.765 2.47.66v2.305l-4.532-1.264"/>
    <path d="M33.34 21.68H27.81v2.208h5.328l.204-2.207Zm-.403 4.468H27.81v2.207h2.722l-.258 2.869-2.464.66v2.295l4.52-1.254"/>
</svg>
