<svg width="45" height="44" xmlns="http://www.w3.org/2000/svg">
    <path d="M43.512 22c0 11.874-9.626 21.5-21.5 21.5S.512 33.874.512 22 10.138.5 22.012.5s21.5 9.626 21.5 21.5Z"/>
    <path d="M14.604 30.007 13 12h17.637l-1.604 17.997L21.804 32"/>
    <path d="M21.82 30.468v-16.99h7.21L27.654 28.84"/>
    <path d="M16.277 15.68h5.542v2.208H18.7l.203 2.26h2.917v2.203H16.88l-.603-6.67Zm.7 7.779h2.217l.156 1.765 2.47.66v2.305l-4.532-1.264"/>
    <path d="M27.34 15.68H21.81v2.208h5.328l.204-2.207Zm-.403 4.468H21.81v2.207h2.722l-.258 2.869-2.464.66v2.296l4.52-1.255"/>
</svg>
