<svg id="postcss__36x36" viewBox="0 0 36 36">
<path fill-rule="evenodd" clip-rule="evenodd" d="M10.0866 15.9029C10.1215 15.9292 10.182 15.9463 10.1215 15.9983C10.078 16.0588 10.026 16.1108 9.99146 16.1802C9.95691 16.241 9.93091 16.2581 9.87891 16.215C9.94802 16.1022 10.0171 15.998 10.0862 15.9026L10.0866 15.9029ZM27.4951 24.9858C27.4951 25.0115 27.5036 25.0286 27.5036 25.0549C27.5211 25.0204 27.5211 25.0029 27.5299 24.9858H27.4951ZM27.4951 25.0634V25.0549V25.0634ZM25.7284 28.4434L24.221 20.089C24.1954 20.0808 24.1608 20.0637 24.0999 20.0462C24.1174 20.0808 24.1262 20.1068 24.1348 20.1327C24.1776 20.1242 24.1954 20.1242 24.2125 20.1156C24.2125 20.1071 24.2125 20.0985 24.2214 20.0893L25.7287 28.4444L25.7284 28.4434ZM24.1694 18.2084C24.1608 18.2341 24.1608 18.2604 24.1608 18.2864C24.1608 18.2601 24.1608 18.2337 24.17 18.2081L24.1694 18.2084ZM24.1779 18.3814C24.1694 18.3814 24.1694 18.3814 24.1608 18.3722V18.3808C24.17 18.3893 24.17 18.3893 24.1786 18.3808L24.1779 18.3814ZM24.1608 18.4505V18.3896C24.1355 18.3982 24.1095 18.3982 24.0746 18.4071C24.118 18.4235 24.1615 18.4327 24.1615 18.4498L24.1608 18.4505Z" fill="white"></path>
<path fill-rule="evenodd" clip-rule="evenodd" d="M30.9059 16.3448C30.8888 16.0067 30.8802 15.6686 30.8453 15.3309C30.7848 14.8714 30.7242 14.4034 30.6202 13.9528C30.5422 13.5802 30.4129 13.2247 30.2826 12.8695C30.118 12.4534 29.9534 12.0288 29.7454 11.6302C29.4078 10.9889 28.9661 10.4166 28.559 9.8187C28.2898 9.43719 27.9435 9.1254 27.6835 8.73534C27.5364 8.51005 27.3199 8.31963 27.1033 8.14663C26.7568 7.86872 26.3931 7.61712 26.0294 7.37473C25.755 7.18241 25.4716 7.00308 25.1803 6.83733C24.9466 6.70676 24.6955 6.60283 24.453 6.49002C24.1758 6.36011 23.9073 6.20389 23.5956 6.14337C23.5173 6.12693 23.4482 6.10062 23.3702 6.07431C23.1711 6.00524 22.9805 5.92729 22.7811 5.86645C22.4783 5.77107 22.1837 5.65859 21.8717 5.58032C21.5696 5.50237 21.2576 5.45073 20.9456 5.40699C20.5994 5.35601 20.2446 5.33793 19.8977 5.30405C19.6763 5.27546 19.4539 5.25528 19.2309 5.24353C18.9018 5.22643 18.5641 5.22643 18.235 5.21788C18.0705 5.209 17.8973 5.19157 17.7328 5.20045C17.4817 5.209 17.2306 5.23498 16.9791 5.26952C16.7369 5.29583 16.4943 5.33858 16.2607 5.37377C15.9753 5.40831 15.6896 5.42574 15.4036 5.4606C15.1351 5.49546 14.858 5.54743 14.5897 5.59084C14.4943 5.60827 14.3989 5.6428 14.3034 5.65991C14.0961 5.70332 13.8795 5.72075 13.6715 5.79015C13.2996 5.90328 12.9267 6.03352 12.5631 6.17166C12.2251 6.31045 11.8959 6.45779 11.5757 6.63111C11.2466 6.81266 10.9346 7.02907 10.6229 7.23758C10.3236 7.43777 10.0316 7.64873 9.74749 7.87004C9.47104 8.0871 9.21104 8.32949 8.9596 8.57221C8.82137 8.71034 8.70848 8.87545 8.57848 9.03134C8.36225 9.28294 8.1457 9.52533 7.9377 9.78548C7.76524 10.0025 7.60858 10.2275 7.44403 10.4531C7.15013 10.8511 6.89901 11.276 6.66534 11.7009C6.5699 11.8742 6.48334 12.0476 6.39678 12.2206C6.26678 12.4804 6.12823 12.732 6.00711 13.0007C5.92023 13.1829 5.85111 13.3822 5.79911 13.5815C5.67833 14.0064 5.55689 14.4399 5.44433 14.8642C5.34033 15.2457 5.31433 15.6443 5.3061 16.0344C5.29722 16.381 5.33177 16.7191 5.36633 17.0658C5.37522 17.1526 5.32354 17.2565 5.42689 17.3256C5.39233 17.421 5.41833 17.4736 5.46967 17.49C5.40977 17.5854 5.496 17.6466 5.46177 17.7334C5.45289 17.7505 5.4881 17.785 5.50456 17.811C5.50456 17.8373 5.49633 17.8719 5.50456 17.8978C5.51377 17.9758 5.54833 18.0537 5.54833 18.1406C5.54833 18.2011 5.6 18.2705 5.61744 18.3313C5.626 18.357 5.61744 18.4004 5.6 18.4178C5.548 18.4783 5.55656 18.5303 5.63456 18.5652C5.67833 18.6776 5.66089 18.7296 5.65233 18.7822C5.66944 18.8598 5.64344 18.8858 5.65233 18.9032C5.72144 19.042 5.74777 19.1979 5.756 19.3538C5.756 19.3887 5.77344 19.4235 5.79089 19.4666C5.79944 19.4666 5.79089 19.6311 5.79089 19.6311C5.83367 19.6054 5.86889 19.5969 5.912 19.5794C5.93833 19.6919 5.964 19.7965 5.99856 19.8919C6.042 19.961 6.042 19.9952 6.02489 20.0037C6.05944 20.1596 6.07656 20.3069 6.13678 20.4543C6.13678 20.2898 6.12033 20.1254 6.094 19.9692C6.21511 20.0126 6.31911 20.0557 6.38856 20.0557C6.39744 20.0294 6.406 19.9952 6.41489 19.9777C6.36289 19.9261 6.31944 19.8481 6.26744 19.7962C6.28489 19.8652 6.26744 19.8916 6.26744 19.9179C6.23289 19.9001 6.18944 19.8827 6.14633 19.8652C6.18089 19.8225 6.21544 19.7787 6.26744 19.7271C6.26744 19.6488 6.22466 19.5791 6.10289 19.588C6.15489 19.5709 6.20689 19.5452 6.26744 19.5275C6.36289 19.4758 6.25889 19.3805 6.25889 19.2591C6.26744 19.1121 6.18089 18.9648 6.15489 18.8085C6.11144 18.5661 6.12033 18.2021 6.09433 17.9593C6.04233 17.9159 5.99889 18.0284 5.99033 18.0373C6.01666 18.2451 6.04233 18.453 6.05944 18.6612C6.00777 18.4879 5.97289 18.2971 5.92977 18.0889C5.92089 18.1498 5.91233 18.1757 5.91233 18.2106C5.86954 18.2534 5.90377 18.306 5.92977 18.3665C5.86922 18.3402 5.79977 18.3494 5.79977 18.3494V18.5921C5.71354 18.5053 5.68787 18.4362 5.6441 18.3751C5.62699 18.306 5.61777 18.2369 5.60132 18.1679C5.61777 18.1241 5.60132 18.0981 5.60132 18.0725C5.59115 18.0032 5.58237 17.9336 5.57499 17.864C5.58354 17.8554 5.56643 17.7258 5.56643 17.7258C5.63554 17.7341 5.67932 17.7423 5.72243 17.7423C5.63587 17.6305 5.6961 17.5607 5.73132 17.4913C5.74876 17.4565 5.80932 17.4486 5.82676 17.4131C5.89587 17.2831 6.00876 17.1795 6.00876 17.0144C6.00876 16.9365 6.03509 16.85 6.04332 16.7717C6.06076 16.6244 6.07787 16.477 6.0861 16.3297C6.10387 16.1389 6.0861 15.9482 6.12987 15.7663C6.19965 15.4637 6.2862 15.1602 6.38132 14.8566C6.45043 14.6395 6.52876 14.4323 6.61499 14.2153C6.74499 13.8772 6.86643 13.5391 7.03099 13.2187C7.26466 12.7504 7.53322 12.2998 7.79322 11.8407C7.95777 11.5546 8.13089 11.2859 8.31322 11.0086C8.486 10.7399 8.65878 10.4627 8.85856 10.2111C9.13279 9.85617 9.44026 9.52821 9.77678 9.23163C10.1233 8.91985 10.4525 8.59918 10.8247 8.31305C11.3086 7.9394 11.8242 7.6086 12.3656 7.32441C12.8076 7.0909 13.2664 6.90804 13.7255 6.73471C14.0201 6.62223 14.3403 6.57027 14.6437 6.47489C14.9899 6.36208 15.3365 6.31045 15.7002 6.30157C15.9338 6.29269 16.1593 6.26671 16.393 6.24072C16.601 6.22428 16.8086 6.20652 17.0341 6.18054C17.0077 6.21507 16.9992 6.2325 16.9906 6.2496C16.8958 6.38839 16.7918 6.52719 16.6964 6.66565C16.6184 6.77846 16.5318 6.89982 16.4538 7.0123C16.315 7.19483 16.1675 7.3767 16.0378 7.56746C15.8387 7.85359 15.6567 8.14827 15.4487 8.43408C15.2414 8.71133 15.0159 8.97148 14.7994 9.23986C14.5137 9.61281 14.2452 9.994 13.9595 10.3666C13.6995 10.7218 13.423 11.0606 13.1716 11.4158C12.9465 11.7272 12.747 12.0571 12.5305 12.3771C12.2103 12.854 11.8897 13.3217 11.5695 13.7986C11.3181 14.1616 11.064 14.5227 10.8072 14.8819C10.7898 14.9082 10.7638 14.9161 10.7381 14.9336C10.669 15.046 10.669 15.1069 10.6427 15.1589C10.5736 15.2888 10.5045 15.4187 10.4261 15.5404C10.3827 15.6094 10.3221 15.6699 10.2701 15.7393C10.2616 15.6354 10.4084 15.5835 10.3392 15.4532C10.2965 15.5229 10.2527 15.5835 10.2096 15.6528L10.1056 15.86C10.1401 15.8864 10.201 15.9038 10.1401 15.9554C10.1138 15.9992 10.0881 16.0508 10.0621 16.0945C10.0996 16.0725 10.1321 16.043 10.1576 16.0077C10.1576 16.1031 10.1056 16.1807 10.0621 16.2587C10.0276 16.3277 9.94101 16.3803 9.88046 16.432C9.88901 16.4409 9.94957 16.4668 9.95846 16.4754C10.0365 16.4491 10.0625 16.4063 10.0713 16.432C10.0977 16.3974 10.1233 16.3715 10.1319 16.3455C10.1661 16.2587 10.2181 16.1896 10.3047 16.1547C10.3396 16.1373 10.3652 16.1113 10.3912 16.0857C10.6512 15.8166 10.9198 15.5568 11.1535 15.2707C11.5175 14.8283 11.8466 14.3695 12.1935 13.9189C12.3403 13.7282 12.5137 13.5374 12.6694 13.3552C12.695 13.5545 12.6779 13.745 12.6694 13.9275C12.643 14.2478 12.6259 14.5688 12.6003 14.8977C12.5914 15.0276 12.6003 15.1575 12.5914 15.2878C12.5914 15.3223 12.565 15.3483 12.565 15.3832C12.565 15.4697 12.5914 15.565 12.5914 15.6519C12.565 15.9725 12.5302 16.2843 12.5042 16.605C12.4953 16.674 12.5298 16.7438 12.5469 16.8046C12.5042 17.2723 12.5996 17.7666 12.5213 18.2606C12.5818 18.1652 12.5993 18.1047 12.5993 18.0442C12.6075 17.9922 12.5993 17.9403 12.5993 17.8797V17.7929C12.6075 17.6367 12.6421 17.4723 12.6249 17.316C12.6075 17.1427 12.6075 16.9783 12.6424 16.8135C12.6598 16.7444 12.6338 16.6576 12.6773 16.5708V16.7007C12.6687 17.194 12.6862 17.6883 12.617 18.1823C12.6082 18.2257 12.6434 18.304 12.5479 18.2951C12.4696 18.451 12.565 18.5638 12.4788 18.6503C12.461 18.6678 12.4953 18.7457 12.5042 18.7977C12.4693 18.9019 12.4693 18.9019 12.5213 18.9105C12.5298 19.1012 12.5476 19.2742 12.5558 19.4564C12.6941 19.1276 12.6249 18.7888 12.6862 18.4507C12.6947 18.5895 12.7036 18.7283 12.6947 18.875C12.6947 19.1009 12.6862 19.3173 12.6776 19.5426C12.6776 19.586 12.6687 19.6294 12.6602 19.6728C12.6338 19.7945 12.6256 19.9156 12.5822 20.028C12.5476 20.1149 12.565 20.2451 12.565 20.3487V20.6786C12.5996 20.8259 12.5562 20.9039 12.5822 20.9904C12.5558 21.0775 12.5476 21.1035 12.5558 21.1295L12.5822 21.2594C12.7556 21.242 12.6776 21.3722 12.7467 21.4413C12.6947 21.511 12.7122 21.5367 12.7122 21.5718C12.7122 21.6498 12.7039 21.7192 12.695 21.7971C12.695 21.9964 12.6865 22.1957 12.6865 22.3865C12.6865 22.4128 12.695 22.4381 12.695 22.4641C12.695 22.4819 12.6865 22.7075 12.6865 22.7075C12.7039 22.7332 12.6865 22.7591 12.6602 22.7851C12.6519 22.7851 12.6259 21.6843 12.6259 21.6843H12.4959C12.4788 22.204 12.5223 22.672 12.4268 23.1577C12.3228 23.166 12.2886 23.1834 12.1754 23.1834C11.9068 23.1834 11.6383 23.1834 11.3697 23.192C11.0491 23.192 10.7378 23.2005 10.4169 23.2005C10.2616 23.2005 10.097 23.2183 9.94101 23.2183C9.73301 23.2183 9.51646 23.192 9.30911 23.192C8.98823 23.192 8.67656 23.2183 8.356 23.2268C8.12233 23.2354 7.88866 23.2354 7.65499 23.2442C7.49866 23.2525 7.34233 23.2607 7.18699 23.2784C7.11787 23.287 7.05699 23.313 6.97043 23.339C6.9441 23.339 6.88387 23.3304 6.8322 23.339C6.74499 23.3564 6.66765 23.408 6.58043 23.4258C6.45043 23.4521 6.41587 23.4863 6.43299 23.6165V23.703C6.42443 23.7201 6.62387 23.6767 6.62387 23.6767C6.6061 23.6767 6.59754 23.7287 6.57122 23.7721C6.64099 23.7458 6.6841 23.7287 6.72754 23.7116C6.85754 23.7724 6.9701 23.7379 7.07377 23.7642C7.41144 23.8504 7.75767 23.8859 8.1039 23.9198C8.32934 23.9372 8.5459 23.9461 8.77101 23.9543C9.09124 23.9717 9.4118 23.9892 9.73203 23.9892C10.0006 23.9892 10.2606 23.9629 10.5285 23.9629C10.9004 23.9629 11.2736 23.98 11.6458 23.9892C11.7238 23.9892 11.8104 23.98 11.8969 23.98H12.5288C13.0923 23.9629 13.6551 23.9537 14.2182 23.9372C14.5391 23.928 14.8682 23.9109 15.1884 23.902L16.1757 23.8757C16.5569 23.8672 16.938 23.8672 17.3105 23.8593C17.5962 23.8593 17.8733 23.8494 18.1596 23.8412C18.4795 23.8326 18.8087 23.8066 19.1292 23.7895C19.3027 23.7807 19.4761 23.7632 19.6492 23.7461C19.8572 23.729 20.0738 23.7034 20.2811 23.6945C20.5931 23.6767 20.9137 23.6682 21.2257 23.6508C21.6153 23.6251 22.005 23.5906 22.4032 23.5817C22.7672 23.5646 23.1395 23.5731 23.5035 23.5646C23.824 23.5557 24.1446 23.5383 24.4737 23.5297L25.02 23.5034C25.02 23.5034 25.3834 23.4949 25.5654 23.4771C25.877 23.46 26.1887 23.4255 26.5007 23.4169C26.6995 23.408 26.8989 23.4169 27.098 23.408C27.4183 23.3995 27.7474 23.3817 28.0679 23.3817C28.1887 23.3817 28.3187 23.3995 28.4747 23.408C28.4056 23.4689 28.3622 23.5034 28.3102 23.5468C28.3447 23.5554 28.3793 23.5731 28.4142 23.5902C28.3738 23.6187 28.3254 23.6337 28.2759 23.633C28.2582 23.6767 28.2407 23.6942 28.2233 23.781H28.3793C28.3187 23.781 28.2667 23.8589 28.2062 23.9109C28.1371 23.8931 28.0762 23.9109 28.0416 24.0063C28.1022 24.0405 28.0936 24.0665 28.0851 24.1017C27.9811 24.1359 27.9031 24.1707 27.9468 24.2832C27.9116 24.3003 27.8685 24.3177 27.8251 24.3437C27.7823 24.4128 27.7039 24.4302 27.7211 24.5256C27.7559 24.5338 27.7902 24.5519 27.8165 24.5598C27.7731 24.5772 27.7299 24.6032 27.6865 24.6203C27.5308 24.7157 27.6003 24.7591 27.6348 24.8025C27.6085 24.8199 27.5828 24.837 27.5568 24.8459C27.5739 24.9239 27.5996 24.9413 27.6085 24.9413C27.5642 24.9748 27.5209 25.0094 27.4785 25.0452C27.4522 25.1232 27.4176 25.1577 27.3831 25.2097C27.3485 25.2616 27.3311 25.3314 27.2876 25.383C27.1059 25.5826 26.9759 25.8171 26.7423 25.9727C26.6554 26.0335 26.5777 26.1115 26.4997 26.1898C26.3437 26.3368 26.2052 26.5016 26.0406 26.6403C25.823 26.8204 25.5977 26.9909 25.3653 27.1514C25.0799 27.3507 24.7943 27.55 24.5083 27.7408C24.3523 27.8444 24.1791 27.9223 24.0146 28.0177C23.85 28.1131 23.694 28.1999 23.5295 28.295C23.4255 28.364 23.33 28.4594 23.2175 28.512C22.9318 28.6337 22.6284 28.7373 22.3341 28.8501C22.0478 28.9718 21.8405 29.0754 21.6239 29.1534C21.4248 29.2224 21.2168 29.2751 21.0091 29.3178C20.94 29.3356 20.8617 29.3178 20.7837 29.3267C20.6362 29.353 20.4891 29.3879 20.3417 29.405C19.9606 29.4569 19.5794 29.4918 19.1987 29.5438C18.9732 29.5701 18.7567 29.6128 18.5315 29.6391C18.3759 29.6477 18.2113 29.6306 18.0553 29.6306C17.9428 29.6306 17.8216 29.6569 17.7088 29.6395C17.5271 29.6132 17.3451 29.5704 17.1631 29.5355C17.1203 29.527 17.0591 29.5092 17.0249 29.527C16.9557 29.5619 16.8945 29.5099 16.8251 29.527C16.7823 29.5359 16.7389 29.5007 16.6954 29.5007C16.6605 29.4925 16.6171 29.5099 16.5736 29.5007C16.4782 29.475 16.392 29.4405 16.2873 29.449C16.1843 29.4576 16.08 29.4056 15.9681 29.38C15.8117 29.3451 15.6653 29.3109 15.5086 29.2757C15.4481 29.2568 15.3901 29.2307 15.3358 29.1978C15.1104 29.1978 14.963 29.1892 14.8244 29.1369C14.7033 29.0942 14.5907 29.0333 14.4607 29.0508C14.4265 29.0593 14.4005 29.0422 14.3653 29.0422C14.339 29.0074 14.3136 28.938 14.2879 28.938C14.1148 28.9468 14.0108 28.7998 13.8634 28.7561C13.7857 28.7298 13.7252 28.6433 13.6472 28.6173C13.4563 28.5393 13.3009 28.3749 13.0844 28.3489C13.0153 28.34 12.9462 28.3055 12.8678 28.2798C12.8942 28.3141 12.9106 28.34 12.9369 28.366C12.6858 28.2443 12.4522 28.1062 12.2182 27.976C12.1839 27.9674 12.1579 27.9332 12.1319 27.9154L11.8983 27.7596C11.7683 27.7859 11.7163 27.7332 11.681 27.7161C11.4474 27.5517 11.1791 27.4474 10.9537 27.2656C10.8583 27.1873 10.7464 27.1353 10.6772 27.0399C10.5555 26.8926 10.4084 26.7887 10.2438 26.7022C10.1141 26.6331 9.99301 26.5548 9.8719 26.4769C9.81101 26.4335 9.75013 26.3815 9.75013 26.2861C9.75013 26.2253 9.72446 26.1644 9.64646 26.1993C9.6119 26.1473 9.57734 26.0868 9.5339 26.0694C9.4299 26.0266 9.36078 25.9477 9.28278 25.8786C9.20478 25.8096 9.14456 25.7142 9.04911 25.6797C8.87567 25.6106 8.77167 25.4633 8.668 25.3419C8.42511 25.0558 8.20856 24.7433 7.98344 24.4407C7.966 24.4144 7.93144 24.397 7.90544 24.371C7.94 24.4664 7.98344 24.5443 8.02656 24.6308C7.94033 24.5963 7.87977 24.5355 7.82777 24.4749C7.81889 24.4838 8.42511 25.4804 8.42511 25.4804C8.47777 25.5583 8.52056 25.6366 8.57256 25.7145C8.52038 25.7194 8.46793 25.7088 8.42171 25.6841C8.37549 25.6595 8.33753 25.6218 8.31256 25.5757C8.23489 25.4376 8.148 25.3508 7.97489 25.3685C7.95651 25.3059 7.94222 25.2422 7.9321 25.1778C7.89689 25.1778 7.87122 25.1778 7.81033 25.1689C7.9321 25.3597 8.03577 25.5241 8.14833 25.7149C8.10456 25.6885 8.07922 25.6714 8.06111 25.6629C8.21678 25.8273 8.32934 26.0355 8.52846 26.1398C8.5719 26.3388 8.79701 26.4341 8.84901 26.6249C8.80623 26.616 8.77068 26.6075 8.72724 26.5986C8.65813 26.5121 8.58013 26.4256 8.50246 26.3302C8.51957 26.3907 8.54524 26.4427 8.58013 26.4861C8.68413 26.616 8.77957 26.7459 8.90068 26.8587C8.94413 26.9028 9.00468 26.9202 9.00468 26.9982C9.0738 27.0327 9.10013 27.0409 9.1258 27.0409C9.14357 27.0936 9.11757 27.1715 9.22124 27.1541C9.29035 27.284 9.35947 27.284 9.45491 27.2409C9.5678 27.3537 9.62868 27.3626 9.70635 27.2935C9.70635 27.3363 9.71491 27.3797 9.71491 27.4145C9.74947 27.3971 9.74124 27.3711 9.74124 27.3277C9.78403 27.3623 9.81035 27.3797 9.82747 27.3968C9.91403 27.5185 9.99203 27.631 10.1131 27.7263C10.2777 27.8651 10.4251 28.0125 10.5805 28.1424C10.8839 28.394 11.2223 28.6022 11.5596 28.7926C11.9756 29.0268 12.3742 29.278 12.7984 29.503C13.3092 29.772 13.8548 29.9542 14.4176 30.0841C14.6256 30.1275 14.8247 30.1706 15.0331 30.2223C15.2141 30.2749 15.3964 30.3528 15.5784 30.3959C15.8555 30.4568 16.1412 30.5087 16.4183 30.5604C16.4785 30.5692 16.5401 30.5781 16.6092 30.5867C16.6865 30.6041 16.7816 30.5692 16.7991 30.5956C16.8425 30.6646 16.8771 30.6298 16.9291 30.6212C16.9896 30.6038 17.0591 30.6038 17.1282 30.6038C17.3708 30.6123 17.6044 30.6643 17.847 30.6472C17.8996 30.6472 17.9773 30.6034 18.0208 30.6899C18.0984 30.6554 18.1419 30.6554 18.1764 30.6472C18.1856 30.7248 18.1764 30.7248 18.16 30.7334C18.1422 30.7419 18.1162 30.7508 18.0816 30.7768C18.3933 30.8373 18.6879 30.8458 18.9472 30.7768C19.3981 30.8113 19.7878 30.7593 20.1603 30.6294C20.1949 30.6728 20.2209 30.7334 20.2729 30.6469C20.29 30.6205 20.3334 30.6117 20.3683 30.6031C20.446 30.5857 20.5414 30.5512 20.6106 30.5768C20.6889 30.6031 20.7149 30.5341 20.7751 30.5341C20.8794 30.5341 20.9746 30.5252 21.07 30.5077C21.122 30.4992 21.174 30.4732 21.2346 30.4558C21.1753 30.4264 21.1099 30.4114 21.0437 30.412C21.148 30.3601 21.2431 30.3167 21.3386 30.2739C21.3211 30.2996 21.3037 30.3341 21.2694 30.3341H21.3902C21.3639 30.3341 21.3293 30.412 21.2862 30.464C21.5976 30.3861 21.8832 30.3167 22.1607 30.2469C22.0652 30.0654 22.2644 30.1262 22.3338 30.022C22.2472 30.0483 22.1607 30.0739 22.0738 30.091C22.3684 29.944 22.6715 29.8141 22.9657 29.6842C22.9229 29.7362 22.8703 29.7622 22.7929 29.8059C22.8449 29.8141 22.8795 29.8141 22.9055 29.8223C23.0437 29.8661 23.0095 29.7362 23.0526 29.6579C23.2171 29.6579 23.2863 29.6322 23.3643 29.6059C23.4508 29.5796 23.5374 29.554 23.6243 29.5194C23.7625 29.4589 23.8925 29.3813 24.031 29.3122C24.0574 29.303 24.1002 29.3122 24.135 29.3122C24.2305 29.2511 24.2647 29.1991 24.2907 29.2076C24.4125 29.2251 24.4981 29.1813 24.5329 29.0695C24.5935 29.0258 24.6369 28.9912 24.6801 28.9649C24.8703 28.861 25.0519 28.7571 25.2428 28.6531C25.3119 28.6531 25.3468 28.6531 25.3639 28.6443C25.4772 28.5916 25.5812 28.5318 25.6848 28.4709C25.6551 28.4586 25.6262 28.4443 25.5983 28.4282C25.6845 28.4104 25.7102 28.4019 25.7628 28.3844C25.9702 28.1411 26.2565 27.9766 26.4727 27.7859C26.5682 27.7773 26.5682 27.7513 26.5682 27.7342C26.6024 27.6908 26.6373 27.6388 26.6801 27.604C26.871 27.4307 27.0783 27.2833 27.2517 27.1014C27.5029 26.8495 27.7454 26.5894 27.9705 26.3207C28.1779 26.0779 28.3865 25.8356 28.5596 25.5669C28.8022 25.1942 29.0099 24.8127 29.2264 24.4223C29.3824 24.1454 29.521 23.8681 29.6773 23.5909C29.6938 23.5646 29.729 23.53 29.755 23.53C29.9887 23.5037 30.223 23.4873 30.4481 23.461C30.5001 23.4524 30.5607 23.4182 30.6127 23.3919C30.5863 23.3485 30.5692 23.2965 30.5435 23.2531C30.5087 23.2005 30.4567 23.1577 30.4218 23.1051C30.3875 23.0624 30.3615 23.0097 30.3355 22.9581C30.3092 22.9154 30.2835 22.8805 30.2575 22.8364C30.2049 22.741 30.1532 22.6457 30.1094 22.5424C30.1009 22.5161 30.0831 22.4733 30.0923 22.447C30.2483 22.1093 30.3089 21.7452 30.456 21.4071C30.6031 21.0604 30.6469 20.6704 30.716 20.2977C30.7766 19.9425 30.8114 19.5873 30.8542 19.2321C30.8806 18.9809 30.9151 18.7381 30.9233 18.4869C30.976 18.0883 30.9582 17.7153 30.9497 17.3423C30.9411 17.0135 30.9233 16.6754 30.9069 16.3458L30.9059 16.3448ZM9.17615 27.0133C9.1156 26.9442 9.0636 26.866 9.00304 26.7969L9.02937 26.7706C9.12382 26.8748 9.21927 26.9788 9.31438 27.0916C9.26238 27.0653 9.20182 27.0482 9.17615 27.0133ZM9.31438 27.0916C9.34071 27.0827 9.36704 27.0827 9.39271 27.0741C9.41904 27.1176 9.43615 27.1695 9.46182 27.2215C9.34071 27.2126 9.28015 27.1606 9.31471 27.0916H9.31438ZM18.3222 30.6709V30.6446C18.4868 30.6275 18.6425 30.61 18.807 30.5929V30.6182C18.6425 30.6446 18.4868 30.661 18.3222 30.6702V30.6709ZM20.5043 30.4456C20.3835 30.4719 20.2535 30.4893 20.1324 30.5068C20.0889 30.5153 20.0369 30.5587 20.0198 30.4804C20.0024 30.4893 19.9849 30.4893 19.9678 30.4982C20.0106 30.6278 20.1149 30.5239 20.2015 30.5758C20.0106 30.6021 19.8296 30.6192 19.6472 30.6449V30.6278C19.6999 30.6192 19.7601 30.6104 19.8118 30.6015V30.5758C19.7255 30.5656 19.6387 30.5597 19.5518 30.5584C19.5265 30.5584 19.4916 30.5933 19.4656 30.6018C19.431 30.6104 19.3965 30.6192 19.353 30.6192C19.2059 30.6278 19.0588 30.6278 18.9199 30.6363C18.911 30.6363 18.8936 30.6278 18.885 30.6278V30.6015C19.4652 30.5239 20.0369 30.4459 20.6171 30.368C20.626 30.3851 20.626 30.4025 20.6346 30.4196C20.5826 30.4196 20.548 30.4377 20.5046 30.4459L20.5043 30.4456ZM20.6346 30.3594C20.834 30.3331 21.0164 30.316 21.2066 30.2903C20.8084 30.4028 20.6784 30.4199 20.6349 30.3594H20.6346ZM13.091 12.8609C13.3674 12.4794 13.6537 12.0979 13.9309 11.7082C14.0174 11.5947 14.0865 11.4733 14.1731 11.3609C14.1994 11.326 14.234 11.3089 14.2771 11.274L14.2685 11.2576C14.3031 11.2138 14.3376 11.1787 14.3551 11.1444C14.3992 11.0754 14.4252 10.9971 14.4597 10.9192C14.469 10.9058 14.4807 10.8943 14.4943 10.8853C14.6161 10.9458 14.6161 10.8162 14.6589 10.7725C14.7369 10.6856 14.8149 10.5906 14.884 10.5038C14.936 10.4347 14.988 10.3739 15.0314 10.2959C15.04 10.2696 15.014 10.2268 15.0051 10.1917H14.9794C15.0057 10.1746 15.0314 10.1489 15.0574 10.1311C15.066 10.1311 15.066 10.1311 15.0745 10.1226C15.1265 10.0443 15.1785 9.96637 15.2305 9.89697C15.3342 9.75884 15.4468 9.62005 15.5679 9.49902C15.5508 9.54177 15.5333 9.58552 15.5159 9.62005C15.5248 9.62005 15.5248 9.62893 15.5333 9.62893C15.6373 9.49014 15.7499 9.36023 15.8539 9.22111C15.845 9.21289 15.8364 9.20401 15.8275 9.20401C15.7848 9.24742 15.7499 9.29083 15.7064 9.33425C15.6979 9.32537 15.6893 9.31681 15.6801 9.31681C15.7673 9.20401 15.8539 9.09153 15.9401 8.96162C15.9575 8.98793 15.975 9.02213 16.0092 9.09153C16.0444 9.00503 16.079 8.94451 16.1047 8.88367C16.079 8.90998 16.0444 8.93563 16.0184 8.96194L15.9921 8.93563L16.1481 8.70212C16.3127 8.46795 16.4772 8.22523 16.6418 7.99107C16.7027 7.90457 16.78 7.83517 16.8327 7.74835C16.9972 7.41946 17.2572 7.15898 17.456 6.85574C17.4994 6.79523 17.56 6.74326 17.612 6.6913C17.6548 6.63868 17.69 6.65644 17.7246 6.69985C17.9582 6.99454 18.1919 7.29777 18.4256 7.59245C18.5993 7.80952 18.7725 8.01672 18.937 8.24234C19.1361 8.51992 19.3267 8.79717 19.5261 9.07442C19.7512 9.39509 19.9764 9.71576 20.1929 10.0446C20.522 10.5304 20.8337 11.0159 21.1628 11.501C21.4054 11.8562 21.6479 12.2031 21.8816 12.5583H21.4393C21.0325 12.5501 20.6165 12.5156 20.2097 12.5327C19.6555 12.559 19.0927 12.6195 18.5385 12.6629C17.8368 12.7238 17.1266 12.732 16.4255 12.732C16.1738 12.732 15.9227 12.7672 15.6719 12.7846C15.3684 12.8017 15.0739 12.8191 14.7708 12.8274C14.4153 12.8451 14.0697 12.8537 13.7143 12.8626C13.5149 12.8711 13.3072 12.8626 13.0906 12.8626L13.091 12.8609ZM23.0246 16.847V16.9253C23.0161 16.9253 23.0075 16.9342 22.9901 16.9342C22.9555 16.8125 22.9209 16.6823 22.8775 16.5609C22.7909 16.3093 22.6955 16.0577 22.5395 15.8327C22.3657 15.5904 22.2104 15.3394 22.0366 15.0878C21.9938 15.027 21.9326 14.975 21.8806 14.9234C21.6986 14.7237 21.5166 14.5156 21.2829 14.3685C20.9386 14.1527 20.5764 13.967 20.2002 13.8134C20.0957 13.7686 19.9945 13.7165 19.8974 13.6575H20.1047L21.5857 13.6312C21.9063 13.6229 22.2183 13.6229 22.5385 13.6055C22.6162 13.6055 22.6596 13.6318 22.7031 13.7009C22.7807 13.8308 22.8587 13.9607 22.9453 14.091C22.9542 14.1081 22.9716 14.1337 22.9716 14.16C22.9716 14.3508 22.9716 14.5501 22.9802 14.7408C22.9884 14.9401 23.0065 15.1309 23.0144 15.3302C23.0144 15.5295 22.997 15.7374 23.0058 15.9452C23.0147 16.2402 23.0233 16.5438 23.0233 16.8464L23.0246 16.847ZM13.7054 13.9449C14.1125 13.9275 14.5019 13.9015 14.9008 13.8841C15.2118 13.8667 15.5327 13.8578 15.844 13.8407C15.974 13.8325 16.0954 13.8242 16.2251 13.8407C16.0869 13.9104 15.948 13.9798 15.8269 14.0663C15.6709 14.1702 15.5241 14.3087 15.3678 14.4215C15.2114 14.534 15.0729 14.6728 14.9432 14.8201C14.7787 15.0191 14.5967 15.1924 14.4232 15.3832C14.3014 15.5219 14.1632 15.6519 14.0595 15.7992C13.9124 15.99 13.7824 16.1972 13.6439 16.4142C13.6873 15.5907 13.7393 14.7764 13.7044 13.9443L13.7054 13.9449ZM19.3612 22.2822C19.0838 22.3513 18.7985 22.4296 18.5121 22.4641C18.2699 22.499 18.0185 22.4904 17.7673 22.4904C17.5446 22.4905 17.3219 22.4818 17.0999 22.4641C16.8488 22.4385 16.5977 22.4125 16.3551 22.2997C16.1468 22.2043 15.9306 22.1178 15.7232 22.0135C15.5146 21.9096 15.3069 21.7886 15.1506 21.5978C15.0387 21.4587 14.8823 21.3462 14.7438 21.2249C14.7701 21.3288 14.8303 21.4156 14.9258 21.4761C14.8823 21.5281 14.8218 21.5025 14.7349 21.3633C14.7092 21.3808 14.6832 21.3896 14.6658 21.3982C14.6921 21.3374 14.7178 21.2765 14.7438 21.2249C14.7092 21.1558 14.6658 21.0775 14.6312 21.0078C14.5621 20.8953 14.493 20.7743 14.4321 20.6615C14.4147 20.6352 14.4147 20.6095 14.3975 20.5835C14.3543 20.5336 14.3137 20.4814 14.2758 20.4273C14.2067 20.3237 14.1461 20.2112 14.0595 20.107C14.0595 20.1333 14.0684 20.1589 14.0684 20.1938C14.0595 20.1938 14.051 20.2024 14.051 20.2024L13.8687 19.7603C13.8601 19.7603 13.8601 19.7603 13.8515 19.7689L14.0072 20.3411C13.9987 20.3411 13.9901 20.3494 13.9809 20.3494C13.9555 20.3152 13.9295 20.2803 13.9118 20.2375C13.8947 20.1678 13.8427 20.1678 13.7999 20.1938C13.7735 20.2112 13.7561 20.2718 13.765 20.2977C13.8259 20.4451 13.895 20.5924 13.9644 20.7398C13.9815 20.7917 13.999 20.8351 14.025 20.8871C14.0339 20.9045 14.0599 20.9216 14.0599 20.9476C14.0948 21.0167 14.1208 21.0858 14.1639 21.1469C14.2419 21.2509 14.3284 21.3548 14.4064 21.4587C14.4838 21.5626 14.5529 21.6758 14.6223 21.7794C14.6309 21.7968 14.6569 21.7968 14.6651 21.8057C14.7089 21.9356 14.856 22.0306 14.96 21.9787C14.9863 22.178 15.2026 22.2474 15.2891 22.4381C15.2041 22.4035 15.1204 22.3658 15.038 22.3253C15.0291 22.3339 15.0291 22.3424 15.0202 22.3599C15.1242 22.4118 15.2282 22.4638 15.323 22.5243C15.4102 22.5769 15.4968 22.6286 15.5748 22.6888C15.6788 22.7841 15.8002 22.8368 15.9467 22.871C15.9437 22.8582 15.9381 22.8462 15.9302 22.8358C16.1725 22.9486 16.4239 23.0699 16.6141 23.1647C15.7133 23.1824 14.752 23.1998 13.7558 23.2173C13.7558 23.0528 13.7472 22.8966 13.7472 22.7318C13.7472 22.6628 13.7643 22.6019 13.7554 22.5325C13.7291 22.1346 13.7291 21.7353 13.6774 21.3452C13.6258 20.9295 13.6258 20.522 13.6347 20.1053C13.6429 19.8807 13.6258 19.6469 13.6169 19.4212C13.6169 19.118 13.6169 18.8227 13.6261 18.5201C13.6261 18.4767 13.6435 18.4421 13.661 18.3984H13.6873C13.6955 18.4162 13.6873 18.4421 13.7038 18.451C13.7301 18.4773 13.7735 18.5201 13.791 18.5115C13.8427 18.4767 13.9207 18.4425 13.9381 18.3899C13.9809 18.2863 13.9987 18.1734 13.9987 18.0695C13.9987 17.9919 14.0335 17.9399 14.0678 17.8876C14.0855 17.8613 14.0941 17.8357 14.1115 17.8011C14.077 17.7748 14.0424 17.7577 13.999 17.7232C14.0339 17.6278 14.0253 17.515 14.1553 17.4634C14.1724 17.4545 14.1724 17.4108 14.1816 17.3851C14.1899 17.315 14.1981 17.2371 14.2073 17.168C14.2244 17.1943 14.2336 17.2026 14.2501 17.2197C14.255 17.2102 14.261 17.2014 14.2679 17.1934C14.2679 17.1592 14.2593 17.0898 14.2679 17.0898C14.3719 17.0723 14.3284 16.9598 14.3804 16.9079C14.3887 16.8987 14.3715 16.8727 14.3715 16.8553C14.3715 16.8382 14.3715 16.8125 14.3801 16.8125C14.5009 16.7862 14.4838 16.6563 14.5618 16.5954C14.5881 16.578 14.5963 16.5527 14.6309 16.5089C14.7 16.63 14.5789 16.6908 14.5703 16.7773C14.7171 16.6908 14.7606 16.483 14.674 16.4221C14.7086 16.3958 14.7431 16.3616 14.7694 16.3267C14.8649 16.2228 14.9682 16.1274 15.0551 16.0235C15.116 15.9459 15.1506 15.8505 15.2111 15.7726C15.246 15.7291 15.3151 15.6946 15.3671 15.6683C15.5231 15.5821 15.6699 15.4868 15.7653 15.3394C15.7828 15.322 15.8088 15.3049 15.8345 15.2875C15.8608 15.27 15.9128 15.27 15.9213 15.244C15.9302 15.2269 15.9042 15.1835 15.8868 15.1575C15.921 15.1401 15.9559 15.1056 16.025 15.0707C15.9987 15.1227 15.9905 15.1575 15.973 15.1924L16.0158 15.2352C16.0941 15.1746 16.2152 15.1056 16.2932 15.0536C16.2932 15.0454 16.2498 15.0109 16.2498 15.0109C16.1981 15.0372 16.1201 15.0799 16.0425 15.1148C16.0589 15.0885 16.0589 15.0714 16.0688 15.0628C16.1896 14.9849 16.3107 14.9069 16.4407 14.8458C16.7435 14.7076 17.0469 14.5688 17.35 14.4389C17.402 14.4126 17.4718 14.4304 17.532 14.4304C17.5577 14.4304 17.5748 14.4304 17.6011 14.4218C17.7394 14.3784 17.8783 14.335 18.0168 14.3001C18.077 14.283 18.1462 14.2745 18.2077 14.2745C18.4667 14.2827 18.7267 14.2827 18.9864 14.3001C19.0989 14.3087 19.2029 14.3347 19.3069 14.3692C19.4403 14.4155 19.5704 14.4704 19.6966 14.5336C19.8437 14.6126 19.9823 14.6987 20.1212 14.7941C20.3723 14.9586 20.6059 15.1408 20.8571 15.2881C21.0996 15.4355 21.2902 15.6348 21.4462 15.8604C21.6371 16.1287 21.8533 16.3715 21.9398 16.7007L22.0695 17.273C22.0958 17.3769 22.1564 17.4808 22.1304 17.6018C22.0866 17.8189 22.0521 18.0442 22.0175 18.2609C22.0004 18.3481 21.983 18.4352 21.9918 18.5208C22.0083 18.7904 21.9046 19.024 21.801 19.2667C21.7661 19.3446 21.7141 19.4229 21.671 19.5094C21.6922 19.5244 21.7154 19.5361 21.7401 19.5443L21.8181 19.3884C21.827 19.3884 21.827 19.3884 21.8355 19.3972C21.7921 19.5183 21.7575 19.6485 21.7137 19.7699C21.6104 20.0386 21.5064 20.3158 21.3764 20.5756C21.3073 20.723 21.1855 20.8443 21.0993 20.9835C21.0131 21.1045 20.9436 21.2344 20.8571 21.3472C20.7791 21.4426 20.7014 21.538 20.5971 21.607C20.3634 21.7804 20.1208 21.9537 19.8697 22.0925C19.7141 22.1879 19.5321 22.2398 19.3589 22.2832L19.3612 22.2822ZM14.7448 21.8218L14.7362 21.8307C14.7181 21.8221 14.6921 21.8136 14.675 21.7961L14.467 21.4837C14.4499 21.4581 14.4407 21.4321 14.4499 21.3975C14.5453 21.5449 14.6408 21.6837 14.7444 21.8218H14.7448ZM20.1324 23.0091C20.5217 22.8446 20.8423 22.6111 21.1362 22.3421C21.1799 22.2987 21.223 22.2556 21.275 22.2204C21.639 21.9955 21.9069 21.6833 22.1498 21.3367C22.4269 20.9381 22.6089 20.4875 22.8344 20.0629C22.8497 20.0301 22.8669 19.9983 22.8861 19.9675C22.8686 20.9555 22.9815 21.9261 23.1112 22.9055C22.1327 22.94 21.1365 22.9746 20.132 23.0094L20.1324 23.0091ZM28.9141 22.7493C28.9055 22.7667 28.8878 22.7841 28.8795 22.8019C28.8707 22.7841 28.8707 22.7581 28.8621 22.723C28.8101 22.8621 28.6975 22.7927 28.6195 22.7927C28.1522 22.8016 27.6756 22.8016 27.2076 22.8016C26.7574 22.8016 26.2986 22.8016 25.8484 22.8095C25.701 22.8095 25.545 22.844 25.3975 22.8529C25.0427 22.87 24.6876 22.8792 24.3325 22.8874C24.3062 22.8874 24.2805 22.8446 24.2371 22.8098C24.2218 22.8371 24.2044 22.8632 24.1851 22.8877C24.1758 22.8706 24.1587 22.8535 24.1413 22.8275C24.1327 22.8539 24.1238 22.8795 24.115 22.8966H24.09C24.0725 22.7756 24.0379 22.6631 24.0379 22.5414C24.0379 22.2816 24.0643 22.0218 24.0725 21.7613C24.0814 21.6403 24.0725 21.5278 24.0725 21.4146C24.1074 21.441 24.1334 21.4584 24.1679 21.4837C24.1851 21.4498 24.2025 21.4238 24.22 21.3982C24.22 21.3982 24.2025 21.389 24.1851 21.3719C24.2015 21.363 24.2193 21.3456 24.2193 21.337C24.2278 21.3107 24.2456 21.2851 24.2456 21.268C24.2456 21.2071 24.2278 21.1551 24.2193 21.1035C24.2278 21.1035 24.2364 21.1035 24.2456 21.0943L24.2973 21.3541H24.3236C24.2887 21.2939 24.4013 21.2416 24.3062 21.1726C24.2976 21.1637 24.3147 21.1117 24.3147 21.0858C24.2884 21.0341 24.2719 20.9822 24.2456 20.9128C24.2542 20.9042 24.2802 20.8953 24.3062 20.8864C24.2716 20.8693 24.2456 20.8522 24.2196 20.8437C24.3062 20.7654 24.3062 20.722 24.2282 20.6355C24.2459 20.6273 24.2631 20.6273 24.2631 20.6191C24.2631 20.5408 24.2631 20.4628 24.2459 20.3855C24.2285 20.2981 24.2723 20.1948 24.142 20.1422C24.1505 20.1685 24.1594 20.1856 24.1765 20.2112C24.1765 20.2112 24.1502 20.2201 24.1245 20.2375C24.0119 20.1333 24.0817 19.9942 24.0554 19.8386C24.116 19.856 24.1594 19.8735 24.2025 19.8912C24.1851 19.8301 24.1419 19.7607 24.1159 19.6827H24.0807V19.1104C24.0807 19.1193 24.1413 19.1193 24.1762 19.1282C24.1762 19.1193 24.1844 19.1108 24.1844 19.1019C24.1581 19.0674 24.1235 19.0328 24.089 18.9894L24.1064 18.972C24.0373 18.8858 24.0718 18.7648 24.0718 18.7385V18.1317C24.1587 18.2185 24.0291 18.331 24.1587 18.3829V18.2965H24.1498C24.1413 18.1665 24.1413 18.0366 24.1327 17.9064H24.1156C24.1067 17.9241 24.1067 17.9327 24.0978 17.9501H24.0807L24.1327 15.8788C24.2193 15.9913 24.3144 16.0959 24.375 16.2077C24.5744 16.5721 24.8341 16.8842 25.0766 17.2134C25.2846 17.4996 25.4749 17.8113 25.6657 18.106C25.8994 18.4612 26.1245 18.8164 26.3585 19.1716C26.5316 19.4407 26.714 19.7094 26.895 19.9695C27.0595 20.203 27.2333 20.4286 27.4064 20.6542C27.5532 20.8536 27.7092 21.0529 27.8563 21.2522C28.0298 21.4949 28.2029 21.7373 28.3763 21.9714C28.4626 22.0925 28.558 22.2138 28.6528 22.3352C28.7054 22.4043 28.7831 22.4569 28.8351 22.4996C28.8269 22.4996 28.818 22.4996 28.8009 22.4911C28.8272 22.5256 28.8437 22.5516 28.8614 22.569C28.9569 22.621 28.9654 22.673 28.9134 22.7512L28.9141 22.7493ZM29.3558 20.5832V20.5224C29.3558 20.5395 29.3643 20.5651 29.3558 20.5829V20.5832ZM29.6503 16.7615C29.6414 16.7615 29.5898 16.7089 29.5812 16.7004C29.5723 16.7267 29.5812 16.7523 29.5638 16.7872C29.5549 16.7615 29.4947 16.7701 29.4947 16.7444C29.4858 16.8655 29.5463 16.9868 29.5374 17.1082C29.5638 17.0907 29.6674 17.0819 29.6934 17.0562C29.7023 17.0648 29.7198 17.0733 29.7283 17.0733C29.5549 17.2036 29.5983 17.3331 29.6763 17.4811C29.6934 17.5153 29.7454 17.5847 29.6934 17.6541C29.6763 17.6716 29.7023 17.7232 29.7109 17.7669H29.7362V17.7834L29.6582 17.8097C29.6411 17.7834 29.5374 17.7321 29.5374 17.688V18.1307C29.624 18.157 29.624 18.278 29.6586 18.3389C29.6737 18.3177 29.6856 18.2945 29.6938 18.2698L29.7027 18.2777C29.6938 18.3297 29.6852 18.3816 29.6678 18.4339C29.6507 18.5115 29.6332 18.5809 29.625 18.6589C29.625 18.6674 29.6414 18.6852 29.6414 18.6934C29.5467 18.9105 29.5987 19.1525 29.5641 19.3775C29.5378 19.5419 29.5641 19.7163 29.5467 19.8893C29.5289 20.0366 29.494 20.1925 29.4598 20.3398C29.4509 20.3661 29.4334 20.3744 29.3907 20.3918C29.4078 20.2879 29.3992 20.2185 29.3818 20.1231C29.3726 20.1231 29.26 20.0626 29.2511 20.0626C29.2511 20.1843 29.3202 20.3487 29.3466 20.4868C29.3202 20.4783 29.2166 20.4178 29.2083 20.4178C29.1906 20.5217 29.1906 20.6605 29.182 20.773C29.1731 20.8598 29.0954 20.9374 29.0866 21.0328C29.0866 21.0854 29.1471 21.1196 29.1386 21.2065H29.2077C29.2077 21.0335 29.286 20.8776 29.286 20.6954H29.3117C29.3206 20.7128 29.3466 20.7302 29.338 20.7388C29.3206 20.8342 29.2853 20.9381 29.2946 21.0335C29.2946 21.0854 29.3373 21.1374 29.3209 21.1979C29.3031 21.2505 29.2946 21.3022 29.2857 21.3801C29.2768 21.3367 29.2682 21.3196 29.2682 21.2936C29.2597 21.2936 29.1817 21.2847 29.1728 21.2847C29.1642 21.3367 29.2337 21.3887 29.2248 21.4321C29.2162 21.4406 29.2077 21.4406 29.1902 21.4495L28.9046 21.0331C28.6788 20.7042 28.4537 20.3744 28.2286 20.0366C28.1702 19.9539 28.1179 19.8671 28.0722 19.7768C27.8044 19.3156 27.5064 18.8725 27.1803 18.4504C26.9295 18.13 26.7294 17.7827 26.4958 17.4456C26.2799 17.125 26.0633 16.8128 25.8468 16.4918C25.7688 16.3882 25.6736 16.2929 25.6042 16.1801C25.3794 15.8249 25.1796 15.4608 24.9552 15.1056C24.7643 14.8106 24.557 14.5244 24.3575 14.2386C24.2884 14.1432 24.2193 14.039 24.1495 13.9351C24.1387 13.917 24.1328 13.8963 24.1324 13.8752C24.115 13.6845 24.0975 13.4937 24.089 13.3118C24.089 13.1385 24.1064 12.9652 24.1064 12.783V12.6271C24.1064 12.5837 24.1146 12.5491 24.1146 12.5054C24.1229 12.4972 24.1317 12.4797 24.1403 12.4712C23.8892 12.4712 23.6292 12.462 23.3781 12.4712C23.2135 12.4794 23.127 12.41 23.0144 12.2886C22.6853 11.916 22.4427 11.4914 22.1571 11.0928C21.8877 10.7135 21.6134 10.3378 21.3343 9.96571C21.1088 9.66248 20.8834 9.36779 20.6586 9.06456C20.4072 8.71791 20.1649 8.37126 19.9049 8.02461C19.5899 7.6067 19.2723 7.19076 18.9522 6.77681C18.8041 6.58606 18.6395 6.40418 18.4749 6.20455C18.5878 6.22231 18.6922 6.23941 18.7958 6.24829L19.2118 6.2746C19.5235 6.29992 19.8352 6.31735 20.1465 6.36011C20.4065 6.3953 20.6665 6.44727 20.9351 6.49035C21.5071 6.58573 22.0698 6.74195 22.6155 6.92382C22.9361 7.02775 23.2474 7.16654 23.5601 7.29645C24.2611 7.58259 24.9282 7.92924 25.5864 8.29299C25.7938 8.40579 25.9155 8.58767 26.0709 8.75244C26.2963 8.98661 26.5218 9.22045 26.738 9.46284C26.9888 9.74897 27.2225 10.0437 27.4653 10.3383C27.6816 10.5982 27.9064 10.858 28.1236 11.1185C28.1927 11.1964 28.2453 11.2918 28.3052 11.3783C28.4435 11.5865 28.5998 11.7861 28.7209 12.0111C28.8071 12.1762 28.8591 12.3669 28.9197 12.5488C29.0059 12.8175 29.0928 13.0773 29.1797 13.346C29.2399 13.5453 29.2916 13.7538 29.335 13.961C29.3699 14.1002 29.3614 14.2472 29.4042 14.3853C29.4568 14.5682 29.4042 14.7668 29.4568 14.9494C29.465 14.9668 29.4733 14.9928 29.4825 15.0102C29.517 15.0444 29.543 15.0793 29.491 15.1312C29.4828 15.1398 29.4828 15.174 29.491 15.2003C29.5088 15.1832 29.5174 15.1658 29.5348 15.1398C29.5348 15.1572 29.543 15.1661 29.543 15.1743C29.543 15.2085 29.5342 15.2434 29.543 15.2779C29.543 15.295 29.5602 15.3207 29.5687 15.3384C29.5862 15.3207 29.6033 15.3121 29.6378 15.2858C29.7158 15.5808 29.7247 15.8755 29.7247 16.1787C29.7247 16.4649 29.7764 16.751 29.6556 17.0283C29.6813 16.9329 29.6207 16.8457 29.6467 16.7592L29.6503 16.7615Z" fill="white"></path>
<path fill-rule="evenodd" clip-rule="evenodd" d="M24.1166 20.1318C24.1248 20.1318 24.1337 20.1407 24.1337 20.1407L24.1248 20.1308C24.1248 20.1226 24.1248 20.1226 24.1163 20.1308L24.1166 20.1318ZM25.4847 28.6948C25.3893 28.7638 25.2938 28.8247 25.1727 28.8507C25.1635 28.8421 25.1635 28.8332 25.155 28.8243C25.2504 28.7638 25.3541 28.7033 25.4495 28.6425C25.4584 28.6589 25.4758 28.6767 25.4844 28.6941L25.4847 28.6948ZM9.24559 16.9508C9.34104 16.8301 9.43648 16.7088 9.53982 16.5874C9.54805 16.596 9.61716 16.6137 9.62605 16.6219C9.53061 16.7436 9.40061 16.9081 9.30549 17.038C9.28772 17.0205 9.26172 16.96 9.24461 16.9512L9.24559 16.9508ZM6.78547 21.1984C6.71635 21.0511 6.64724 20.8949 6.57812 20.7478C6.60222 20.7326 6.62838 20.7208 6.6558 20.713C6.75124 20.8511 6.79402 21.0156 6.8638 21.1636C6.8638 21.1636 6.79468 21.1981 6.7858 21.1981L6.78547 21.1984ZM8.99448 17.038C8.94248 17.1163 8.89048 17.2031 8.83848 17.2814C8.82992 17.2721 8.73448 17.3156 8.72592 17.307C8.77792 17.2291 8.90759 17.0899 8.95959 17.0123C8.96848 17.0209 8.97704 17.0298 8.99448 17.0386V17.038ZM24.5583 29.0506C24.5665 29.0506 24.5665 29.0421 24.5754 29.0421C24.6359 29.0506 24.7051 29.0592 24.7745 29.0592C24.6613 29.1371 24.5918 29.1282 24.5573 29.0506H24.5583ZM9.01094 17.4021C9.02015 17.3757 9.03726 17.3501 9.05471 17.3241C9.07182 17.3241 9.09749 17.3152 9.09749 17.3152C9.13271 17.2547 9.13271 17.2113 9.16726 17.1593C9.15871 17.1508 9.14982 17.1508 9.14094 17.1419C9.08926 17.1774 9.03726 17.2208 8.98526 17.2554C9.00271 17.2725 9.00271 17.2817 9.00271 17.2988C8.93359 17.2899 8.90726 17.3251 8.87271 17.4198C8.86415 17.4461 8.82071 17.4547 8.77726 17.4889C8.76871 17.5066 8.76015 17.5501 8.74271 17.5931L8.75159 17.6024C8.73415 17.6198 8.70815 17.6287 8.70815 17.6287C8.65615 17.6803 8.59559 17.724 8.54359 17.7757C8.53504 17.802 8.52648 17.8276 8.52648 17.8536C8.58737 17.7931 8.69104 17.6803 8.76904 17.6109L8.77792 17.6198C8.81248 17.5678 8.83848 17.5159 8.87337 17.4639C8.88159 17.4724 8.88159 17.481 8.89048 17.4902C8.86415 17.5593 8.83848 17.6369 8.81248 17.7063C8.79438 17.7148 8.76838 17.7326 8.76838 17.7237C8.73382 17.75 8.70782 17.7842 8.67294 17.8102L8.51726 17.9141C8.43071 17.9921 8.34415 18.0611 8.24871 18.1394C8.18815 18.2348 8.12759 18.3213 8.05782 18.4341C8.16215 18.4078 8.18815 18.4515 8.17959 18.5384C8.30071 18.5555 8.30959 18.4604 8.34415 18.391C8.35271 18.3733 8.36159 18.3384 8.37871 18.3299C8.45671 18.2608 8.54326 18.2003 8.62982 18.1309C8.64726 18.1134 8.64726 18.0783 8.64726 18.0526C8.64726 18.044 8.60349 18.044 8.57749 18.0352C8.65549 17.9483 8.76838 17.8017 8.84605 17.7063C8.88949 17.68 8.93261 17.6451 8.93261 17.6191C8.92405 17.5237 8.98461 17.4981 9.05438 17.4632C9.01949 17.4369 9.01061 17.4116 9.01061 17.403L9.01094 17.4021Z" fill="white"></path>
<path fill-rule="evenodd" clip-rule="evenodd" d="M9.18386 17.3069C9.1493 17.3675 9.11475 17.4194 9.08019 17.4803L9.02819 17.454C8.99363 17.6529 8.87219 17.8263 8.75107 17.8608C8.78563 17.8782 8.82019 17.8957 8.84652 17.8871C8.87219 17.8782 8.8893 17.8345 8.90675 17.8088L9.14042 17.4707L9.21875 17.3405L9.18419 17.306L9.18386 17.3069ZM6.30016 21.1115C6.34361 21.1115 6.38705 21.1201 6.43839 21.1201C6.43839 21.0855 6.48216 21.0938 6.48216 21.0596H6.50849C6.50849 21.103 6.51705 21.1375 6.51705 21.1813H6.33538C6.32649 21.1724 6.29193 21.1201 6.30049 21.1115H6.30016ZM6.23105 20.7129C6.20472 20.6866 6.16193 20.661 6.16193 20.635C6.15305 20.6008 6.17905 20.5577 6.20472 20.5143C6.22249 20.5748 6.23105 20.6267 6.24816 20.6876C6.23928 20.6958 6.23072 20.7047 6.23072 20.7132L6.23105 20.7129ZM6.44761 20.1581C6.48216 20.2456 6.51672 20.3409 6.55161 20.4278C6.52704 20.4359 6.50376 20.4476 6.48249 20.4623C6.44793 20.3755 6.40449 20.2801 6.36993 20.1936C6.39333 20.1769 6.41986 20.165 6.44793 20.1587L6.44761 20.1581ZM25.7271 28.4441C25.7699 28.427 25.8219 28.4178 25.8917 28.4013C25.8133 28.4615 25.7528 28.5049 25.7008 28.5569C25.6919 28.5483 25.6833 28.5395 25.6744 28.5395C25.6919 28.5049 25.7093 28.479 25.7271 28.4441ZM15.0816 10.1313C15.1333 10.0964 15.177 10.0704 15.2287 10.0359L15.2458 10.053C15.1932 10.1221 15.1504 10.1911 15.0895 10.2783C15.0809 10.2181 15.0809 10.1829 15.072 10.1401C15.0635 10.1401 15.072 10.1401 15.0809 10.1316L15.0816 10.1313ZM17.619 14.5163C17.697 14.4815 17.775 14.4473 17.8702 14.4035C17.8616 14.4555 17.8616 14.4904 17.8616 14.5252C17.8337 14.5151 17.8044 14.5091 17.7747 14.5075C17.7227 14.5163 17.6273 14.5857 17.5838 14.5943C17.5756 14.5943 17.6187 14.5252 17.6187 14.5163H17.619ZM24.1158 21.8657C24.1329 21.9522 24.2974 21.9956 24.1329 22.0821C24.1592 22.1002 24.1845 22.1084 24.2105 22.1261C24.2105 22.135 24.202 22.1525 24.1934 22.161C24.176 22.1692 24.1414 22.1867 24.1243 22.1775C24.1154 22.1775 24.098 22.1432 24.098 22.1258C24.098 22.0479 24.1069 21.9699 24.1154 21.866L24.1158 21.8657Z" fill="white"></path>
</svg>
