<svg width="124" height="72" viewBox="0 0 124 72" fill="none" xmlns="http://www.w3.org/2000/svg">
<path d="M15.078 66.9542L15.6125 66.1091H15.6125L15.078 66.9542ZM4.56525 54.7712L3.65794 55.1917L3.66105 55.1984L3.66425 55.2051L4.56525 54.7712ZM4.56525 16.552L3.66217 16.1225L3.65993 16.1273L4.56525 16.552ZM15.078 4.27075L15.6125 5.11594L15.078 4.27075ZM45.5355 4.27075L45.001 5.11594L45.5355 4.27075ZM55.95 16.552L55.0427 16.9725L55.0458 16.9792L55.049 16.9858L55.95 16.552ZM55.95 54.7712L55.0469 54.3417L55.0447 54.3465L55.95 54.7712ZM45.5355 66.9542L45.001 66.1091L45.5355 66.9542ZM40.1318 52.315L39.302 51.7568L39.295 51.7673L40.1318 52.315ZM40.1318 18.91L39.295 19.4577L39.302 19.4682L40.1318 18.91ZM20.4818 18.91L19.652 18.3518L19.6451 18.3623L20.4818 18.91ZM20.4818 52.315L19.645 52.8627L19.652 52.8732L20.4818 52.315ZM30.3068 70.179C24.7814 70.179 19.8935 68.8162 15.6125 66.1091L14.5435 67.7994C19.1705 70.7253 24.4351 72.179 30.3068 72.179V70.179ZM15.6125 66.1091C11.3349 63.4041 7.94933 59.4946 5.46625 54.3374L3.66425 55.2051C6.29017 60.6589 9.91314 64.8714 14.5435 67.7994L15.6125 66.1091ZM5.47256 54.3508C3.05791 49.1402 1.83175 42.9041 1.83175 35.6125H-0.16825C-0.16825 43.1239 1.09459 49.6603 3.65794 55.1917L5.47256 54.3508ZM1.83175 35.6125C1.83175 28.3204 3.05808 22.1191 5.47058 16.9767L3.65993 16.1273C1.09442 21.5959 -0.16825 28.1016 -0.16825 35.6125H1.83175ZM5.46832 16.9815C7.9524 11.7585 11.338 7.81891 15.6125 5.11594L14.5435 3.42555C9.91 6.35558 6.2871 10.6034 3.66219 16.1225L5.46832 16.9815ZM15.6125 5.11594C19.8935 2.4088 24.7814 1.046 30.3068 1.046V-0.954001C24.4351 -0.954001 19.1705 0.499694 14.5435 3.42555L15.6125 5.11594ZM30.3068 1.046C35.8321 1.046 40.72 2.4088 45.001 5.11594L46.07 3.42555C41.443 0.499694 36.1784 -0.954001 30.3068 -0.954001V1.046ZM45.001 5.11594C49.273 7.81732 52.6243 11.7537 55.0427 16.9725L56.8573 16.1315C54.2977 10.6083 50.706 6.35717 46.07 3.42555L45.001 5.11594ZM55.049 16.9858C57.5238 22.1258 58.7818 28.3237 58.7818 35.6125H60.7818C60.7818 28.0983 59.4852 21.5892 56.851 16.1182L55.049 16.9858ZM58.7818 35.6125C58.7818 42.9008 57.524 49.1336 55.0469 54.3417L56.8531 55.2008C59.485 49.6669 60.7818 43.1272 60.7818 35.6125H58.7818ZM55.0447 54.3465C52.6273 59.4994 49.2761 63.4057 45.001 66.1091L46.07 67.7994C50.7029 64.8698 54.2947 60.6541 56.8553 55.196L55.0447 54.3465ZM45.001 66.1091C40.72 68.8162 35.8321 70.179 30.3068 70.179V72.179C36.1784 72.179 41.443 70.7253 46.07 67.7994L45.001 66.1091ZM30.3068 58.7188C34.847 58.7188 38.4317 56.7382 40.9685 52.8627L39.295 51.7673C37.1158 55.0968 34.1505 56.7188 30.3068 56.7188V58.7188ZM40.9615 52.8732C43.551 49.0239 44.767 43.2147 44.767 35.6125H42.767C42.767 43.0753 41.5595 48.4011 39.302 51.7568L40.9615 52.8732ZM44.767 35.6125C44.767 28.0103 43.551 22.2011 40.9615 18.3518L39.302 19.4682C41.5595 22.8239 42.767 28.1497 42.767 35.6125H44.767ZM40.9685 18.3623C38.4317 14.4868 34.847 12.5062 30.3068 12.5062V14.5062C34.1505 14.5062 37.1158 16.1282 39.295 19.4577L40.9685 18.3623ZM30.3068 12.5062C25.8272 12.5062 22.2498 14.4903 19.652 18.3518L21.3115 19.4682C23.5607 16.1247 26.5333 14.5062 30.3068 14.5062V12.5062ZM19.6451 18.3623C17.1272 22.2091 15.9448 28.0135 15.9448 35.6125H17.9448C17.9448 28.1465 19.1203 22.8159 21.3185 19.4577L19.6451 18.3623ZM15.9448 35.6125C15.9448 43.2115 17.1272 49.0159 19.6451 52.8627L21.3185 51.7673C19.1203 48.4091 17.9448 43.0785 17.9448 35.6125H15.9448ZM19.652 52.8732C22.2498 56.7347 25.8272 58.7188 30.3068 58.7188V56.7188C26.5333 56.7188 23.5607 55.1003 21.3115 51.7568L19.652 52.8732ZM93.4669 1.225H94.4669V0.224996H93.4669V1.225ZM93.4669 70V71H94.4669V70H93.4669ZM77.5504 70H76.5504V71H77.5504V70ZM77.5504 13.9975H78.5504V12.9975H77.5504V13.9975ZM63.7954 13.9975H62.7954V14.9975H63.7954V13.9975ZM63.7954 1.225V0.224996H62.7954V1.225H63.7954ZM92.4669 1.225V70H94.4669V1.225H92.4669ZM93.4669 69H77.5504V71H93.4669V69ZM78.5504 70V13.9975H76.5504V70H78.5504ZM77.5504 12.9975H63.7954V14.9975H77.5504V12.9975ZM64.7954 13.9975V1.225H62.7954V13.9975H64.7954ZM63.7954 2.22499H93.4669V0.224996H63.7954V2.22499ZM107.674 68.035L108.381 67.3279L107.674 68.035ZM107.674 54.3783L108.354 55.111L108.361 55.1046L108.368 55.0981L107.674 54.3783ZM121.233 54.3783L120.538 55.0981L120.545 55.1046L120.552 55.111L121.233 54.3783ZM121.233 68.035L120.525 67.3279L121.233 68.035ZM114.453 69.786C112.022 69.786 110.02 68.9671 108.381 67.3279L106.967 68.7421C108.996 70.7709 111.513 71.786 114.453 71.786V69.786ZM108.381 67.3279C106.747 65.6937 105.923 63.6611 105.923 61.1575H103.923C103.923 64.1559 104.933 66.7083 106.967 68.7421L108.381 67.3279ZM105.923 61.1575C105.923 58.5806 106.751 56.6001 108.354 55.111L106.994 53.6455C104.929 55.5624 103.923 58.1014 103.923 61.1575H105.923ZM108.368 55.0981C110.005 53.5198 112.011 52.7255 114.453 52.7255V50.7255C111.524 50.7255 109.011 51.6997 106.98 53.6584L108.368 55.0981ZM114.453 52.7255C116.895 52.7255 118.902 53.5198 120.538 55.0981L121.927 53.6584C119.895 51.6997 117.382 50.7255 114.453 50.7255V52.7255ZM120.552 55.111C122.156 56.6001 122.984 58.5806 122.984 61.1575H124.984C124.984 58.1014 123.977 55.5624 121.913 53.6455L120.552 55.111ZM122.984 61.1575C122.984 63.6611 122.16 65.6937 120.525 67.3279L121.94 68.7421C123.973 66.7083 124.984 64.1559 124.984 61.1575H122.984ZM120.525 67.3279C118.886 68.9671 116.884 69.786 114.453 69.786V71.786C117.394 71.786 119.911 70.7709 121.94 68.7421L120.525 67.3279Z" fill="#8468F6"/>
</svg>
