<svg width="120" height="80" viewBox="0 0 120 80" fill="none" xmlns="http://www.w3.org/2000/svg">
<g clip-path="url(#clip0_530_79)">
<path d="M59.9988 45.4033C59.2502 45.4033 58.5019 45.2608 57.9514 44.9752L11.1362 27L2.78417 27C0.366149 27 -0.898356 28.3645 0.736649 29.2106L57.9528 52.572C58.5034 52.857 59.2519 53 60.0002 53C60.7488 53 61.4974 52.8576 62.0479 52.572L119.264 29.2106C120.898 28.3645 119.634 27 117.216 27L108.864 27L62.0494 44.9752C61.789 45.1104 61.4722 45.2182 61.1191 45.2919C60.7661 45.3655 60.3845 45.4036 59.9988 45.4033Z" fill="#4D585B"/>
</g>
<defs>
<clipPath id="clip0_530_79">
<rect width="80" height="120" fill="white" transform="translate(0 80) rotate(-90)"/>
</clipPath>
</defs>
</svg>
