<svg width="56" height="56" viewBox="0 0 56 56" fill="none" xmlns="http://www.w3.org/2000/svg">
<path d="M55.5 28C55.5 43.1878 43.1878 55.5 28 55.5C12.8122 55.5 0.5 43.1878 0.5 28C0.5 12.8122 12.8122 0.5 28 0.5C43.1878 0.5 55.5 12.8122 55.5 28Z" stroke="#947BFB"/>
<path d="M49.5117 28C49.5117 39.8741 39.8858 49.5 28.0117 49.5C16.1376 49.5 6.51172 39.8741 6.51172 28C6.51172 16.1259 16.1376 6.5 28.0117 6.5C39.8858 6.5 49.5117 16.1259 49.5117 28Z" stroke="#947BFB"/>
<path d="M20.6043 36.0068L19 18H36.6373L35.0331 35.9971L27.8041 38" fill="#947BFB"/>
<path d="M27.8203 36.4684V19.4775H35.0298L33.6541 34.8398" fill="#AD9AFC"/>
<path d="M22.2773 21.6807H27.8194V23.8878H24.6983L24.9025 26.1483H27.8194V28.3506H22.8802L22.2773 21.6807ZM22.9774 29.459H25.1942L25.3498 31.2237L27.8194 31.8849V34.1892L23.2885 32.9252" fill="#10164A"/>
<path d="M33.3409 21.6807H27.8086V23.8878H33.1367L33.3409 21.6807ZM32.9374 26.1483H27.8086V28.3554H30.531L30.2733 31.2237L27.8086 31.8849V34.1795L32.3297 32.9252" fill="#10164A"/>
</svg>
