<svg width="958" height="1294" xmlns="http://www.w3.org/2000/svg">
    <path d="M865.118 509.421c42.284-45.2 57.927-85.604 57.999-147.5.083-70.344-30.983-108.731-74.5-164-56.518-71.781-110.278-94.594-194.5-130C421.275-29.963 72.43-42.283 15.129 167.96c-44.567 163.292 7.693 280.735 280.989 341.462l154.5 39s81.499 15.001 101.5 18.5c0 0 100.564 22.022 163.5 10.5 63.09-11.55 105.683-21.161 149.5-68ZM886.499 1235.5c65.1-60.6 82.145-131.25 64.5-218.42-15.024-74.219-56.013-106.928-111-158.997-87.548-82.901-161.469-109.792-280.5-129C383.34 700.657 173.8 630.758 116.499 841c-44.567 163.29 32.784 331.2 192 394.5 46.123 18.34 125 23 125 23s76.021 21.63 126 28.5c54.794 7.53 141.5 6 141.5 6s129.986-5.83 185.5-57.5Z"/>
</svg>
