<svg width="145" height="46" xmlns="http://www.w3.org/2000/svg">
    <path d="M25.1 14.4 1.88 24l23.22 9.6v1.32L.5 24.66v-1.32l24.6-10.26v1.32ZM62.934.48V45h-1.2v-9.48c-1.04 2.96-2.8 5.32-5.28 7.08-2.48 1.72-5.34 2.58-8.58 2.58-2.8 0-5.36-.66-7.68-1.98-2.28-1.36-4.08-3.24-5.4-5.64-1.32-2.4-1.98-5.1-1.98-8.1s.66-5.68 1.98-8.04c1.32-2.4 3.12-4.26 5.4-5.58 2.32-1.36 4.88-2.04 7.68-2.04 3.2 0 6.04.88 8.52 2.64 2.52 1.72 4.3 4.04 5.34 6.96V.48h1.2Zm-15.06 43.56c2.6 0 4.96-.62 7.08-1.86 2.12-1.24 3.78-2.96 4.98-5.16 1.2-2.24 1.8-4.76 1.8-7.56s-.6-5.3-1.8-7.5c-1.2-2.24-2.86-3.96-4.98-5.16-2.12-1.24-4.48-1.86-7.08-1.86-2.6 0-4.96.62-7.08 1.86-2.12 1.2-3.78 2.92-4.98 5.16-1.2 2.2-1.8 4.7-1.8 7.5s.6 5.32 1.8 7.56c1.2 2.2 2.86 3.92 4.98 5.16 2.12 1.24 4.48 1.86 7.08 1.86ZM76.728 13.98h1.2V45h-1.2V13.98Zm.6-8.58c-.44 0-.82-.16-1.14-.48-.28-.32-.42-.68-.42-1.08 0-.44.14-.8.42-1.08.32-.32.7-.48 1.14-.48.4 0 .76.16 1.08.48.32.28.48.64.48 1.08 0 .4-.16.76-.48 1.08-.32.32-.68.48-1.08.48ZM114.948 13.98 100.668 45h-1.2l-14.28-31.02h1.38l13.5 29.64 13.5-29.64h1.38ZM144.397 23.34v1.32l-24.6 10.26V33.6l23.22-9.6-23.22-9.6v-1.32l24.6 10.26Z"/>
</svg>
