<svg width="58" height="76" xmlns="http://www.w3.org/2000/svg">
    <path d="M8.2 33.12c0 1.44-.213 2.534-.64 3.28-.373.747-1.013 1.307-1.92 1.68.907.373 1.547.934 1.92 1.68.427.747.64 1.84.64 3.28v24.32c0 4.427 2.08 6.64 6.24 6.64H17v1.52h-2c-5.6 0-8.4-2.72-8.4-8.16V43.04c0-2.826-1.2-4.24-3.6-4.24H.2v-1.52H3c2.4 0 3.6-1.386 3.6-4.16V8.8C6.6 3.36 9.4.64 15 .64h2v1.52h-2.56c-4.16 0-6.24 2.213-6.24 6.64v24.32ZM57.785 37.28v1.52h-2.8c-2.4 0-3.6 1.414-3.6 4.24v24.32c0 5.44-2.8 8.16-8.4 8.16h-2V74h2.56c4.16 0 6.24-2.213 6.24-6.64V43.04c0-1.44.186-2.533.56-3.28.426-.746 1.093-1.306 2-1.68-.907-.373-1.574-.933-2-1.68-.374-.746-.56-1.84-.56-3.28V8.8c0-4.427-2.08-6.64-6.24-6.64h-2.56V.64h2c5.6 0 8.4 2.72 8.4 8.16v24.32c0 2.774 1.2 4.16 3.6 4.16h2.8Z"/>
</svg>
