<svg width="2915" height="2008" xmlns="http://www.w3.org/2000/svg">
    <path d="M2523 543.502c144.65 120.648 246.54 186.978 321 359.999 73.01 169.659 92.24 292.979 43 470.999-68.94 249.25-245.04 338.2-469 467.5-278.21 160.62-485.5 174.74-806.5 162-344.89-13.68-549.04-80.72-845.5-257.5-237.928-141.88-381.811-238.4-527.98-473.72C60.883 987.614-84.586 735.451 59 432.002 185.06 165.596 409.151 96.275 695.5 26.502c341.841-83.294 550.231 48.64 890.001 140 381.07 102.465 634.46 124.246 937.5 377Z"/>
</svg>
