<?xml version="1.0" encoding="utf-8"?><svg viewBox="0 0 70 70" xmlns="http://www.w3.org/2000/svg" xmlns:xlink="http://www.w3.org/1999/xlink"><style>:root>svg{display:none}:root>svg:target{display:block}</style><svg viewBox="0 0 40 40" id="icon-mail" xmlns="http://www.w3.org/2000/svg"><path d="M33.333 13.335L20 21.668 6.666 13.335V10L20 18.335 33.333 10m0-3.333H6.666A3.322 3.322 0 003.333 10v20a3.333 3.333 0 003.333 3.334h26.667A3.333 3.333 0 0036.666 30V10c0-1.85-1.5-3.333-3.333-3.333z"/></svg><svg viewBox="0 0 40 40" id="icon-phone" xmlns="http://www.w3.org/2000/svg"><path d="M11.033 17.983a25.161 25.161 0 0010.984 10.984l3.666-3.667a1.673 1.673 0 011.7-.417c1.867.617 3.867.95 5.95.95A1.666 1.666 0 0135 27.5v5.833A1.666 1.666 0 0133.333 35 28.334 28.334 0 015 6.667 1.667 1.667 0 016.667 5H12.5a1.667 1.667 0 011.667 1.667c0 2.083.333 4.083.95 5.95.183.583.05 1.233-.417 1.7l-3.667 3.666z"/></svg><svg viewBox="0 0 70 70" id="icon-tg" xmlns="http://www.w3.org/2000/svg"><path fill-rule="evenodd" clip-rule="evenodd" d="M15.824 34.621c10.2-4.43 16.99-7.373 20.4-8.8 9.704-4.051 11.744-4.75 13.055-4.78.292 0 .933.058 1.37.408.35.291.437.67.495.962.059.291.117.903.059 1.37-.525 5.536-2.798 18.971-3.964 25.15-.495 2.622-1.457 3.496-2.39 3.584-2.04.175-3.584-1.34-5.536-2.623-3.09-2.01-4.809-3.264-7.81-5.246-3.468-2.273-1.224-3.526.757-5.566.525-.524 9.471-8.684 9.646-9.413.03-.087.03-.437-.175-.612-.204-.175-.495-.116-.728-.058-.32.058-5.217 3.322-14.746 9.763-1.399.961-2.652 1.428-3.789 1.398-1.253-.029-3.642-.699-5.45-1.282-2.185-.7-3.934-1.078-3.788-2.302.088-.641.962-1.282 2.594-1.953z"/></svg><svg viewBox="0 0 70 70" id="icon-vk" xmlns="http://www.w3.org/2000/svg"><path d="M36.612 48.206c-13.316 0-20.91-9.626-21.227-25.642h6.67c.219 11.756 5.137 16.735 9.032 17.762V22.564h6.28v10.139c3.847-.437 7.888-5.057 9.25-10.139H52.9a20.116 20.116 0 01-3.008 7.331 18.984 18.984 0 01-5.537 5.451 19.44 19.44 0 016.31 5.299 20.69 20.69 0 013.695 7.56h-6.913c-.639-2.403-1.935-4.555-3.728-6.185-1.793-1.63-4.002-2.666-6.35-2.978v9.163h-.756z"/></svg><svg viewBox="0 0 70 70" id="icon-whapp" xmlns="http://www.w3.org/2000/svg"><path d="M44.354 39.055c-.512-.255-3.006-1.475-3.47-1.643-.465-.172-.806-.255-1.146.255-.335.502-1.312 1.64-1.606 1.977-.298.332-.594.357-1.1.128-.51-.256-2.148-.792-4.088-2.527-1.51-1.353-2.525-3.011-2.824-3.522-.296-.51-.032-.791.221-1.046.232-.23.512-.587.768-.89.248-.308.33-.512.505-.844.17-.357.083-.638-.043-.891-.127-.256-1.143-2.757-1.568-3.754-.409-.993-.829-.867-1.144-.867-.292-.026-.63-.026-.971-.026-.34 0-.89.126-1.356.61-.465.511-1.778 1.736-1.778 4.212 0 2.475 1.82 4.874 2.074 5.232.253.331 3.581 5.435 8.677 7.63 1.215.51 2.16.817 2.9 1.07 1.214.387 2.322.332 3.198.206.976-.154 3.006-1.226 3.43-2.426.434-1.2.434-2.195.306-2.424-.126-.23-.46-.358-.97-.587l-.015.127zm-9.25 12.536h-.028a17.02 17.02 0 01-8.6-2.348l-.613-.364-6.38 1.659 1.71-6.202-.407-.638a16.79 16.79 0 01-2.579-8.949c0-9.264 7.58-16.818 16.915-16.818 4.516 0 8.754 1.76 11.946 4.95a16.653 16.653 0 014.949 11.894c-.007 9.262-7.588 16.818-16.903 16.818l-.01-.002zm14.392-31.137c-3.88-3.75-8.984-5.868-14.42-5.868-11.198 0-20.316 9.075-20.321 20.235 0 3.566.934 7.043 2.714 10.114L14.583 55.42l10.778-2.81a20.523 20.523 0 009.715 2.462h.01c11.204 0 20.325-9.08 20.33-20.24 0-5.404-2.11-10.49-5.946-14.31"/></svg></svg>