<?xml version="1.0" encoding="utf-8"?><svg viewBox="0 0 221 70" xmlns="http://www.w3.org/2000/svg" xmlns:xlink="http://www.w3.org/1999/xlink"><style>:root>svg{display:none}:root>svg:target{display:block}</style><svg viewBox="0 0 17 16" id="icon-arrow" xmlns="http://www.w3.org/2000/svg"><path d="M.731 7.065v2h12l-5.5 5.5 1.42 1.42 7.92-7.92-7.92-7.92-1.42 1.42 5.5 5.5h-12z"/></svg><svg viewBox="0 0 60 60" id="icon-desktop-info" xmlns="http://www.w3.org/2000/svg"><path d="M57.188 12.311v2.011a1.87 1.87 0 01.937 1.616V52.5a1.875 1.875 0 01-1.875 1.875H3.75A1.875 1.875 0 011.875 52.5V15.937a1.87 1.87 0 01.937-1.615v-2.011A3.753 3.753 0 000 15.938V52.5a3.756 3.756 0 003.75 3.75h18.28v1.875h-4.687a.938.938 0 000 1.875h25.313a.937.937 0 100-1.875h-4.688V56.25H56.25A3.755 3.755 0 0060 52.5V15.937a3.754 3.754 0 00-2.812-3.626zM36.093 58.126H23.906V56.25h12.187v1.875zM50.625 3.75H48.75a.938.938 0 000 1.875h1.875a.938.938 0 000-1.875zM45 3.75h-1.875a.938.938 0 000 1.875H45a.938.938 0 000-1.875z"/><path d="M30 24.375v-11.25a1.876 1.876 0 00-1.875-1.875H10.312a1.876 1.876 0 00-1.874 1.875v11.25a1.875 1.875 0 001.874 1.875h17.813A1.875 1.875 0 0030 24.375zm-19.688-11.25h17.813v11.25H10.312v-11.25zm24.376.938h15.937a.938.938 0 000-1.876H34.687a.938.938 0 000 1.876zm0 3.75h15.937a.938.938 0 000-1.875H34.687a.938.938 0 000 1.874zm0 3.75h15.937a.938.938 0 000-1.875H34.687a.938.938 0 000 1.875zm16.875 2.812a.938.938 0 00-.938-.938H34.687a.938.938 0 000 1.875h15.938c.518 0 .938-.42.938-.937z"/><path d="M5.625 46.875h16.171a3.739 3.739 0 01-.68-1.875H6.563V9.375h46.876V45H38.883a3.739 3.739 0 01-.679 1.875h16.171c.518 0 .938-.42.938-1.406V2.344C55.313 1.26 54.05 0 52.5 0h-45C5.949 0 4.687 1.261 4.687 2.344v43.125c0 .986.42 1.406.938 1.406zm.937-44.062a.94.94 0 01.938-.938h45a.94.94 0 01.938.938V7.5H6.562V2.813z"/><path d="M28.586 51.857a1.876 1.876 0 002.828 0l5.128-5.887a1.875 1.875 0 00-1.383-3.139H33.28v-9.08a1.876 1.876 0 00-1.875-1.875h-2.812a1.875 1.875 0 00-1.875 1.875v9.08h-1.875a1.875 1.875 0 00-1.414 3.107l5.156 5.92zm.008-7.15V33.75h2.812v10.955h3.75L30 50.626l-5.156-5.92h3.75z"/></svg><svg viewBox="0 0 221 47" id="icon-logo" xmlns="http://www.w3.org/2000/svg"><path d="M57.893 11.101C53.515 4.814 46.685 1.057 38.147.165 24.482-1.264 8.263 6.514 8.263 26.624l3.776.038c0-19.416 15.83-23.715 25.439-22.647C63.52 6.91 60.283 37.125 53.974 40.887c-10.107 6.026-12.687-5.605-12.687-5.605h-3.7s-1.407 7.823-8.549 6.63c-4.673-.779-6.008-5.63-6.37-7.34 10.41-5.418 9.993-17.446 9.993-17.446l-9.034-2.68s-5.9 9.249-5.521 17.929c-9.06 2.581-15.31-3.63-15.334-3.654L0 31.228c.11.114 7.605 8.286 18.87 4.783.431 1.682 2.463 8.548 9.486 9.72 6.092 1.017 9.637-2.447 10.817-4.243 1.584 2.565 4.618 4.735 9.05 4.932.124.006.249.002.375.01 6.005.267 12.933-4.855 14.043-16.034.687-6.939-1.043-13.971-4.748-19.295zM25.545 18.97l3.034.88c-.204 1.373-.797 7.033-6.374 10.54.253-4.988 2.2-9.195 3.34-11.42z"/><path d="M17.91 15.502l-3.205 3.068 2.46 2.442 3.204-3.07-2.46-2.44zm70.908 5.35l-2.946 2.886 2.261 2.296 2.946-2.886-2.261-2.296zM70.457 22.54h4.21v13.522c0 3.751 3.416 6.332 7.66 6.332h2.035v4.198H82.05c-6.418 0-11.595-4.61-11.595-10.324V22.539h.002zm20.12 6.847v17.206h-4.21V29.387h4.21zm2.873-3.475h4.21v5.541h2.486v4.13h-2.485v3.543c0 1.824 1.517 3.338 3.346 3.338h1.036v4.13h-1.036c-4.175 0-7.558-3.442-7.558-7.572v-13.11h.002zm10.485 0h4.21v5.541h2.485v4.13h-2.485v3.543c0 1.824 1.518 3.338 3.346 3.338h1.036v4.13h-1.036c-4.175 0-7.557-3.442-7.557-7.572v-13.11h.001zm10.34 20.68V22.504h4.244v24.088h-4.244zm16.214-18.135a9.13 9.13 0 012.001.206l.345.068c.105.034.241.069.346.104 3.83 1.101 6.624 4.577 6.624 8.706 0 .24-.034.483-.034.723a8.955 8.955 0 01-.414 1.962c-1.553-.757-3.278-1.135-5.107-1.135-1.828 0-3.555.378-5.175 1.1v-4.025a18.773 18.773 0 015.141-.723c.311 0 .587.034.898.034-.657-1.479-2.313-2.89-4.624-2.89-2.794 0-5.072 2.236-5.072 4.954 0 2.753 2.346 4.921 5.072 4.921 1.416 0 2.622-.482 3.624-1.48.724.791 1.967 2.135 2.898 3.132-1.622 1.513-3.898 2.478-6.522 2.478-5.245 0-9.282-4.13-9.282-9.05-.002-5.06 4.14-9.085 9.281-9.085zm12.15-6.434h4.163v14.454c0 3.2 2.627 5.987 6.074 5.987 3.379 0 6.075-2.65 6.075-5.987V22.023h4.163v14.454a6.01 6.01 0 006.04 5.987c3.379 0 6.075-2.65 6.075-5.987V22.023h4.163v14.454c0 5.677-4.64 10.117-10.238 10.117-3.31 0-6.245-1.514-8.122-3.992-1.91 2.479-4.845 3.992-8.156 3.992-5.664 0-10.237-4.508-10.237-10.117V22.023zm47.958 6.434a9.13 9.13 0 012.001.206l.346.068c.104.034.241.069.345.104 3.83 1.101 6.625 4.577 6.625 8.706 0 .24-.035.483-.035.723a8.954 8.954 0 01-.413 1.962c-1.554-.757-3.278-1.135-5.107-1.135-1.829 0-3.555.378-5.175 1.1v-4.025a18.768 18.768 0 015.141-.723c.311 0 .586.034.897.034-.656-1.479-2.312-2.89-4.623-2.89-2.795 0-5.073 2.236-5.073 4.954 0 2.753 2.347 4.921 5.073 4.921 1.415 0 2.622-.482 3.623-1.48.725.791 1.967 2.135 2.899 3.132-1.622 1.513-3.899 2.478-6.522 2.478-5.246 0-9.283-4.13-9.283-9.05-.001-5.06 4.14-9.085 9.281-9.085zm16.014-6.365v15.416c0 3.165 2.174 5.333 5.073 5.333 2.933 0 5.072-2.684 5.072-5.333 0-2.614-2.035-5.333-5.072-5.333-.725 0-1.415.138-2.036.378a261.302 261.302 0 01-1.415-3.475c1.07-.412 2.208-.619 3.451-.619 5.348 0 9.316 4.164 9.316 9.05 0 5.093-4.244 9.085-9.316 9.085-5.141 0-9.283-4.026-9.283-9.084V22.094h4.21v-.002z"/></svg><svg viewBox="0 0 40 40" id="icon-mail" xmlns="http://www.w3.org/2000/svg"><path d="M33.333 13.335L20 21.668 6.666 13.335V10L20 18.335 33.333 10m0-3.333H6.666A3.322 3.322 0 003.333 10v20a3.333 3.333 0 003.333 3.334h26.667A3.333 3.333 0 0036.666 30V10c0-1.85-1.5-3.333-3.333-3.333z"/></svg><svg viewBox="0 0 44 44" id="icon-noimage" xmlns="http://www.w3.org/2000/svg"><path d="M43.5 22c0 11.874-9.626 21.5-21.5 21.5S.5 33.874.5 22 10.126.5 22 .5 43.5 10.126 43.5 22z"/><path d="M29.25 15.417c-1.666.583-4 1.167-7.25 1.167s-5.75-.667-7.25-1.167c-.5-.25-1.083.167-1.083.75v11.666c0 .584.583 1 1.083.834 1.75-.584 4-1.25 7.25-1.25s5.584.666 7.25 1.25c.584.166 1.084-.25 1.084-.834V16.168c0-.584-.584-1-1.084-.75zM22 24.5c-1.916 0-3.75.084-5.416.334l3.083-3.667 1.667 2 2.333-2.834 3.75 4.5c-1.667-.25-3.5-.333-5.417-.333z"/></svg><svg viewBox="0 0 40 40" id="icon-phone" xmlns="http://www.w3.org/2000/svg"><path d="M11.033 17.983a25.161 25.161 0 0010.984 10.984l3.666-3.667a1.673 1.673 0 011.7-.417c1.867.617 3.867.95 5.95.95A1.666 1.666 0 0135 27.5v5.833A1.666 1.666 0 0133.333 35 28.334 28.334 0 015 6.667 1.667 1.667 0 016.667 5H12.5a1.667 1.667 0 011.667 1.667c0 2.083.333 4.083.95 5.95.183.583.05 1.233-.417 1.7l-3.667 3.666z"/></svg><svg viewBox="0 0 70 70" id="icon-tg" xmlns="http://www.w3.org/2000/svg"><path fill-rule="evenodd" clip-rule="evenodd" d="M15.824 34.621c10.2-4.43 16.99-7.373 20.4-8.8 9.704-4.051 11.744-4.75 13.055-4.78.292 0 .933.058 1.37.408.35.291.437.67.495.962.059.291.117.903.059 1.37-.525 5.536-2.798 18.971-3.964 25.15-.495 2.622-1.457 3.496-2.39 3.584-2.04.175-3.584-1.34-5.536-2.623-3.09-2.01-4.809-3.264-7.81-5.246-3.468-2.273-1.224-3.526.757-5.566.525-.524 9.471-8.684 9.646-9.413.03-.087.03-.437-.175-.612-.204-.175-.495-.116-.728-.058-.32.058-5.217 3.322-14.746 9.763-1.399.961-2.652 1.428-3.789 1.398-1.253-.029-3.642-.699-5.45-1.282-2.185-.7-3.934-1.078-3.788-2.302.088-.641.962-1.282 2.594-1.953z"/></svg><svg viewBox="0 0 70 70" id="icon-vk" xmlns="http://www.w3.org/2000/svg"><path d="M36.612 48.206c-13.316 0-20.91-9.626-21.227-25.642h6.67c.219 11.756 5.137 16.735 9.032 17.762V22.564h6.28v10.139c3.847-.437 7.888-5.057 9.25-10.139H52.9a20.116 20.116 0 01-3.008 7.331 18.984 18.984 0 01-5.537 5.451 19.44 19.44 0 016.31 5.299 20.69 20.69 0 013.695 7.56h-6.913c-.639-2.403-1.935-4.555-3.728-6.185-1.793-1.63-4.002-2.666-6.35-2.978v9.163h-.756z"/></svg><svg viewBox="0 0 70 70" id="icon-whapp" xmlns="http://www.w3.org/2000/svg"><path d="M44.354 39.055c-.512-.255-3.006-1.475-3.47-1.643-.465-.172-.806-.255-1.146.255-.335.502-1.312 1.64-1.606 1.977-.298.332-.594.357-1.1.128-.51-.256-2.148-.792-4.088-2.527-1.51-1.353-2.525-3.011-2.824-3.522-.296-.51-.032-.791.221-1.046.232-.23.512-.587.768-.89.248-.308.33-.512.505-.844.17-.357.083-.638-.043-.891-.127-.256-1.143-2.757-1.568-3.754-.409-.993-.829-.867-1.144-.867-.292-.026-.63-.026-.971-.026-.34 0-.89.126-1.356.61-.465.511-1.778 1.736-1.778 4.212 0 2.475 1.82 4.874 2.074 5.232.253.331 3.581 5.435 8.677 7.63 1.215.51 2.16.817 2.9 1.07 1.214.387 2.322.332 3.198.206.976-.154 3.006-1.226 3.43-2.426.434-1.2.434-2.195.306-2.424-.126-.23-.46-.358-.97-.587l-.015.127zm-9.25 12.536h-.028a17.02 17.02 0 01-8.6-2.348l-.613-.364-6.38 1.659 1.71-6.202-.407-.638a16.79 16.79 0 01-2.579-8.949c0-9.264 7.58-16.818 16.915-16.818 4.516 0 8.754 1.76 11.946 4.95a16.653 16.653 0 014.949 11.894c-.007 9.262-7.588 16.818-16.903 16.818l-.01-.002zm14.392-31.137c-3.88-3.75-8.984-5.868-14.42-5.868-11.198 0-20.316 9.075-20.321 20.235 0 3.566.934 7.043 2.714 10.114L14.583 55.42l10.778-2.81a20.523 20.523 0 009.715 2.462h.01c11.204 0 20.325-9.08 20.33-20.24 0-5.404-2.11-10.49-5.946-14.31"/></svg></svg>