<svg width="958" height="1294" viewBox="0 0 958 1294" fill="none" xmlns="http://www.w3.org/2000/svg">
<path d="M865.118 509.421C907.402 464.221 923.045 423.817 923.117 361.921C923.2 291.577 892.134 253.19 848.617 197.921C792.099 126.14 738.339 103.327 654.117 67.9215C421.275 -29.9625 72.4301 -42.2832 15.1294 167.959C-29.4377 331.251 22.822 448.694 296.118 509.421L450.618 548.421C450.618 548.421 532.117 563.422 552.118 566.921C552.118 566.921 652.682 588.943 715.618 577.421C778.708 565.871 821.301 556.26 865.118 509.421Z" fill="#EC9A29"/>
<path d="M886.499 1235.5C951.599 1174.9 968.644 1104.25 950.999 1017.08C935.975 942.861 894.986 910.152 839.999 858.083C752.451 775.182 678.53 748.291 559.499 729.083C383.34 700.657 173.8 630.758 116.499 841C71.932 1004.29 149.283 1172.2 308.499 1235.5C354.622 1253.84 433.499 1258.5 433.499 1258.5C433.499 1258.5 509.52 1280.13 559.499 1287C614.293 1294.53 700.999 1293 700.999 1293C700.999 1293 830.985 1287.17 886.499 1235.5Z" fill="#EC9A29"/>
</svg>
