<svg width="58" height="76" viewBox="0 0 58 76" fill="none" xmlns="http://www.w3.org/2000/svg">
<path d="M8.2002 33.1201C8.2002 34.5601 7.98686 35.6535 7.5602 36.4001C7.18686 37.1468 6.54686 37.7068 5.64019 38.0801C6.54686 38.4535 7.18686 39.0135 7.5602 39.7601C7.98686 40.5068 8.2002 41.6001 8.2002 43.0401V67.3601C8.2002 71.7868 10.2802 74.0001 14.4402 74.0001H17.0002V75.5201H15.0002C9.4002 75.5201 6.6002 72.8001 6.6002 67.3601V43.0401C6.6002 40.2135 5.4002 38.8001 3.0002 38.8001H0.200195V37.2801H3.0002C5.4002 37.2801 6.6002 35.8935 6.6002 33.1201V8.80014C6.6002 3.36014 9.4002 0.640137 15.0002 0.640137H17.0002V2.16014H14.4402C10.2802 2.16014 8.2002 4.37347 8.2002 8.80014V33.1201Z" fill="#5030D5"/>
<path d="M57.7846 37.2801V38.8001H54.9846C52.5846 38.8001 51.3846 40.2135 51.3846 43.0401V67.3601C51.3846 72.8001 48.5846 75.5201 42.9846 75.5201H40.9846V74.0001H43.5446C47.7046 74.0001 49.7846 71.7868 49.7846 67.3601V43.0401C49.7846 41.6001 49.9712 40.5068 50.3446 39.7601C50.7712 39.0135 51.4379 38.4535 52.3446 38.0801C51.4379 37.7068 50.7712 37.1468 50.3446 36.4001C49.9712 35.6535 49.7846 34.5601 49.7846 33.1201V8.80014C49.7846 4.37347 47.7046 2.16014 43.5446 2.16014H40.9846V0.640137H42.9846C48.5846 0.640137 51.3846 3.36014 51.3846 8.80014V33.1201C51.3846 35.8935 52.5846 37.2801 54.9846 37.2801H57.7846Z" fill="#5030D5"/>
</svg>
