<svg width="111" height="33" viewBox="0 0 111 33" fill="none" xmlns="http://www.w3.org/2000/svg">
<path d="M13.0399 32.1798C10.5599 32.1798 8.21992 31.7798 6.01992 30.9798C3.81992 30.1798 2.11992 29.1598 0.919922 27.9198L1.63992 26.9598C2.83992 28.1198 4.43992 29.0998 6.43992 29.8998C8.47992 30.6598 10.6799 31.0398 13.0399 31.0398C16.5599 31.0398 19.1599 30.4398 20.8399 29.2398C22.5199 27.9998 23.3599 26.2998 23.3599 24.1398C23.3599 22.5798 22.8999 21.3598 21.9799 20.4798C21.0999 19.5598 19.9999 18.8998 18.6799 18.4998C17.3999 18.0598 15.6199 17.6198 13.3399 17.1798C10.8999 16.7398 8.91992 16.2798 7.39992 15.7998C5.91992 15.2798 4.65992 14.4798 3.61992 13.3998C2.61992 12.2798 2.11992 10.7398 2.11992 8.77981C2.11992 6.53981 3.03992 4.65981 4.87992 3.1398C6.75992 1.5798 9.49992 0.799805 13.0999 0.799805C15.0199 0.799805 16.9199 1.09981 18.7999 1.69981C20.6799 2.25981 22.1999 3.01981 23.3599 3.97981L22.6399 4.93981C21.4399 3.97981 19.9999 3.23981 18.3199 2.71981C16.6399 2.1998 14.8999 1.9398 13.0999 1.9398C9.85992 1.9398 7.41992 2.57981 5.77992 3.85981C4.17992 5.09981 3.37992 6.73981 3.37992 8.77981C3.37992 10.4198 3.83992 11.7198 4.75992 12.6798C5.67992 13.5998 6.81992 14.2798 8.17992 14.7198C9.53992 15.1598 11.3399 15.5798 13.5799 15.9798C16.0199 16.4598 17.9599 16.9398 19.3999 17.4198C20.8399 17.8998 22.0599 18.6798 23.0599 19.7598C24.0599 20.7998 24.5599 22.2598 24.5599 24.1398C24.5599 26.5798 23.5799 28.5398 21.6199 30.0198C19.6599 31.4598 16.7999 32.1798 13.0399 32.1798Z" fill="#5030D5"/>
<path d="M34.8734 9.01981C35.7534 6.37981 37.2334 4.35981 39.3134 2.95981C41.3934 1.5198 43.9734 0.799805 47.0534 0.799805V1.99981H46.6934C42.9734 1.99981 40.0734 3.19981 37.9934 5.59981C35.9134 7.95981 34.8734 11.1998 34.8734 15.3198V31.9998H33.6734V0.979806H34.8734V9.01981Z" fill="#5030D5"/>
<path d="M67.3432 32.1798C64.4232 32.1798 61.8032 31.5198 59.4832 30.1998C57.1632 28.8398 55.3432 26.9798 54.0232 24.6198C52.7432 22.2198 52.1032 19.4998 52.1032 16.4598C52.1032 13.4198 52.7432 10.7198 54.0232 8.35981C55.3432 5.95981 57.1632 4.09981 59.4832 2.77981C61.8032 1.45981 64.4232 0.799805 67.3432 0.799805C69.6232 0.799805 71.7232 1.2398 73.6432 2.11981C75.6032 2.95981 77.2232 4.19981 78.5032 5.83981L77.6632 6.73981C76.5032 5.13981 75.0232 3.93981 73.2232 3.1398C71.4232 2.3398 69.4632 1.9398 67.3432 1.9398C64.6632 1.9398 62.2432 2.5598 60.0832 3.79981C57.9632 4.99981 56.3032 6.71981 55.1032 8.95981C53.9032 11.1598 53.3032 13.6598 53.3032 16.4598C53.3032 19.2998 53.9032 21.8198 55.1032 24.0198C56.3032 26.2198 57.9632 27.9398 60.0832 29.1798C62.2432 30.4198 64.6632 31.0398 67.3432 31.0398C69.4632 31.0398 71.4232 30.6398 73.2232 29.8398C75.0232 29.0398 76.5032 27.8398 77.6632 26.2398L78.5032 27.1398C77.2232 28.7798 75.6032 30.0398 73.6432 30.9198C71.7232 31.7598 69.6232 32.1798 67.3432 32.1798Z" fill="#5030D5"/>
<path d="M86.0585 3.85981H110.659V4.99981H86.0585V3.85981ZM86.0585 16.9998H110.659V18.1398H86.0585V16.9998Z" fill="#5030D5"/>
</svg>
