<svg width="218" height="96" viewBox="0 0 218 96" fill="none" xmlns="http://www.w3.org/2000/svg">
<path d="M52.2379 40.4143L52.5755 40.2984V39.9414V23.0692V22.3559L51.905 22.5992L1.28848 40.9601L0.958984 41.0796V41.4301V59.0963V59.4468L1.28848 59.5663L51.905 77.9272L52.5755 78.1704V77.4572V60.585V60.228L52.2379 60.1121L23.5435 50.2632L52.2379 40.4143ZM116.083 0.933105H115.728L115.611 1.2678L82.859 94.7595L82.626 95.4248H83.3309H103.181H103.535L103.652 95.0901L136.404 1.59841L136.637 0.933105H135.932H116.083ZM217.343 41.4301V41.0796L217.013 40.9601L166.397 22.5992L165.726 22.3559V23.0692V39.9414V40.2984L166.064 40.4143L194.758 50.2632L166.064 60.1121L165.726 60.228V60.585V77.4572V78.1704L166.397 77.9272L217.013 59.5663L217.343 59.4468V59.0963V41.4301Z" stroke="#5030D4"/>
</svg>
