<svg width="39" height="43" viewBox="0 0 39 43" fill="none" xmlns="http://www.w3.org/2000/svg">
<path d="M1.6002 0H2.92019L2.6802 30.72H1.8402L1.6002 0ZM2.2602 42.18C1.8602 42.18 1.5002 42.02 1.1802 41.7C0.860195 41.38 0.700195 41.02 0.700195 40.62C0.700195 40.18 0.860195 39.82 1.1802 39.54C1.5002 39.22 1.8602 39.06 2.2602 39.06C2.7002 39.06 3.06019 39.22 3.3402 39.54C3.6602 39.82 3.82019 40.18 3.82019 40.62C3.82019 41.02 3.6602 41.38 3.3402 41.7C3.06019 42.02 2.7002 42.18 2.2602 42.18Z" fill="#5030D5"/>
<path d="M14.0314 13.86H38.6314V15H14.0314V13.86ZM14.0314 27H38.6314V28.14H14.0314V27Z" fill="#5030D5"/>
</svg>
