<svg width="145" height="46" viewBox="0 0 145 46" fill="none" xmlns="http://www.w3.org/2000/svg">
<path d="M25.1 14.4L1.88 24L25.1 33.6V34.92L0.5 24.66V23.34L25.1 13.08V14.4Z" fill="#5030D5"/>
<path d="M62.9342 0.47998V45H61.7342V35.52C60.6942 38.48 58.9342 40.84 56.4542 42.6C53.9742 44.32 51.1142 45.18 47.8742 45.18C45.0742 45.18 42.5142 44.52 40.1942 43.2C37.9142 41.84 36.1142 39.96 34.7942 37.56C33.4742 35.16 32.8142 32.46 32.8142 29.46C32.8142 26.46 33.4742 23.78 34.7942 21.42C36.1142 19.02 37.9142 17.16 40.1942 15.84C42.5142 14.48 45.0742 13.8 47.8742 13.8C51.0742 13.8 53.9142 14.68 56.3942 16.44C58.9142 18.16 60.6942 20.48 61.7342 23.4V0.47998H62.9342ZM47.8742 44.04C50.4742 44.04 52.8342 43.42 54.9542 42.18C57.0742 40.94 58.7342 39.22 59.9342 37.02C61.1342 34.78 61.7342 32.26 61.7342 29.46C61.7342 26.66 61.1342 24.16 59.9342 21.96C58.7342 19.72 57.0742 18 54.9542 16.8C52.8342 15.56 50.4742 14.94 47.8742 14.94C45.2742 14.94 42.9142 15.56 40.7942 16.8C38.6742 18 37.0142 19.72 35.8142 21.96C34.6142 24.16 34.0142 26.66 34.0142 29.46C34.0142 32.26 34.6142 34.78 35.8142 37.02C37.0142 39.22 38.6742 40.94 40.7942 42.18C42.9142 43.42 45.2742 44.04 47.8742 44.04Z" fill="#5030D5"/>
<path d="M76.7281 13.98H77.9281V45H76.7281V13.98ZM77.3281 5.39998C76.8881 5.39998 76.5081 5.23998 76.1881 4.91998C75.9081 4.59998 75.7681 4.23998 75.7681 3.83998C75.7681 3.39998 75.9081 3.03998 76.1881 2.75998C76.5081 2.43998 76.8881 2.27998 77.3281 2.27998C77.7281 2.27998 78.0881 2.43998 78.4081 2.75998C78.7281 3.03998 78.8881 3.39998 78.8881 3.83998C78.8881 4.23998 78.7281 4.59998 78.4081 4.91998C78.0881 5.23998 77.7281 5.39998 77.3281 5.39998Z" fill="#5030D5"/>
<path d="M114.948 13.98L100.668 45H99.4681L85.1881 13.98H86.5681L100.068 43.62L113.568 13.98H114.948Z" fill="#5030D5"/>
<path d="M144.397 23.34V24.66L119.797 34.92V33.6L143.017 24L119.797 14.4V13.08L144.397 23.34Z" fill="#5030D5"/>
</svg>
