<svg width="2915" height="2008" viewBox="0 0 2915 2008" fill="none" xmlns="http://www.w3.org/2000/svg">
<path d="M2523 543.502C2667.65 664.15 2769.54 730.48 2844 903.501C2917.01 1073.16 2936.24 1196.48 2887 1374.5C2818.06 1623.75 2641.96 1712.7 2418 1842C2139.79 2002.62 1932.5 2016.74 1611.5 2004C1266.61 1990.32 1062.46 1923.28 766 1746.5C528.072 1604.62 384.189 1508.1 238.02 1272.78C60.8833 987.614 -84.5862 735.451 59.0002 432.002C185.059 165.596 409.151 96.2755 695.499 26.5022C1037.34 -56.7923 1245.73 75.1421 1585.5 166.502C1966.57 268.967 2219.96 290.748 2523 543.502Z" fill="#10164A"/>
</svg>
